G04*
G04 #@! TF.GenerationSoftware,Altium Limited,Altium Designer,25.5.2 (35)*
G04*
G04 Layer_Physical_Order=4*
G04 Layer_Color=6736896*
%FSLAX44Y44*%
%MOMM*%
G71*
G04*
G04 #@! TF.SameCoordinates,F6FF292E-385D-4CED-94FC-DDC138C61579*
G04*
G04*
G04 #@! TF.FilePolarity,Positive*
G04*
G01*
G75*
%ADD130R,1.5400X1.5400*%
%ADD131C,1.5400*%
%ADD146C,2.8000*%
%ADD147C,1.4000*%
%ADD148C,1.6000*%
%ADD149O,1.3080X2.6160*%
%ADD150C,1.9500*%
G04:AMPARAMS|DCode=151|XSize=1.4mm|YSize=1.4mm|CornerRadius=0.35mm|HoleSize=0mm|Usage=FLASHONLY|Rotation=180.000|XOffset=0mm|YOffset=0mm|HoleType=Round|Shape=RoundedRectangle|*
%AMROUNDEDRECTD151*
21,1,1.4000,0.7000,0,0,180.0*
21,1,0.7000,1.4000,0,0,180.0*
1,1,0.7000,-0.3500,0.3500*
1,1,0.7000,0.3500,0.3500*
1,1,0.7000,0.3500,-0.3500*
1,1,0.7000,-0.3500,-0.3500*
%
%ADD151ROUNDEDRECTD151*%
%ADD153O,2.6160X1.3080*%
%ADD154C,1.2000*%
%ADD155C,1.2220*%
G04:AMPARAMS|DCode=157|XSize=1.6mm|YSize=1.6mm|CornerRadius=0.4mm|HoleSize=0mm|Usage=FLASHONLY|Rotation=270.000|XOffset=0mm|YOffset=0mm|HoleType=Round|Shape=RoundedRectangle|*
%AMROUNDEDRECTD157*
21,1,1.6000,0.8000,0,0,270.0*
21,1,0.8000,1.6000,0,0,270.0*
1,1,0.8000,-0.4000,-0.4000*
1,1,0.8000,-0.4000,0.4000*
1,1,0.8000,0.4000,0.4000*
1,1,0.8000,0.4000,-0.4000*
%
%ADD157ROUNDEDRECTD157*%
%ADD158C,2.0000*%
%ADD159C,1.0300*%
%ADD160C,0.5000*%
G36*
X1957832Y264160D02*
X264160D01*
Y811784D01*
X1957832D01*
Y264160D01*
D02*
G37*
%LPC*%
G36*
X1670596Y803866D02*
X1668996D01*
X1667519Y803254D01*
X1666388Y802123D01*
X1665776Y800646D01*
Y799046D01*
X1666388Y797569D01*
X1667519Y796438D01*
X1668996Y795826D01*
X1670596D01*
X1672073Y796438D01*
X1673204Y797569D01*
X1673816Y799046D01*
Y800646D01*
X1673204Y802123D01*
X1672073Y803254D01*
X1670596Y803866D01*
D02*
G37*
G36*
X1825228Y791095D02*
Y787638D01*
X1828685D01*
X1828043Y789187D01*
X1826777Y790453D01*
X1825228Y791095D01*
D02*
G37*
G36*
X1823228D02*
X1821679Y790453D01*
X1820413Y789187D01*
X1819772Y787638D01*
X1823228D01*
Y791095D01*
D02*
G37*
G36*
X1828685Y785638D02*
X1825228D01*
Y782181D01*
X1826777Y782823D01*
X1828043Y784089D01*
X1828685Y785638D01*
D02*
G37*
G36*
X1823228D02*
X1819772D01*
X1820413Y784089D01*
X1821679Y782823D01*
X1823228Y782181D01*
Y785638D01*
D02*
G37*
G36*
X1863128Y788626D02*
X1861528D01*
X1860051Y788014D01*
X1858920Y786883D01*
X1858308Y785406D01*
Y783806D01*
X1858920Y782329D01*
X1860051Y781198D01*
X1861528Y780586D01*
X1863128D01*
X1864605Y781198D01*
X1865736Y782329D01*
X1866348Y783806D01*
Y785406D01*
X1865736Y786883D01*
X1864605Y788014D01*
X1863128Y788626D01*
D02*
G37*
G36*
X1414256Y763662D02*
Y760206D01*
X1417713D01*
X1417071Y761755D01*
X1415805Y763021D01*
X1414256Y763662D01*
D02*
G37*
G36*
X1412256D02*
X1410707Y763021D01*
X1409441Y761755D01*
X1408799Y760206D01*
X1412256D01*
Y763662D01*
D02*
G37*
G36*
X1231376D02*
Y760206D01*
X1234833D01*
X1234191Y761755D01*
X1232925Y763021D01*
X1231376Y763662D01*
D02*
G37*
G36*
X1229376D02*
X1227827Y763021D01*
X1226561Y761755D01*
X1225919Y760206D01*
X1229376D01*
Y763662D01*
D02*
G37*
G36*
X1417713Y758206D02*
X1414256D01*
Y754750D01*
X1415805Y755391D01*
X1417071Y756657D01*
X1417713Y758206D01*
D02*
G37*
G36*
X1412256D02*
X1408799D01*
X1409441Y756657D01*
X1410707Y755391D01*
X1412256Y754750D01*
Y758206D01*
D02*
G37*
G36*
X1234833D02*
X1231376D01*
Y754750D01*
X1232925Y755391D01*
X1234191Y756657D01*
X1234833Y758206D01*
D02*
G37*
G36*
X1229376D02*
X1225919D01*
X1226561Y756657D01*
X1227827Y755391D01*
X1229376Y754750D01*
Y758206D01*
D02*
G37*
G36*
X602229Y759148D02*
X601952D01*
Y750448D01*
X610652D01*
Y750725D01*
X609991Y753192D01*
X608714Y755404D01*
X606908Y757210D01*
X604696Y758487D01*
X602229Y759148D01*
D02*
G37*
G36*
X599952D02*
X599675D01*
X597208Y758487D01*
X594996Y757210D01*
X593190Y755404D01*
X591913Y753192D01*
X591252Y750725D01*
Y750448D01*
X599952D01*
Y759148D01*
D02*
G37*
G36*
X545652D02*
X536952D01*
Y750448D01*
X545652D01*
Y759148D01*
D02*
G37*
G36*
X534952D02*
X526252D01*
Y750448D01*
X534952D01*
Y759148D01*
D02*
G37*
G36*
X298132Y767056D02*
X290132D01*
X287978Y766628D01*
X286152Y765408D01*
X284932Y763582D01*
X284504Y761428D01*
Y753428D01*
X284932Y751274D01*
X286152Y749448D01*
X287978Y748228D01*
X290132Y747800D01*
X298132D01*
X300286Y748228D01*
X302112Y749448D01*
X303332Y751274D01*
X303760Y753428D01*
Y761428D01*
X303332Y763582D01*
X302112Y765408D01*
X300286Y766628D01*
X298132Y767056D01*
D02*
G37*
G36*
X1688576Y750963D02*
Y747506D01*
X1692032D01*
X1691391Y749055D01*
X1690125Y750321D01*
X1688576Y750963D01*
D02*
G37*
G36*
X1686576D02*
X1685027Y750321D01*
X1683761Y749055D01*
X1683120Y747506D01*
X1686576D01*
Y750963D01*
D02*
G37*
G36*
X1692032Y745506D02*
X1688576D01*
Y742049D01*
X1690125Y742691D01*
X1691391Y743957D01*
X1692032Y745506D01*
D02*
G37*
G36*
X1686576D02*
X1683120D01*
X1683761Y743957D01*
X1685027Y742691D01*
X1686576Y742049D01*
Y745506D01*
D02*
G37*
G36*
X610652Y748448D02*
X601952D01*
Y739748D01*
X602229D01*
X604696Y740409D01*
X606908Y741686D01*
X608714Y743492D01*
X609991Y745704D01*
X610652Y748171D01*
Y748448D01*
D02*
G37*
G36*
X599952D02*
X591252D01*
Y748171D01*
X591913Y745704D01*
X593190Y743492D01*
X594996Y741686D01*
X597208Y740409D01*
X599675Y739748D01*
X599952D01*
Y748448D01*
D02*
G37*
G36*
X545652D02*
X536952D01*
Y739748D01*
X545652D01*
Y748448D01*
D02*
G37*
G36*
X534952D02*
X526252D01*
Y739748D01*
X534952D01*
Y748448D01*
D02*
G37*
G36*
X1537011Y736443D02*
Y732987D01*
X1540468D01*
X1539826Y734536D01*
X1538560Y735801D01*
X1537011Y736443D01*
D02*
G37*
G36*
X1535011D02*
X1533462Y735801D01*
X1532196Y734536D01*
X1531555Y732987D01*
X1535011D01*
Y736443D01*
D02*
G37*
G36*
X1152636Y735976D02*
Y732520D01*
X1156093D01*
X1155451Y734069D01*
X1154185Y735335D01*
X1152636Y735976D01*
D02*
G37*
G36*
X1150636D02*
X1149087Y735335D01*
X1147821Y734069D01*
X1147179Y732520D01*
X1150636D01*
Y735976D01*
D02*
G37*
G36*
X493938Y731985D02*
Y728529D01*
X497395D01*
X496753Y730078D01*
X495487Y731344D01*
X493938Y731985D01*
D02*
G37*
G36*
X491938D02*
X490389Y731344D01*
X489123Y730078D01*
X488481Y728529D01*
X491938D01*
Y731985D01*
D02*
G37*
G36*
X1540468Y730987D02*
X1537011D01*
Y727530D01*
X1538560Y728172D01*
X1539826Y729438D01*
X1540468Y730987D01*
D02*
G37*
G36*
X1535011D02*
X1531555D01*
X1532196Y729438D01*
X1533462Y728172D01*
X1535011Y727530D01*
Y730987D01*
D02*
G37*
G36*
X1408976Y735286D02*
X1407376D01*
X1405899Y734674D01*
X1404768Y733543D01*
X1404156Y732066D01*
Y730466D01*
X1404768Y728989D01*
X1405899Y727858D01*
X1407376Y727246D01*
X1408976D01*
X1410453Y727858D01*
X1411584Y728989D01*
X1412196Y730466D01*
Y732066D01*
X1411584Y733543D01*
X1410453Y734674D01*
X1408976Y735286D01*
D02*
G37*
G36*
X1156093Y730520D02*
X1152636D01*
Y727064D01*
X1154185Y727705D01*
X1155451Y728971D01*
X1156093Y730520D01*
D02*
G37*
G36*
X1150636D02*
X1147179D01*
X1147821Y728971D01*
X1149087Y727705D01*
X1150636Y727064D01*
Y730520D01*
D02*
G37*
G36*
X355892Y733508D02*
X354292D01*
X352815Y732896D01*
X351684Y731765D01*
X351072Y730288D01*
Y728688D01*
X351684Y727211D01*
X352815Y726080D01*
X354292Y725468D01*
X355892D01*
X357369Y726080D01*
X358500Y727211D01*
X359112Y728688D01*
Y730288D01*
X358500Y731765D01*
X357369Y732896D01*
X355892Y733508D01*
D02*
G37*
G36*
X497395Y726529D02*
X493938D01*
Y723072D01*
X495487Y723714D01*
X496753Y724980D01*
X497395Y726529D01*
D02*
G37*
G36*
X491938D02*
X488481D01*
X489123Y724980D01*
X490389Y723714D01*
X491938Y723072D01*
Y726529D01*
D02*
G37*
G36*
X295385Y741548D02*
X292879D01*
X290457Y740899D01*
X288287Y739646D01*
X286514Y737873D01*
X285261Y735703D01*
X284612Y733281D01*
Y730775D01*
X285261Y728353D01*
X286514Y726183D01*
X288287Y724410D01*
X290457Y723157D01*
X292879Y722508D01*
X295385D01*
X297807Y723157D01*
X299977Y724410D01*
X301750Y726183D01*
X303003Y728353D01*
X303652Y730775D01*
Y733281D01*
X303003Y735703D01*
X301750Y737873D01*
X299977Y739646D01*
X297807Y740899D01*
X295385Y741548D01*
D02*
G37*
G36*
X1218476Y727666D02*
X1216876D01*
X1215399Y727054D01*
X1214268Y725923D01*
X1213656Y724446D01*
Y722846D01*
X1214268Y721369D01*
X1215399Y720238D01*
X1216876Y719626D01*
X1218476D01*
X1219953Y720238D01*
X1221084Y721369D01*
X1221696Y722846D01*
Y724446D01*
X1221084Y725923D01*
X1219953Y727054D01*
X1218476Y727666D01*
D02*
G37*
G36*
X1492728Y717679D02*
Y714223D01*
X1496184D01*
X1495543Y715772D01*
X1494277Y717038D01*
X1492728Y717679D01*
D02*
G37*
G36*
X1490728D02*
X1489179Y717038D01*
X1487913Y715772D01*
X1487271Y714223D01*
X1490728D01*
Y717679D01*
D02*
G37*
G36*
X1309848D02*
Y714223D01*
X1313304D01*
X1312663Y715772D01*
X1311397Y717038D01*
X1309848Y717679D01*
D02*
G37*
G36*
X1307848D02*
X1306299Y717038D01*
X1305033Y715772D01*
X1304391Y714223D01*
X1307848D01*
Y717679D01*
D02*
G37*
G36*
X356092Y713624D02*
Y710168D01*
X359548D01*
X358907Y711717D01*
X357641Y712983D01*
X356092Y713624D01*
D02*
G37*
G36*
X354092D02*
X352543Y712983D01*
X351277Y711717D01*
X350635Y710168D01*
X354092D01*
Y713624D01*
D02*
G37*
G36*
X1381239Y713076D02*
Y709620D01*
X1384696D01*
X1384054Y711169D01*
X1382788Y712435D01*
X1381239Y713076D01*
D02*
G37*
G36*
X1379239D02*
X1377690Y712435D01*
X1376424Y711169D01*
X1375783Y709620D01*
X1379239D01*
Y713076D01*
D02*
G37*
G36*
X1198359D02*
Y709620D01*
X1201816D01*
X1201174Y711169D01*
X1199908Y712435D01*
X1198359Y713076D01*
D02*
G37*
G36*
X1196359D02*
X1194810Y712435D01*
X1193544Y711169D01*
X1192903Y709620D01*
X1196359D01*
Y713076D01*
D02*
G37*
G36*
X1496184Y712223D02*
X1492728D01*
Y708766D01*
X1494277Y709408D01*
X1495543Y710674D01*
X1496184Y712223D01*
D02*
G37*
G36*
X1490728D02*
X1487271D01*
X1487913Y710674D01*
X1489179Y709408D01*
X1490728Y708766D01*
Y712223D01*
D02*
G37*
G36*
X1313304D02*
X1309848D01*
Y708766D01*
X1311397Y709408D01*
X1312663Y710674D01*
X1313304Y712223D01*
D02*
G37*
G36*
X1307848D02*
X1304391D01*
X1305033Y710674D01*
X1306299Y709408D01*
X1307848Y708766D01*
Y712223D01*
D02*
G37*
G36*
X714612Y711085D02*
Y707628D01*
X718068D01*
X717427Y709177D01*
X716161Y710443D01*
X714612Y711085D01*
D02*
G37*
G36*
X712612D02*
X711063Y710443D01*
X709797Y709177D01*
X709156Y707628D01*
X712612D01*
Y711085D01*
D02*
G37*
G36*
X1583409Y709742D02*
Y706285D01*
X1586865D01*
X1586223Y707834D01*
X1584958Y709100D01*
X1583409Y709742D01*
D02*
G37*
G36*
X1581409D02*
X1579860Y709100D01*
X1578594Y707834D01*
X1577952Y706285D01*
X1581409D01*
Y709742D01*
D02*
G37*
G36*
X359548Y708168D02*
X356092D01*
Y704712D01*
X357641Y705353D01*
X358907Y706619D01*
X359548Y708168D01*
D02*
G37*
G36*
X354092D02*
X350635D01*
X351277Y706619D01*
X352543Y705353D01*
X354092Y704712D01*
Y708168D01*
D02*
G37*
G36*
X1736988Y708118D02*
Y704661D01*
X1740445D01*
X1739803Y706210D01*
X1738537Y707476D01*
X1736988Y708118D01*
D02*
G37*
G36*
X1734988D02*
X1733439Y707476D01*
X1732173Y706210D01*
X1731532Y704661D01*
X1734988D01*
Y708118D01*
D02*
G37*
G36*
X1384696Y707620D02*
X1381239D01*
Y704163D01*
X1382788Y704805D01*
X1384054Y706071D01*
X1384696Y707620D01*
D02*
G37*
G36*
X1379239D02*
X1375783D01*
X1376424Y706071D01*
X1377690Y704805D01*
X1379239Y704163D01*
Y707620D01*
D02*
G37*
G36*
X1201816D02*
X1198359D01*
Y704163D01*
X1199908Y704805D01*
X1201174Y706071D01*
X1201816Y707620D01*
D02*
G37*
G36*
X1196359D02*
X1192903D01*
X1193544Y706071D01*
X1194810Y704805D01*
X1196359Y704163D01*
Y707620D01*
D02*
G37*
G36*
X686092Y710648D02*
X684492D01*
X683015Y710036D01*
X681884Y708905D01*
X681272Y707428D01*
Y705828D01*
X681884Y704351D01*
X683015Y703220D01*
X684492Y702608D01*
X686092D01*
X687569Y703220D01*
X688700Y704351D01*
X689312Y705828D01*
Y707428D01*
X688700Y708905D01*
X687569Y710036D01*
X686092Y710648D01*
D02*
G37*
G36*
X718068Y705628D02*
X714612D01*
Y702171D01*
X716161Y702813D01*
X717427Y704079D01*
X718068Y705628D01*
D02*
G37*
G36*
X712612D02*
X709156D01*
X709797Y704079D01*
X711063Y702813D01*
X712612Y702171D01*
Y705628D01*
D02*
G37*
G36*
X1586865Y704285D02*
X1583409D01*
Y700828D01*
X1584958Y701470D01*
X1586223Y702736D01*
X1586865Y704285D01*
D02*
G37*
G36*
X1581409D02*
X1577952D01*
X1578594Y702736D01*
X1579860Y701470D01*
X1581409Y700828D01*
Y704285D01*
D02*
G37*
G36*
X1526686Y702762D02*
Y699306D01*
X1530143D01*
X1529501Y700855D01*
X1528235Y702121D01*
X1526686Y702762D01*
D02*
G37*
G36*
X1524686D02*
X1523137Y702121D01*
X1521871Y700855D01*
X1521230Y699306D01*
X1524686D01*
Y702762D01*
D02*
G37*
G36*
X1343806D02*
Y699306D01*
X1347263D01*
X1346621Y700855D01*
X1345355Y702121D01*
X1343806Y702762D01*
D02*
G37*
G36*
X1341806D02*
X1340257Y702121D01*
X1338991Y700855D01*
X1338350Y699306D01*
X1341806D01*
Y702762D01*
D02*
G37*
G36*
X1740445Y702662D02*
X1736988D01*
Y699205D01*
X1738537Y699847D01*
X1739803Y701112D01*
X1740445Y702662D01*
D02*
G37*
G36*
X1734988D02*
X1731532D01*
X1732173Y701112D01*
X1733439Y699847D01*
X1734988Y699205D01*
Y702662D01*
D02*
G37*
G36*
X1445770Y702003D02*
Y698546D01*
X1449227D01*
X1448585Y700095D01*
X1447319Y701361D01*
X1445770Y702003D01*
D02*
G37*
G36*
X1443770D02*
X1442221Y701361D01*
X1440955Y700095D01*
X1440314Y698546D01*
X1443770D01*
Y702003D01*
D02*
G37*
G36*
X295385Y716148D02*
X292879D01*
X290457Y715499D01*
X288287Y714246D01*
X286514Y712473D01*
X285261Y710303D01*
X284612Y707881D01*
Y705375D01*
X285261Y702953D01*
X286514Y700783D01*
X288287Y699010D01*
X290457Y697757D01*
X292879Y697108D01*
X295385D01*
X297807Y697757D01*
X299977Y699010D01*
X301750Y700783D01*
X303003Y702953D01*
X303652Y705375D01*
Y707881D01*
X303003Y710303D01*
X301750Y712473D01*
X299977Y714246D01*
X297807Y715499D01*
X295385Y716148D01*
D02*
G37*
G36*
X602166Y713668D02*
X599738D01*
X597393Y713040D01*
X595291Y711826D01*
X593574Y710109D01*
X592360Y708007D01*
X591732Y705662D01*
Y703234D01*
X592360Y700889D01*
X593574Y698787D01*
X595291Y697070D01*
X597393Y695856D01*
X599738Y695228D01*
X602166D01*
X604511Y695856D01*
X606613Y697070D01*
X608330Y698787D01*
X609544Y700889D01*
X610172Y703234D01*
Y705662D01*
X609544Y708007D01*
X608330Y710109D01*
X606613Y711826D01*
X604511Y713040D01*
X602166Y713668D01*
D02*
G37*
G36*
X537166D02*
X534738D01*
X532393Y713040D01*
X530291Y711826D01*
X528574Y710109D01*
X527360Y708007D01*
X526732Y705662D01*
Y703234D01*
X527360Y700889D01*
X528574Y698787D01*
X530291Y697070D01*
X532393Y695856D01*
X534738Y695228D01*
X537166D01*
X539511Y695856D01*
X541613Y697070D01*
X543330Y698787D01*
X544544Y700889D01*
X545172Y703234D01*
Y705662D01*
X544544Y708007D01*
X543330Y710109D01*
X541613Y711826D01*
X539511Y713040D01*
X537166Y713668D01*
D02*
G37*
G36*
X1530143Y697306D02*
X1526686D01*
Y693849D01*
X1528235Y694491D01*
X1529501Y695757D01*
X1530143Y697306D01*
D02*
G37*
G36*
X1524686D02*
X1521230D01*
X1521871Y695757D01*
X1523137Y694491D01*
X1524686Y693849D01*
Y697306D01*
D02*
G37*
G36*
X1347263D02*
X1343806D01*
Y693849D01*
X1345355Y694491D01*
X1346621Y695757D01*
X1347263Y697306D01*
D02*
G37*
G36*
X1341806D02*
X1338350D01*
X1338991Y695757D01*
X1340257Y694491D01*
X1341806Y693849D01*
Y697306D01*
D02*
G37*
G36*
X1449227Y696546D02*
X1445770D01*
Y693090D01*
X1447319Y693731D01*
X1448585Y694997D01*
X1449227Y696546D01*
D02*
G37*
G36*
X1443770D02*
X1440314D01*
X1440955Y694997D01*
X1442221Y693731D01*
X1443770Y693090D01*
Y696546D01*
D02*
G37*
G36*
X1872114Y695431D02*
Y691974D01*
X1875571D01*
X1874929Y693523D01*
X1873663Y694789D01*
X1872114Y695431D01*
D02*
G37*
G36*
X1870114D02*
X1868565Y694789D01*
X1867299Y693523D01*
X1866658Y691974D01*
X1870114D01*
Y695431D01*
D02*
G37*
G36*
X1846818Y695337D02*
Y691880D01*
X1850275D01*
X1849633Y693429D01*
X1848367Y694695D01*
X1846818Y695337D01*
D02*
G37*
G36*
X1844818D02*
X1843269Y694695D01*
X1842003Y693429D01*
X1841362Y691880D01*
X1844818D01*
Y695337D01*
D02*
G37*
G36*
X929131Y694832D02*
Y691375D01*
X932588D01*
X931946Y692924D01*
X930680Y694190D01*
X929131Y694832D01*
D02*
G37*
G36*
X927132D02*
X925583Y694190D01*
X924317Y692924D01*
X923675Y691375D01*
X927132D01*
Y694832D01*
D02*
G37*
G36*
X1261856Y692542D02*
Y689086D01*
X1265312D01*
X1264671Y690635D01*
X1263405Y691901D01*
X1261856Y692542D01*
D02*
G37*
G36*
X1259856D02*
X1258307Y691901D01*
X1257041Y690635D01*
X1256400Y689086D01*
X1259856D01*
Y692542D01*
D02*
G37*
G36*
X1904222Y691019D02*
Y687562D01*
X1907679D01*
X1907037Y689111D01*
X1905771Y690377D01*
X1904222Y691019D01*
D02*
G37*
G36*
X1902222D02*
X1900673Y690377D01*
X1899407Y689111D01*
X1898766Y687562D01*
X1902222D01*
Y691019D01*
D02*
G37*
G36*
X661272Y690764D02*
Y687308D01*
X664728D01*
X664087Y688857D01*
X662821Y690123D01*
X661272Y690764D01*
D02*
G37*
G36*
X659272D02*
X657723Y690123D01*
X656457Y688857D01*
X655816Y687308D01*
X659272D01*
Y690764D01*
D02*
G37*
G36*
X638412D02*
Y687308D01*
X641869D01*
X641227Y688857D01*
X639961Y690123D01*
X638412Y690764D01*
D02*
G37*
G36*
X636412D02*
X634863Y690123D01*
X633597Y688857D01*
X632956Y687308D01*
X636412D01*
Y690764D01*
D02*
G37*
G36*
X1875571Y689974D02*
X1872114D01*
Y686518D01*
X1873663Y687159D01*
X1874929Y688425D01*
X1875571Y689974D01*
D02*
G37*
G36*
X1870114D02*
X1866658D01*
X1867299Y688425D01*
X1868565Y687159D01*
X1870114Y686518D01*
Y689974D01*
D02*
G37*
G36*
X1850275Y689880D02*
X1846818D01*
Y686423D01*
X1848367Y687065D01*
X1849633Y688331D01*
X1850275Y689880D01*
D02*
G37*
G36*
X1844818D02*
X1841362D01*
X1842003Y688331D01*
X1843269Y687065D01*
X1844818Y686423D01*
Y689880D01*
D02*
G37*
G36*
X932588Y689375D02*
X929131D01*
Y685919D01*
X930680Y686561D01*
X931946Y687826D01*
X932588Y689375D01*
D02*
G37*
G36*
X927132D02*
X923675D01*
X924317Y687826D01*
X925583Y686561D01*
X927132Y685919D01*
Y689375D01*
D02*
G37*
G36*
X1059836Y698061D02*
X1058079D01*
X1056383Y697607D01*
X1054862Y696729D01*
X1053620Y695487D01*
X1052742Y693966D01*
X1052288Y692270D01*
Y690513D01*
X1052742Y688817D01*
X1053620Y687296D01*
X1054862Y686054D01*
X1056383Y685176D01*
X1058079Y684721D01*
X1059836D01*
X1061532Y685176D01*
X1063053Y686054D01*
X1064295Y687296D01*
X1065173Y688817D01*
X1065628Y690513D01*
Y692270D01*
X1065173Y693966D01*
X1064295Y695487D01*
X1063053Y696729D01*
X1061532Y697607D01*
X1059836Y698061D01*
D02*
G37*
G36*
X1035436D02*
X1033679D01*
X1031983Y697607D01*
X1030462Y696729D01*
X1029220Y695487D01*
X1028342Y693966D01*
X1027887Y692270D01*
Y690513D01*
X1028342Y688817D01*
X1029220Y687296D01*
X1030462Y686054D01*
X1031983Y685176D01*
X1033679Y684721D01*
X1035436D01*
X1037132Y685176D01*
X1038653Y686054D01*
X1039895Y687296D01*
X1040773Y688817D01*
X1041227Y690513D01*
Y692270D01*
X1040773Y693966D01*
X1039895Y695487D01*
X1038653Y696729D01*
X1037132Y697607D01*
X1035436Y698061D01*
D02*
G37*
G36*
X1011036D02*
X1009279D01*
X1007583Y697607D01*
X1006062Y696729D01*
X1004820Y695487D01*
X1003942Y693966D01*
X1003487Y692270D01*
Y690513D01*
X1003942Y688817D01*
X1004820Y687296D01*
X1006062Y686054D01*
X1007583Y685176D01*
X1009279Y684721D01*
X1011036D01*
X1012732Y685176D01*
X1014253Y686054D01*
X1015495Y687296D01*
X1016373Y688817D01*
X1016827Y690513D01*
Y692270D01*
X1016373Y693966D01*
X1015495Y695487D01*
X1014253Y696729D01*
X1012732Y697607D01*
X1011036Y698061D01*
D02*
G37*
G36*
X1581696Y692106D02*
X1580096D01*
X1578619Y691494D01*
X1577488Y690363D01*
X1576876Y688886D01*
Y687286D01*
X1577488Y685809D01*
X1578619Y684678D01*
X1580096Y684066D01*
X1581696D01*
X1583173Y684678D01*
X1584304Y685809D01*
X1584916Y687286D01*
Y688886D01*
X1584304Y690363D01*
X1583173Y691494D01*
X1581696Y692106D01*
D02*
G37*
G36*
X1498076Y687462D02*
Y684006D01*
X1501532D01*
X1500891Y685555D01*
X1499625Y686821D01*
X1498076Y687462D01*
D02*
G37*
G36*
X1496076D02*
X1494527Y686821D01*
X1493261Y685555D01*
X1492619Y684006D01*
X1496076D01*
Y687462D01*
D02*
G37*
G36*
X1315196D02*
Y684006D01*
X1318652D01*
X1318011Y685555D01*
X1316745Y686821D01*
X1315196Y687462D01*
D02*
G37*
G36*
X1313196D02*
X1311647Y686821D01*
X1310381Y685555D01*
X1309740Y684006D01*
X1313196D01*
Y687462D01*
D02*
G37*
G36*
X1265312Y687086D02*
X1261856D01*
Y683630D01*
X1263405Y684271D01*
X1264671Y685537D01*
X1265312Y687086D01*
D02*
G37*
G36*
X1259856D02*
X1256400D01*
X1257041Y685537D01*
X1258307Y684271D01*
X1259856Y683630D01*
Y687086D01*
D02*
G37*
G36*
X493052Y690328D02*
X491452D01*
X489975Y689716D01*
X488844Y688585D01*
X488232Y687108D01*
Y685508D01*
X488844Y684031D01*
X489975Y682900D01*
X491452Y682288D01*
X493052D01*
X494529Y682900D01*
X495660Y684031D01*
X496272Y685508D01*
Y687108D01*
X495660Y688585D01*
X494529Y689716D01*
X493052Y690328D01*
D02*
G37*
G36*
X1907679Y685562D02*
X1904222D01*
Y682105D01*
X1905771Y682747D01*
X1907037Y684013D01*
X1907679Y685562D01*
D02*
G37*
G36*
X1902222D02*
X1898766D01*
X1899407Y684013D01*
X1900673Y682747D01*
X1902222Y682105D01*
Y685562D01*
D02*
G37*
G36*
X664728Y685308D02*
X661272D01*
Y681852D01*
X662821Y682493D01*
X664087Y683759D01*
X664728Y685308D01*
D02*
G37*
G36*
X659272D02*
X655816D01*
X656457Y683759D01*
X657723Y682493D01*
X659272Y681852D01*
Y685308D01*
D02*
G37*
G36*
X641869D02*
X638412D01*
Y681852D01*
X639961Y682493D01*
X641227Y683759D01*
X641869Y685308D01*
D02*
G37*
G36*
X636412D02*
X632956D01*
X633597Y683759D01*
X634863Y682493D01*
X636412Y681852D01*
Y685308D01*
D02*
G37*
G36*
X1769856Y684922D02*
Y681466D01*
X1773313D01*
X1772671Y683015D01*
X1771405Y684281D01*
X1769856Y684922D01*
D02*
G37*
G36*
X1767856D02*
X1766307Y684281D01*
X1765041Y683015D01*
X1764400Y681466D01*
X1767856D01*
Y684922D01*
D02*
G37*
G36*
X1501532Y682006D02*
X1498076D01*
Y678549D01*
X1499625Y679191D01*
X1500891Y680457D01*
X1501532Y682006D01*
D02*
G37*
G36*
X1496076D02*
X1492619D01*
X1493261Y680457D01*
X1494527Y679191D01*
X1496076Y678549D01*
Y682006D01*
D02*
G37*
G36*
X1318652D02*
X1315196D01*
Y678549D01*
X1316745Y679191D01*
X1318011Y680457D01*
X1318652Y682006D01*
D02*
G37*
G36*
X1313196D02*
X1309740D01*
X1310381Y680457D01*
X1311647Y679191D01*
X1313196Y678549D01*
Y682006D01*
D02*
G37*
G36*
X907288Y679592D02*
Y676135D01*
X910744D01*
X910102Y677684D01*
X908837Y678950D01*
X907288Y679592D01*
D02*
G37*
G36*
X905287D02*
X903738Y678950D01*
X902473Y677684D01*
X901831Y676135D01*
X905287D01*
Y679592D01*
D02*
G37*
G36*
X1773313Y679466D02*
X1769856D01*
Y676010D01*
X1771405Y676651D01*
X1772671Y677917D01*
X1773313Y679466D01*
D02*
G37*
G36*
X1767856D02*
X1764400D01*
X1765041Y677917D01*
X1766307Y676651D01*
X1767856Y676010D01*
Y679466D01*
D02*
G37*
G36*
X295385Y690748D02*
X292879D01*
X290457Y690099D01*
X288287Y688846D01*
X286514Y687073D01*
X285261Y684903D01*
X284612Y682481D01*
Y679975D01*
X285261Y677553D01*
X286514Y675383D01*
X288287Y673610D01*
X290457Y672357D01*
X292879Y671708D01*
X295385D01*
X297807Y672357D01*
X299977Y673610D01*
X301750Y675383D01*
X303003Y677553D01*
X303652Y679975D01*
Y682481D01*
X303003Y684903D01*
X301750Y687073D01*
X299977Y688846D01*
X297807Y690099D01*
X295385Y690748D01*
D02*
G37*
G36*
X910744Y674135D02*
X907288D01*
Y670679D01*
X908837Y671320D01*
X910102Y672586D01*
X910744Y674135D01*
D02*
G37*
G36*
X905287D02*
X901831D01*
X902473Y672586D01*
X903738Y671320D01*
X905287Y670679D01*
Y674135D01*
D02*
G37*
G36*
X1109073Y670132D02*
Y666675D01*
X1112529D01*
X1111888Y668224D01*
X1110622Y669490D01*
X1109073Y670132D01*
D02*
G37*
G36*
X1107073D02*
X1105524Y669490D01*
X1104258Y668224D01*
X1103616Y666675D01*
X1107073D01*
Y670132D01*
D02*
G37*
G36*
X1584436Y669682D02*
Y666226D01*
X1587892D01*
X1587251Y667775D01*
X1585985Y669041D01*
X1584436Y669682D01*
D02*
G37*
G36*
X1582436D02*
X1580887Y669041D01*
X1579621Y667775D01*
X1578979Y666226D01*
X1582436D01*
Y669682D01*
D02*
G37*
G36*
X462772Y667905D02*
Y664448D01*
X466228D01*
X465587Y665997D01*
X464321Y667263D01*
X462772Y667905D01*
D02*
G37*
G36*
X460772D02*
X459223Y667263D01*
X457957Y665997D01*
X457400Y664651D01*
X457345Y664583D01*
X456297Y664003D01*
X455748Y663811D01*
X455005Y664119D01*
X453406D01*
X451928Y663507D01*
X450798Y662376D01*
X450186Y660899D01*
Y659299D01*
X450798Y657822D01*
X451928Y656691D01*
X453406Y656079D01*
X455005D01*
X456483Y656691D01*
X457614Y657822D01*
X457984Y658717D01*
X458834Y659346D01*
X459750Y659415D01*
X460772Y658991D01*
Y663448D01*
Y667905D01*
D02*
G37*
G36*
X394192Y665365D02*
Y661908D01*
X397649D01*
X397007Y663457D01*
X395741Y664723D01*
X394192Y665365D01*
D02*
G37*
G36*
X392192D02*
X390643Y664723D01*
X389377Y663457D01*
X388736Y661908D01*
X392192D01*
Y665365D01*
D02*
G37*
G36*
X1112529Y664675D02*
X1109073D01*
Y661219D01*
X1110622Y661861D01*
X1111888Y663126D01*
X1112529Y664675D01*
D02*
G37*
G36*
X1107073D02*
X1103616D01*
X1104258Y663126D01*
X1105524Y661861D01*
X1107073Y661219D01*
Y664675D01*
D02*
G37*
G36*
X1472476Y669246D02*
X1470876D01*
X1469399Y668634D01*
X1468268Y667503D01*
X1467656Y666026D01*
Y664426D01*
X1468268Y662949D01*
X1469399Y661818D01*
X1470876Y661206D01*
X1472476D01*
X1473953Y661818D01*
X1475084Y662949D01*
X1475696Y664426D01*
Y666026D01*
X1475084Y667503D01*
X1473953Y668634D01*
X1472476Y669246D01*
D02*
G37*
G36*
X1421676D02*
X1420076D01*
X1418599Y668634D01*
X1417468Y667503D01*
X1416856Y666026D01*
Y664426D01*
X1417468Y662949D01*
X1418599Y661818D01*
X1420076Y661206D01*
X1421676D01*
X1423153Y661818D01*
X1424284Y662949D01*
X1424896Y664426D01*
Y666026D01*
X1424284Y667503D01*
X1423153Y668634D01*
X1421676Y669246D01*
D02*
G37*
G36*
X1587892Y664226D02*
X1584436D01*
Y660770D01*
X1585985Y661411D01*
X1587251Y662677D01*
X1587892Y664226D01*
D02*
G37*
G36*
X1582436D02*
X1578979D01*
X1579621Y662677D01*
X1580887Y661411D01*
X1582436Y660770D01*
Y664226D01*
D02*
G37*
G36*
X466228Y662448D02*
X462772D01*
Y658991D01*
X464321Y659633D01*
X465587Y660899D01*
X466228Y662448D01*
D02*
G37*
G36*
X1287056Y666706D02*
X1285456D01*
X1283979Y666094D01*
X1282848Y664963D01*
X1282236Y663486D01*
Y661886D01*
X1282848Y660409D01*
X1283979Y659278D01*
X1285456Y658666D01*
X1287056D01*
X1288533Y659278D01*
X1289664Y660409D01*
X1290276Y661886D01*
Y663486D01*
X1289664Y664963D01*
X1288533Y666094D01*
X1287056Y666706D01*
D02*
G37*
G36*
X1347962Y661554D02*
Y658098D01*
X1351418D01*
X1350777Y659647D01*
X1349511Y660913D01*
X1347962Y661554D01*
D02*
G37*
G36*
X1345962D02*
X1344413Y660913D01*
X1343147Y659647D01*
X1342505Y658098D01*
X1345962D01*
Y661554D01*
D02*
G37*
G36*
X295448Y665828D02*
X295132D01*
Y656828D01*
X304132D01*
Y657144D01*
X303451Y659688D01*
X302134Y661968D01*
X300272Y663830D01*
X297992Y665146D01*
X295448Y665828D01*
D02*
G37*
G36*
X293132D02*
X292815D01*
X290272Y665146D01*
X287992Y663830D01*
X286130Y661968D01*
X284813Y659688D01*
X284132Y657144D01*
Y656828D01*
X293132D01*
Y665828D01*
D02*
G37*
G36*
X397649Y659908D02*
X394192D01*
Y656451D01*
X395741Y657093D01*
X397007Y658359D01*
X397649Y659908D01*
D02*
G37*
G36*
X392192D02*
X388736D01*
X389377Y658359D01*
X390643Y657093D01*
X392192Y656451D01*
Y659908D01*
D02*
G37*
G36*
X1236256Y664166D02*
X1234656D01*
X1233179Y663554D01*
X1232048Y662423D01*
X1231436Y660946D01*
Y659346D01*
X1232048Y657869D01*
X1233179Y656738D01*
X1234656Y656126D01*
X1236256D01*
X1237733Y656738D01*
X1238864Y657869D01*
X1239476Y659346D01*
Y660946D01*
X1238864Y662423D01*
X1237733Y663554D01*
X1236256Y664166D01*
D02*
G37*
G36*
X1351418Y656098D02*
X1347962D01*
Y652642D01*
X1349511Y653283D01*
X1350777Y654549D01*
X1351418Y656098D01*
D02*
G37*
G36*
X1345962D02*
X1342505D01*
X1343147Y654549D01*
X1344413Y653283D01*
X1345962Y652642D01*
Y656098D01*
D02*
G37*
G36*
X304132Y654828D02*
X295132D01*
Y645828D01*
X295448D01*
X297992Y646509D01*
X300272Y647826D01*
X302134Y649688D01*
X303451Y651968D01*
X304132Y654511D01*
Y654828D01*
D02*
G37*
G36*
X293132D02*
X284132D01*
Y654511D01*
X284813Y651968D01*
X286130Y649688D01*
X287992Y647826D01*
X290272Y646509D01*
X292815Y645828D01*
X293132D01*
Y654828D01*
D02*
G37*
G36*
X1753402Y653074D02*
X1751803D01*
X1750325Y652462D01*
X1749195Y651331D01*
X1748583Y649854D01*
Y648254D01*
X1749195Y646777D01*
X1750325Y645646D01*
X1751803Y645034D01*
X1753402D01*
X1754880Y645646D01*
X1756011Y646777D01*
X1756623Y648254D01*
Y649854D01*
X1756011Y651331D01*
X1754880Y652462D01*
X1753402Y653074D01*
D02*
G37*
G36*
X762492Y647585D02*
Y644128D01*
X765948D01*
X765307Y645677D01*
X764041Y646943D01*
X762492Y647585D01*
D02*
G37*
G36*
X760492D02*
X758943Y646943D01*
X757677Y645677D01*
X757036Y644128D01*
X760492D01*
Y647585D01*
D02*
G37*
G36*
X1447276Y646823D02*
Y643366D01*
X1450733D01*
X1450091Y644915D01*
X1448825Y646181D01*
X1447276Y646823D01*
D02*
G37*
G36*
X1445276D02*
X1443727Y646181D01*
X1442461Y644915D01*
X1441819Y643366D01*
X1445276D01*
Y646823D01*
D02*
G37*
G36*
X1734839Y645871D02*
Y642414D01*
X1738295D01*
X1737653Y643963D01*
X1736388Y645229D01*
X1734839Y645871D01*
D02*
G37*
G36*
X1732838D02*
X1731290Y645229D01*
X1730024Y643963D01*
X1729382Y642414D01*
X1732838D01*
Y645871D01*
D02*
G37*
G36*
X1261838Y644453D02*
Y640996D01*
X1265294D01*
X1264653Y642545D01*
X1263387Y643811D01*
X1261838Y644453D01*
D02*
G37*
G36*
X1259838D02*
X1258289Y643811D01*
X1257023Y642545D01*
X1256381Y640996D01*
X1259838D01*
Y644453D01*
D02*
G37*
G36*
X582152Y642505D02*
Y639048D01*
X585608D01*
X584967Y640597D01*
X583701Y641863D01*
X582152Y642505D01*
D02*
G37*
G36*
X580152D02*
X578603Y641863D01*
X577337Y640597D01*
X576696Y639048D01*
X580152D01*
Y642505D01*
D02*
G37*
G36*
X765948Y642128D02*
X762492D01*
Y638671D01*
X764041Y639313D01*
X765307Y640579D01*
X765948Y642128D01*
D02*
G37*
G36*
X760492D02*
X757036D01*
X757677Y640579D01*
X758943Y639313D01*
X760492Y638671D01*
Y642128D01*
D02*
G37*
G36*
X838507Y646135D02*
X836908D01*
X835430Y645523D01*
X834299Y644392D01*
X833688Y642915D01*
Y641316D01*
X834299Y639838D01*
X835430Y638707D01*
X836908Y638095D01*
X838507D01*
X839985Y638707D01*
X841115Y639838D01*
X841728Y641316D01*
Y642915D01*
X841115Y644392D01*
X839985Y645523D01*
X838507Y646135D01*
D02*
G37*
G36*
X1450733Y641366D02*
X1447276D01*
Y637910D01*
X1448825Y638551D01*
X1450091Y639817D01*
X1450733Y641366D01*
D02*
G37*
G36*
X1445276D02*
X1441819D01*
X1442461Y639817D01*
X1443727Y638551D01*
X1445276Y637910D01*
Y641366D01*
D02*
G37*
G36*
X1738295Y640414D02*
X1734839D01*
Y636958D01*
X1736388Y637599D01*
X1737653Y638865D01*
X1738295Y640414D01*
D02*
G37*
G36*
X1732838D02*
X1729382D01*
X1730024Y638865D01*
X1731290Y637599D01*
X1732838Y636958D01*
Y640414D01*
D02*
G37*
G36*
X1594396Y643846D02*
X1592796D01*
X1591319Y643234D01*
X1590188Y642103D01*
X1589576Y640626D01*
Y639026D01*
X1590188Y637549D01*
X1591319Y636418D01*
X1592796Y635806D01*
X1594396D01*
X1595873Y636418D01*
X1597004Y637549D01*
X1597616Y639026D01*
Y640626D01*
X1597004Y642103D01*
X1595873Y643234D01*
X1594396Y643846D01*
D02*
G37*
G36*
X1265294Y638996D02*
X1261838D01*
Y635539D01*
X1263387Y636181D01*
X1264653Y637447D01*
X1265294Y638996D01*
D02*
G37*
G36*
X1259838D02*
X1256381D01*
X1257023Y637447D01*
X1258289Y636181D01*
X1259838Y635539D01*
Y638996D01*
D02*
G37*
G36*
X585608Y637048D02*
X582152D01*
Y633591D01*
X583701Y634233D01*
X584967Y635499D01*
X585608Y637048D01*
D02*
G37*
G36*
X580152D02*
X576696D01*
X577337Y635499D01*
X578603Y634233D01*
X580152Y633591D01*
Y637048D01*
D02*
G37*
G36*
X510832Y634448D02*
X509232D01*
X507755Y633836D01*
X506624Y632705D01*
X506012Y631228D01*
Y629628D01*
X506624Y628151D01*
X507755Y627020D01*
X509232Y626408D01*
X510832D01*
X512309Y627020D01*
X513440Y628151D01*
X514052Y629628D01*
Y631228D01*
X513440Y632705D01*
X512309Y633836D01*
X510832Y634448D01*
D02*
G37*
G36*
X343352D02*
X341752D01*
X340275Y633836D01*
X339144Y632705D01*
X338532Y631228D01*
Y629628D01*
X339144Y628151D01*
X340275Y627020D01*
X341752Y626408D01*
X343352D01*
X344829Y627020D01*
X345960Y628151D01*
X346572Y629628D01*
Y631228D01*
X345960Y632705D01*
X344829Y633836D01*
X343352Y634448D01*
D02*
G37*
G36*
X295385Y639948D02*
X292879D01*
X290457Y639299D01*
X288287Y638046D01*
X286514Y636273D01*
X285261Y634103D01*
X284612Y631681D01*
Y629175D01*
X285261Y626753D01*
X286514Y624583D01*
X288287Y622810D01*
X290457Y621557D01*
X292879Y620908D01*
X295385D01*
X297807Y621557D01*
X299977Y622810D01*
X301750Y624583D01*
X303003Y626753D01*
X303652Y629175D01*
Y631681D01*
X303003Y634103D01*
X301750Y636273D01*
X299977Y638046D01*
X297807Y639299D01*
X295385Y639948D01*
D02*
G37*
G36*
X483472Y619645D02*
Y616188D01*
X486928D01*
X486287Y617737D01*
X485021Y619003D01*
X483472Y619645D01*
D02*
G37*
G36*
X481472D02*
X479923Y619003D01*
X478657Y617737D01*
X478016Y616188D01*
X481472D01*
Y619645D01*
D02*
G37*
G36*
X1447280Y629676D02*
X1445271D01*
X1443331Y629156D01*
X1441591Y628152D01*
X1440170Y626731D01*
X1439166Y624991D01*
X1438646Y623050D01*
Y621041D01*
X1439166Y619101D01*
X1440170Y617361D01*
X1441591Y615941D01*
X1443331Y614936D01*
X1445271Y614416D01*
X1447280D01*
X1449221Y614936D01*
X1450961Y615941D01*
X1452381Y617361D01*
X1453386Y619101D01*
X1453906Y621041D01*
Y623050D01*
X1453386Y624991D01*
X1452381Y626731D01*
X1450961Y628152D01*
X1449221Y629156D01*
X1447280Y629676D01*
D02*
G37*
G36*
X1752330Y617104D02*
Y613648D01*
X1755786D01*
X1755145Y615197D01*
X1753879Y616463D01*
X1752330Y617104D01*
D02*
G37*
G36*
X1750330D02*
X1748781Y616463D01*
X1747515Y615197D01*
X1746873Y613648D01*
X1750330D01*
Y617104D01*
D02*
G37*
G36*
X762492D02*
Y613648D01*
X765948D01*
X765307Y615197D01*
X764041Y616463D01*
X762492Y617104D01*
D02*
G37*
G36*
X760492D02*
X758943Y616463D01*
X757677Y615197D01*
X757036Y613648D01*
X760492D01*
Y617104D01*
D02*
G37*
G36*
X1264654Y628152D02*
X1262645D01*
X1260705Y627632D01*
X1258965Y626628D01*
X1257544Y625207D01*
X1256540Y623467D01*
X1256020Y621526D01*
Y619518D01*
X1256540Y617577D01*
X1257544Y615837D01*
X1258965Y614417D01*
X1260705Y613412D01*
X1262645Y612892D01*
X1264654D01*
X1266595Y613412D01*
X1268335Y614417D01*
X1269755Y615837D01*
X1270760Y617577D01*
X1271280Y619518D01*
Y621526D01*
X1270760Y623467D01*
X1269755Y625207D01*
X1268335Y626628D01*
X1266595Y627632D01*
X1264654Y628152D01*
D02*
G37*
G36*
X1038336Y616343D02*
Y612886D01*
X1041793D01*
X1041151Y614435D01*
X1039885Y615701D01*
X1038336Y616343D01*
D02*
G37*
G36*
X1036336D02*
X1034787Y615701D01*
X1033521Y614435D01*
X1032879Y612886D01*
X1036336D01*
Y616343D01*
D02*
G37*
G36*
X486928Y614188D02*
X483472D01*
Y610732D01*
X485021Y611373D01*
X486287Y612639D01*
X486928Y614188D01*
D02*
G37*
G36*
X481472D02*
X478016D01*
X478657Y612639D01*
X479923Y611373D01*
X481472Y610732D01*
Y614188D01*
D02*
G37*
G36*
X1755786Y611648D02*
X1752330D01*
Y608191D01*
X1753879Y608833D01*
X1755145Y610099D01*
X1755786Y611648D01*
D02*
G37*
G36*
X1750330D02*
X1746873D01*
X1747515Y610099D01*
X1748781Y608833D01*
X1750330Y608191D01*
Y611648D01*
D02*
G37*
G36*
X765948D02*
X762492D01*
Y608191D01*
X764041Y608833D01*
X765307Y610099D01*
X765948Y611648D01*
D02*
G37*
G36*
X760492D02*
X757036D01*
X757677Y610099D01*
X758943Y608833D01*
X760492Y608191D01*
Y611648D01*
D02*
G37*
G36*
X1041793Y610886D02*
X1038336D01*
Y607430D01*
X1039885Y608071D01*
X1041151Y609337D01*
X1041793Y610886D01*
D02*
G37*
G36*
X1036336D02*
X1032879D01*
X1033521Y609337D01*
X1034787Y608071D01*
X1036336Y607430D01*
Y610886D01*
D02*
G37*
G36*
X1658578Y598298D02*
Y594842D01*
X1662034D01*
X1661393Y596391D01*
X1660127Y597657D01*
X1658578Y598298D01*
D02*
G37*
G36*
X1656578D02*
X1655029Y597657D01*
X1653763Y596391D01*
X1653121Y594842D01*
X1656578D01*
Y598298D01*
D02*
G37*
G36*
X475652Y601428D02*
X474052D01*
X472575Y600816D01*
X471444Y599685D01*
X470832Y598208D01*
Y596608D01*
X471444Y595131D01*
X472575Y594000D01*
X474052Y593388D01*
X475652D01*
X477129Y594000D01*
X478260Y595131D01*
X478872Y596608D01*
Y598208D01*
X478260Y599685D01*
X477129Y600816D01*
X475652Y601428D01*
D02*
G37*
G36*
X1680756Y600666D02*
X1679156D01*
X1677679Y600054D01*
X1676548Y598923D01*
X1675936Y597446D01*
Y595846D01*
X1676548Y594369D01*
X1677679Y593238D01*
X1679156Y592626D01*
X1680756D01*
X1682233Y593238D01*
X1683364Y594369D01*
X1683976Y595846D01*
Y597446D01*
X1683364Y598923D01*
X1682233Y600054D01*
X1680756Y600666D01*
D02*
G37*
G36*
X1548876Y593483D02*
Y590026D01*
X1552332D01*
X1551691Y591575D01*
X1550425Y592841D01*
X1548876Y593483D01*
D02*
G37*
G36*
X1546876D02*
X1545327Y592841D01*
X1544061Y591575D01*
X1543419Y590026D01*
X1546876D01*
Y593483D01*
D02*
G37*
G36*
X1662034Y592842D02*
X1658578D01*
Y589385D01*
X1660127Y590027D01*
X1661393Y591292D01*
X1662034Y592842D01*
D02*
G37*
G36*
X1656578D02*
X1653121D01*
X1653763Y591292D01*
X1655029Y590027D01*
X1656578Y589385D01*
Y592842D01*
D02*
G37*
G36*
X1472681Y604276D02*
X1470672D01*
X1468731Y603756D01*
X1466991Y602752D01*
X1465571Y601331D01*
X1464566Y599591D01*
X1464046Y597650D01*
Y595642D01*
X1464566Y593701D01*
X1465571Y591961D01*
X1466991Y590541D01*
X1468731Y589536D01*
X1470672Y589016D01*
X1472681D01*
X1474621Y589536D01*
X1476361Y590541D01*
X1477782Y591961D01*
X1478786Y593701D01*
X1479306Y595642D01*
Y597650D01*
X1478786Y599591D01*
X1477782Y601331D01*
X1476361Y602752D01*
X1474621Y603756D01*
X1472681Y604276D01*
D02*
G37*
G36*
X1421880D02*
X1419872D01*
X1417931Y603756D01*
X1416191Y602752D01*
X1414771Y601331D01*
X1413766Y599591D01*
X1413246Y597650D01*
Y595642D01*
X1413766Y593701D01*
X1414771Y591961D01*
X1416191Y590541D01*
X1417931Y589536D01*
X1419872Y589016D01*
X1421880D01*
X1423821Y589536D01*
X1425561Y590541D01*
X1426982Y591961D01*
X1427986Y593701D01*
X1428506Y595642D01*
Y597650D01*
X1427986Y599591D01*
X1426982Y601331D01*
X1425561Y602752D01*
X1423821Y603756D01*
X1421880Y604276D01*
D02*
G37*
G36*
X493052Y596348D02*
X491452D01*
X489975Y595736D01*
X488844Y594605D01*
X488232Y593128D01*
Y591528D01*
X488844Y590051D01*
X489975Y588920D01*
X491452Y588308D01*
X493052D01*
X494529Y588920D01*
X495660Y590051D01*
X496272Y591528D01*
Y593128D01*
X495660Y594605D01*
X494529Y595736D01*
X493052Y596348D01*
D02*
G37*
G36*
X412152D02*
X410552D01*
X409075Y595736D01*
X407944Y594605D01*
X407332Y593128D01*
Y591528D01*
X407944Y590051D01*
X409075Y588920D01*
X410552Y588308D01*
X412152D01*
X413629Y588920D01*
X414760Y590051D01*
X415372Y591528D01*
Y593128D01*
X414760Y594605D01*
X413629Y595736D01*
X412152Y596348D01*
D02*
G37*
G36*
X1290054Y602752D02*
X1288046D01*
X1286105Y602232D01*
X1284365Y601227D01*
X1282944Y599807D01*
X1281940Y598067D01*
X1281420Y596127D01*
Y594118D01*
X1281940Y592177D01*
X1282944Y590437D01*
X1284365Y589016D01*
X1286105Y588012D01*
X1288046Y587492D01*
X1290054D01*
X1291995Y588012D01*
X1293735Y589016D01*
X1295155Y590437D01*
X1296160Y592177D01*
X1296680Y594118D01*
Y596127D01*
X1296160Y598067D01*
X1295155Y599807D01*
X1293735Y601227D01*
X1291995Y602232D01*
X1290054Y602752D01*
D02*
G37*
G36*
X1239255D02*
X1237245D01*
X1235305Y602232D01*
X1233565Y601227D01*
X1232144Y599807D01*
X1231140Y598067D01*
X1230620Y596127D01*
Y594118D01*
X1231140Y592177D01*
X1232144Y590437D01*
X1233565Y589016D01*
X1235305Y588012D01*
X1237245Y587492D01*
X1239255D01*
X1241195Y588012D01*
X1242935Y589016D01*
X1244355Y590437D01*
X1245360Y592177D01*
X1245880Y594118D01*
Y596127D01*
X1245360Y598067D01*
X1244355Y599807D01*
X1242935Y601227D01*
X1241195Y602232D01*
X1239255Y602752D01*
D02*
G37*
G36*
X1642656Y593046D02*
X1641056D01*
X1639579Y592434D01*
X1638448Y591303D01*
X1637836Y589826D01*
Y588226D01*
X1638448Y586749D01*
X1639579Y585618D01*
X1641056Y585006D01*
X1642656D01*
X1644133Y585618D01*
X1645264Y586749D01*
X1645876Y588226D01*
Y589826D01*
X1645264Y591303D01*
X1644133Y592434D01*
X1642656Y593046D01*
D02*
G37*
G36*
X1552332Y588026D02*
X1548876D01*
Y584570D01*
X1550425Y585211D01*
X1551691Y586477D01*
X1552332Y588026D01*
D02*
G37*
G36*
X1546876D02*
X1543419D01*
X1544061Y586477D01*
X1545327Y585211D01*
X1546876Y584570D01*
Y588026D01*
D02*
G37*
G36*
X361672Y586505D02*
Y583048D01*
X365129D01*
X364487Y584597D01*
X363221Y585863D01*
X361672Y586505D01*
D02*
G37*
G36*
X359672D02*
X358123Y585863D01*
X356857Y584597D01*
X356215Y583048D01*
X359672D01*
Y586505D01*
D02*
G37*
G36*
X1180181Y589122D02*
X1179996D01*
Y581122D01*
X1187996D01*
Y581307D01*
X1187383Y583596D01*
X1186198Y585648D01*
X1184522Y587324D01*
X1182470Y588509D01*
X1180181Y589122D01*
D02*
G37*
G36*
X1177996D02*
X1177811D01*
X1175522Y588509D01*
X1173470Y587324D01*
X1171794Y585648D01*
X1170609Y583596D01*
X1169996Y581307D01*
Y581122D01*
X1177996D01*
Y589122D01*
D02*
G37*
G36*
X554592Y584085D02*
Y580628D01*
X558049D01*
X557407Y582177D01*
X556141Y583443D01*
X554592Y584085D01*
D02*
G37*
G36*
X552592D02*
X551043Y583443D01*
X549777Y582177D01*
X549136Y580628D01*
X552592D01*
Y584085D01*
D02*
G37*
G36*
X923020Y582052D02*
Y578596D01*
X926477D01*
X925835Y580145D01*
X924569Y581411D01*
X923020Y582052D01*
D02*
G37*
G36*
X921020D02*
X919471Y581411D01*
X918205Y580145D01*
X917563Y578596D01*
X921020D01*
Y582052D01*
D02*
G37*
G36*
X365129Y581048D02*
X361672D01*
Y577592D01*
X363221Y578233D01*
X364487Y579499D01*
X365129Y581048D01*
D02*
G37*
G36*
X359672D02*
X356215D01*
X356857Y579499D01*
X358123Y578233D01*
X359672Y577592D01*
Y581048D01*
D02*
G37*
G36*
X558049Y578628D02*
X554592D01*
Y575172D01*
X556141Y575813D01*
X557407Y577079D01*
X558049Y578628D01*
D02*
G37*
G36*
X552592D02*
X549136D01*
X549777Y577079D01*
X551043Y575813D01*
X552592Y575172D01*
Y578628D01*
D02*
G37*
G36*
X904224Y577989D02*
Y574532D01*
X907681D01*
X907039Y576081D01*
X905773Y577347D01*
X904224Y577989D01*
D02*
G37*
G36*
X902224D02*
X900675Y577347D01*
X899409Y576081D01*
X898767Y574532D01*
X902224D01*
Y577989D01*
D02*
G37*
G36*
X874252D02*
Y574532D01*
X877709D01*
X877067Y576081D01*
X875801Y577347D01*
X874252Y577989D01*
D02*
G37*
G36*
X872252D02*
X870703Y577347D01*
X869437Y576081D01*
X868795Y574532D01*
X872252D01*
Y577989D01*
D02*
G37*
G36*
X926477Y576596D02*
X923020D01*
Y573139D01*
X924569Y573781D01*
X925835Y575047D01*
X926477Y576596D01*
D02*
G37*
G36*
X921020D02*
X917563D01*
X918205Y575047D01*
X919471Y573781D01*
X921020Y573139D01*
Y576596D01*
D02*
G37*
G36*
X401992Y581108D02*
X400392D01*
X398915Y580496D01*
X397784Y579365D01*
X397172Y577888D01*
Y576288D01*
X397784Y574811D01*
X398915Y573680D01*
X400392Y573068D01*
X401992D01*
X403469Y573680D01*
X404600Y574811D01*
X405212Y576288D01*
Y577888D01*
X404600Y579365D01*
X403469Y580496D01*
X401992Y581108D01*
D02*
G37*
G36*
X752712Y576465D02*
Y573008D01*
X756169D01*
X755527Y574557D01*
X754261Y575823D01*
X752712Y576465D01*
D02*
G37*
G36*
X750712D02*
X749163Y575823D01*
X747897Y574557D01*
X747255Y573008D01*
X750712D01*
Y576465D01*
D02*
G37*
G36*
X1058456Y580346D02*
X1056856D01*
X1055379Y579734D01*
X1054248Y578603D01*
X1053636Y577126D01*
Y575526D01*
X1054248Y574049D01*
X1055379Y572918D01*
X1056856Y572306D01*
X1058456D01*
X1059933Y572918D01*
X1061064Y574049D01*
X1061676Y575526D01*
Y577126D01*
X1061064Y578603D01*
X1059933Y579734D01*
X1058456Y580346D01*
D02*
G37*
G36*
X1132496Y588740D02*
X1125496D01*
X1123537Y588351D01*
X1121877Y587241D01*
X1120767Y585581D01*
X1120378Y583622D01*
Y576622D01*
X1120767Y574663D01*
X1121877Y573003D01*
X1123537Y571893D01*
X1125496Y571504D01*
X1132496D01*
X1134455Y571893D01*
X1136115Y573003D01*
X1137225Y574663D01*
X1137614Y576622D01*
Y583622D01*
X1137225Y585581D01*
X1136115Y587241D01*
X1134455Y588351D01*
X1132496Y588740D01*
D02*
G37*
G36*
X1187996Y579122D02*
X1179996D01*
Y571122D01*
X1180181D01*
X1182470Y571735D01*
X1184522Y572920D01*
X1186198Y574596D01*
X1187383Y576648D01*
X1187996Y578937D01*
Y579122D01*
D02*
G37*
G36*
X1177996D02*
X1169996D01*
Y578937D01*
X1170609Y576648D01*
X1171794Y574596D01*
X1173470Y572920D01*
X1175522Y571735D01*
X1177811Y571122D01*
X1177996D01*
Y579122D01*
D02*
G37*
G36*
X907681Y572532D02*
X904224D01*
Y569076D01*
X905773Y569717D01*
X907039Y570983D01*
X907681Y572532D01*
D02*
G37*
G36*
X902224D02*
X898767D01*
X899409Y570983D01*
X900675Y569717D01*
X902224Y569076D01*
Y572532D01*
D02*
G37*
G36*
X877709D02*
X874252D01*
Y569076D01*
X875801Y569717D01*
X877067Y570983D01*
X877709Y572532D01*
D02*
G37*
G36*
X872252D02*
X868795D01*
X869437Y570983D01*
X870703Y569717D01*
X872252Y569076D01*
Y572532D01*
D02*
G37*
G36*
X756169Y571008D02*
X752712D01*
Y567551D01*
X754261Y568193D01*
X755527Y569459D01*
X756169Y571008D01*
D02*
G37*
G36*
X750712D02*
X747255D01*
X747897Y569459D01*
X749163Y568193D01*
X750712Y567551D01*
Y571008D01*
D02*
G37*
G36*
X1693656Y565542D02*
Y562086D01*
X1697112D01*
X1696471Y563635D01*
X1695205Y564901D01*
X1693656Y565542D01*
D02*
G37*
G36*
X1691656D02*
X1690107Y564901D01*
X1688841Y563635D01*
X1688199Y562086D01*
X1691656D01*
Y565542D01*
D02*
G37*
G36*
X569832Y563764D02*
Y560308D01*
X573288D01*
X572647Y561857D01*
X571381Y563123D01*
X569832Y563764D01*
D02*
G37*
G36*
X567832D02*
X566283Y563123D01*
X565017Y561857D01*
X564375Y560308D01*
X567832D01*
Y563764D01*
D02*
G37*
G36*
X1000236Y563003D02*
Y559546D01*
X1003692D01*
X1003051Y561095D01*
X1001785Y562361D01*
X1000236Y563003D01*
D02*
G37*
G36*
X998236D02*
X996687Y562361D01*
X995421Y561095D01*
X994780Y559546D01*
X998236D01*
Y563003D01*
D02*
G37*
G36*
X1697112Y560086D02*
X1693656D01*
Y556629D01*
X1695205Y557271D01*
X1696471Y558537D01*
X1697112Y560086D01*
D02*
G37*
G36*
X1691656D02*
X1688199D01*
X1688841Y558537D01*
X1690107Y557271D01*
X1691656Y556629D01*
Y560086D01*
D02*
G37*
G36*
X508492Y558685D02*
Y555228D01*
X511949D01*
X511307Y556777D01*
X510041Y558043D01*
X508492Y558685D01*
D02*
G37*
G36*
X506492D02*
X504943Y558043D01*
X503677Y556777D01*
X503036Y555228D01*
X506492D01*
Y558685D01*
D02*
G37*
G36*
X1062520Y563074D02*
X1060920D01*
X1059443Y562462D01*
X1058312Y561331D01*
X1057700Y559854D01*
Y558254D01*
X1058312Y556777D01*
X1059443Y555646D01*
X1060920Y555034D01*
X1062520D01*
X1063997Y555646D01*
X1065128Y556777D01*
X1065740Y558254D01*
Y559854D01*
X1065128Y561331D01*
X1063997Y562462D01*
X1062520Y563074D01*
D02*
G37*
G36*
X573288Y558308D02*
X569832D01*
Y554851D01*
X571381Y555493D01*
X572647Y556759D01*
X573288Y558308D01*
D02*
G37*
G36*
X567832D02*
X564375D01*
X565017Y556759D01*
X566283Y555493D01*
X567832Y554851D01*
Y558308D01*
D02*
G37*
G36*
X1003692Y557546D02*
X1000236D01*
Y554090D01*
X1001785Y554731D01*
X1003051Y555997D01*
X1003692Y557546D01*
D02*
G37*
G36*
X998236D02*
X994780D01*
X995421Y555997D01*
X996687Y554731D01*
X998236Y554090D01*
Y557546D01*
D02*
G37*
G36*
X409232Y558248D02*
X407632D01*
X406155Y557636D01*
X405024Y556505D01*
X404412Y555028D01*
Y553428D01*
X405024Y551951D01*
X406155Y550820D01*
X407632Y550208D01*
X409232D01*
X410709Y550820D01*
X411840Y551951D01*
X412452Y553428D01*
Y555028D01*
X411840Y556505D01*
X410709Y557636D01*
X409232Y558248D01*
D02*
G37*
G36*
X531352Y553605D02*
Y550148D01*
X534809D01*
X534167Y551697D01*
X532901Y552963D01*
X531352Y553605D01*
D02*
G37*
G36*
X529352D02*
X527803Y552963D01*
X526537Y551697D01*
X525896Y550148D01*
X529352D01*
Y553605D01*
D02*
G37*
G36*
X511949Y553228D02*
X508492D01*
Y549771D01*
X510041Y550413D01*
X511307Y551679D01*
X511949Y553228D01*
D02*
G37*
G36*
X506492D02*
X503036D01*
X503677Y551679D01*
X504943Y550413D01*
X506492Y549771D01*
Y553228D01*
D02*
G37*
G36*
X844080Y553168D02*
X842480D01*
X841003Y552556D01*
X839872Y551425D01*
X839260Y549948D01*
Y548348D01*
X839872Y546871D01*
X841003Y545740D01*
X842480Y545128D01*
X844080D01*
X845557Y545740D01*
X846688Y546871D01*
X847300Y548348D01*
Y549948D01*
X846688Y551425D01*
X845557Y552556D01*
X844080Y553168D01*
D02*
G37*
G36*
X904668Y553113D02*
X903068D01*
X901591Y552501D01*
X900460Y551370D01*
X899848Y549893D01*
Y548293D01*
X900460Y546816D01*
X901591Y545685D01*
X903068Y545073D01*
X904668D01*
X906145Y545685D01*
X907276Y546816D01*
X907888Y548293D01*
Y549893D01*
X907276Y551370D01*
X906145Y552501D01*
X904668Y553113D01*
D02*
G37*
G36*
X534809Y548148D02*
X531352D01*
Y544692D01*
X532901Y545333D01*
X534167Y546599D01*
X534809Y548148D01*
D02*
G37*
G36*
X529352D02*
X525896D01*
X526537Y546599D01*
X527803Y545333D01*
X529352Y544692D01*
Y548148D01*
D02*
G37*
G36*
X1780016Y545223D02*
Y541766D01*
X1783472D01*
X1782831Y543315D01*
X1781565Y544581D01*
X1780016Y545223D01*
D02*
G37*
G36*
X1778016D02*
X1776467Y544581D01*
X1775201Y543315D01*
X1774559Y541766D01*
X1778016D01*
Y545223D01*
D02*
G37*
G36*
X844797Y543181D02*
Y539725D01*
X848254D01*
X847612Y541274D01*
X846346Y542540D01*
X844797Y543181D01*
D02*
G37*
G36*
X842797D02*
X841248Y542540D01*
X839982Y541274D01*
X839341Y539725D01*
X842797D01*
Y543181D01*
D02*
G37*
G36*
X428678Y542429D02*
Y538972D01*
X432134D01*
X431493Y540521D01*
X430227Y541787D01*
X428678Y542429D01*
D02*
G37*
G36*
X426678D02*
X425129Y541787D01*
X423863Y540521D01*
X423221Y538972D01*
X426678D01*
Y542429D01*
D02*
G37*
G36*
X1783472Y539766D02*
X1780016D01*
Y536310D01*
X1781565Y536951D01*
X1782831Y538217D01*
X1783472Y539766D01*
D02*
G37*
G36*
X1778016D02*
X1774559D01*
X1775201Y538217D01*
X1776467Y536951D01*
X1778016Y536310D01*
Y539766D01*
D02*
G37*
G36*
X468032Y543008D02*
X466432D01*
X464955Y542396D01*
X463824Y541265D01*
X463212Y539788D01*
Y538188D01*
X463824Y536711D01*
X464955Y535580D01*
X466432Y534968D01*
X468032D01*
X469509Y535580D01*
X470640Y536711D01*
X471252Y538188D01*
Y539788D01*
X470640Y541265D01*
X469509Y542396D01*
X468032Y543008D01*
D02*
G37*
G36*
X848254Y537725D02*
X844797D01*
Y534268D01*
X846346Y534910D01*
X847612Y536176D01*
X848254Y537725D01*
D02*
G37*
G36*
X842797D02*
X839341D01*
X839982Y536176D01*
X841248Y534910D01*
X842797Y534268D01*
Y537725D01*
D02*
G37*
G36*
X432134Y536972D02*
X428678D01*
Y533516D01*
X430227Y534157D01*
X431493Y535423D01*
X432134Y536972D01*
D02*
G37*
G36*
X426678D02*
X423221D01*
X423863Y535423D01*
X425129Y534157D01*
X426678Y533516D01*
Y536972D01*
D02*
G37*
G36*
X489015Y536212D02*
X487416D01*
X485938Y535600D01*
X484807Y534469D01*
X484195Y532992D01*
Y531392D01*
X484807Y529915D01*
X485938Y528784D01*
X487416Y528172D01*
X489015D01*
X490492Y528784D01*
X491623Y529915D01*
X492235Y531392D01*
Y532992D01*
X491623Y534469D01*
X490492Y535600D01*
X489015Y536212D01*
D02*
G37*
G36*
X873786Y518630D02*
Y515173D01*
X877243D01*
X876601Y516722D01*
X875335Y517988D01*
X873786Y518630D01*
D02*
G37*
G36*
X871786D02*
X870237Y517988D01*
X868971Y516722D01*
X868329Y515173D01*
X871786D01*
Y518630D01*
D02*
G37*
G36*
X877243Y513173D02*
X873786D01*
Y509717D01*
X875335Y510358D01*
X876601Y511624D01*
X877243Y513173D01*
D02*
G37*
G36*
X871786D02*
X868329D01*
X868971Y511624D01*
X870237Y510358D01*
X871786Y509717D01*
Y513173D01*
D02*
G37*
G36*
X1345676Y512202D02*
Y508746D01*
X1349133D01*
X1348491Y510295D01*
X1347225Y511561D01*
X1345676Y512202D01*
D02*
G37*
G36*
X1343676D02*
X1342127Y511561D01*
X1340861Y510295D01*
X1340220Y508746D01*
X1343676D01*
Y512202D01*
D02*
G37*
G36*
X1129783Y509792D02*
Y506336D01*
X1133239D01*
X1132598Y507885D01*
X1131332Y509151D01*
X1129783Y509792D01*
D02*
G37*
G36*
X1127783D02*
X1126234Y509151D01*
X1124968Y507885D01*
X1124326Y506336D01*
X1127783D01*
Y509792D01*
D02*
G37*
G36*
X1349133Y506746D02*
X1345676D01*
Y503289D01*
X1347225Y503931D01*
X1348491Y505197D01*
X1349133Y506746D01*
D02*
G37*
G36*
X1343676D02*
X1340220D01*
X1340861Y505197D01*
X1342127Y503931D01*
X1343676Y503289D01*
Y506746D01*
D02*
G37*
G36*
X1939974Y519158D02*
X1926894D01*
X1924790Y518881D01*
X1922829Y518068D01*
X1921146Y516777D01*
X1919854Y515093D01*
X1919041Y513132D01*
X1918764Y511028D01*
X1919041Y508924D01*
X1919854Y506963D01*
X1921146Y505280D01*
X1922829Y503988D01*
X1924790Y503176D01*
X1926894Y502898D01*
X1939974D01*
X1942078Y503176D01*
X1944039Y503988D01*
X1945722Y505280D01*
X1947014Y506963D01*
X1947827Y508924D01*
X1948103Y511028D01*
X1947827Y513132D01*
X1947014Y515093D01*
X1945722Y516777D01*
X1944039Y518068D01*
X1942078Y518881D01*
X1939974Y519158D01*
D02*
G37*
G36*
X1490456Y504582D02*
Y501126D01*
X1493913D01*
X1493271Y502675D01*
X1492005Y503941D01*
X1490456Y504582D01*
D02*
G37*
G36*
X1488456D02*
X1486907Y503941D01*
X1485641Y502675D01*
X1485000Y501126D01*
X1488456D01*
Y504582D01*
D02*
G37*
G36*
X1302496D02*
Y501126D01*
X1305952D01*
X1305311Y502675D01*
X1304045Y503941D01*
X1302496Y504582D01*
D02*
G37*
G36*
X1300496D02*
X1298947Y503941D01*
X1297681Y502675D01*
X1297039Y501126D01*
X1300496D01*
Y504582D01*
D02*
G37*
G36*
X445755Y504440D02*
Y500984D01*
X449212D01*
X448570Y502533D01*
X447304Y503799D01*
X445755Y504440D01*
D02*
G37*
G36*
X443755D02*
X442206Y503799D01*
X440940Y502533D01*
X440299Y500984D01*
X443755D01*
Y504440D01*
D02*
G37*
G36*
X1133239Y504336D02*
X1129783D01*
Y500879D01*
X1131332Y501521D01*
X1132598Y502787D01*
X1133239Y504336D01*
D02*
G37*
G36*
X1127783D02*
X1124326D01*
X1124968Y502787D01*
X1126234Y501521D01*
X1127783Y500879D01*
Y504336D01*
D02*
G37*
G36*
X1859974Y514658D02*
X1846894D01*
X1844790Y514380D01*
X1842829Y513568D01*
X1841145Y512276D01*
X1839854Y510593D01*
X1839041Y508632D01*
X1838764Y506528D01*
X1839041Y504424D01*
X1839854Y502463D01*
X1841145Y500779D01*
X1842829Y499488D01*
X1844790Y498675D01*
X1846894Y498398D01*
X1859974D01*
X1862078Y498675D01*
X1864039Y499488D01*
X1865722Y500779D01*
X1867014Y502463D01*
X1867827Y504424D01*
X1868103Y506528D01*
X1867827Y508632D01*
X1867014Y510593D01*
X1865722Y512276D01*
X1864039Y513568D01*
X1862078Y514380D01*
X1859974Y514658D01*
D02*
G37*
G36*
X709152Y500265D02*
Y496808D01*
X712608D01*
X711967Y498357D01*
X710701Y499623D01*
X709152Y500265D01*
D02*
G37*
G36*
X707152D02*
X705603Y499623D01*
X704337Y498357D01*
X703696Y496808D01*
X707152D01*
Y500265D01*
D02*
G37*
G36*
X681212D02*
Y496808D01*
X684669D01*
X684027Y498357D01*
X682761Y499623D01*
X681212Y500265D01*
D02*
G37*
G36*
X679212D02*
X677663Y499623D01*
X676397Y498357D01*
X675755Y496808D01*
X679212D01*
Y500265D01*
D02*
G37*
G36*
X655812D02*
Y496808D01*
X659268D01*
X658627Y498357D01*
X657361Y499623D01*
X655812Y500265D01*
D02*
G37*
G36*
X653812D02*
X652263Y499623D01*
X650997Y498357D01*
X650356Y496808D01*
X653812D01*
Y500265D01*
D02*
G37*
G36*
X627872D02*
Y496808D01*
X631329D01*
X630687Y498357D01*
X629421Y499623D01*
X627872Y500265D01*
D02*
G37*
G36*
X625872D02*
X624323Y499623D01*
X623057Y498357D01*
X622416Y496808D01*
X625872D01*
Y500265D01*
D02*
G37*
G36*
X992416Y504146D02*
X990816D01*
X989339Y503534D01*
X988208Y502403D01*
X987596Y500926D01*
Y499326D01*
X988208Y497849D01*
X989339Y496718D01*
X990816Y496106D01*
X992416D01*
X993893Y496718D01*
X995024Y497849D01*
X995636Y499326D01*
Y500926D01*
X995024Y502403D01*
X993893Y503534D01*
X992416Y504146D01*
D02*
G37*
G36*
X1493913Y499126D02*
X1490456D01*
Y495670D01*
X1492005Y496311D01*
X1493271Y497577D01*
X1493913Y499126D01*
D02*
G37*
G36*
X1488456D02*
X1485000D01*
X1485641Y497577D01*
X1486907Y496311D01*
X1488456Y495670D01*
Y499126D01*
D02*
G37*
G36*
X1305952D02*
X1302496D01*
Y495670D01*
X1304045Y496311D01*
X1305311Y497577D01*
X1305952Y499126D01*
D02*
G37*
G36*
X1300496D02*
X1297039D01*
X1297681Y497577D01*
X1298947Y496311D01*
X1300496Y495670D01*
Y499126D01*
D02*
G37*
G36*
X449212Y498984D02*
X445755D01*
Y495527D01*
X447304Y496169D01*
X448570Y497435D01*
X449212Y498984D01*
D02*
G37*
G36*
X443755D02*
X440299D01*
X440940Y497435D01*
X442206Y496169D01*
X443755Y495527D01*
Y498984D01*
D02*
G37*
G36*
X712608Y494808D02*
X709152D01*
Y491352D01*
X710701Y491993D01*
X711967Y493259D01*
X712608Y494808D01*
D02*
G37*
G36*
X707152D02*
X703696D01*
X704337Y493259D01*
X705603Y491993D01*
X707152Y491352D01*
Y494808D01*
D02*
G37*
G36*
X684669D02*
X681212D01*
Y491352D01*
X682761Y491993D01*
X684027Y493259D01*
X684669Y494808D01*
D02*
G37*
G36*
X679212D02*
X675755D01*
X676397Y493259D01*
X677663Y491993D01*
X679212Y491352D01*
Y494808D01*
D02*
G37*
G36*
X659268D02*
X655812D01*
Y491352D01*
X657361Y491993D01*
X658627Y493259D01*
X659268Y494808D01*
D02*
G37*
G36*
X653812D02*
X650356D01*
X650997Y493259D01*
X652263Y491993D01*
X653812Y491352D01*
Y494808D01*
D02*
G37*
G36*
X631329D02*
X627872D01*
Y491352D01*
X629421Y491993D01*
X630687Y493259D01*
X631329Y494808D01*
D02*
G37*
G36*
X625872D02*
X622416D01*
X623057Y493259D01*
X624323Y491993D01*
X625872Y491352D01*
Y494808D01*
D02*
G37*
G36*
X1218482Y499196D02*
X1216883D01*
X1215406Y498584D01*
X1214275Y497453D01*
X1213663Y495975D01*
Y494376D01*
X1214275Y492898D01*
X1215406Y491768D01*
X1216883Y491156D01*
X1218482D01*
X1219960Y491768D01*
X1221091Y492898D01*
X1221703Y494376D01*
Y495975D01*
X1221091Y497453D01*
X1219960Y498584D01*
X1218482Y499196D01*
D02*
G37*
G36*
X1195622D02*
X1194023D01*
X1192545Y498584D01*
X1191415Y497453D01*
X1190803Y495975D01*
Y494376D01*
X1191415Y492898D01*
X1192545Y491768D01*
X1194023Y491156D01*
X1195622D01*
X1197100Y491768D01*
X1198231Y492898D01*
X1198843Y494376D01*
Y495975D01*
X1198231Y497453D01*
X1197100Y498584D01*
X1195622Y499196D01*
D02*
G37*
G36*
X1548676Y496526D02*
X1547076D01*
X1545599Y495914D01*
X1544468Y494783D01*
X1543856Y493306D01*
Y491706D01*
X1544468Y490229D01*
X1545599Y489098D01*
X1547076Y488486D01*
X1548676D01*
X1550153Y489098D01*
X1551284Y490229D01*
X1551896Y491706D01*
Y493306D01*
X1551284Y494783D01*
X1550153Y495914D01*
X1548676Y496526D01*
D02*
G37*
G36*
X1519393Y494945D02*
X1517794D01*
X1516317Y494333D01*
X1515186Y493202D01*
X1514574Y491724D01*
Y490125D01*
X1515186Y488647D01*
X1516317Y487517D01*
X1517794Y486905D01*
X1519393D01*
X1520871Y487517D01*
X1522002Y488647D01*
X1522614Y490125D01*
Y491724D01*
X1522002Y493202D01*
X1520871Y494333D01*
X1519393Y494945D01*
D02*
G37*
G36*
X1112127Y489922D02*
Y486465D01*
X1115583D01*
X1114942Y488014D01*
X1113676Y489280D01*
X1112127Y489922D01*
D02*
G37*
G36*
X1110127D02*
X1108578Y489280D01*
X1107312Y488014D01*
X1106670Y486465D01*
X1110127D01*
Y489922D01*
D02*
G37*
G36*
X1115583Y484465D02*
X1112127D01*
Y481009D01*
X1113676Y481651D01*
X1114942Y482916D01*
X1115583Y484465D01*
D02*
G37*
G36*
X1110127D02*
X1106670D01*
X1107312Y482916D01*
X1108578Y481651D01*
X1110127Y481009D01*
Y484465D01*
D02*
G37*
G36*
X1846434Y493050D02*
Y479028D01*
X1854048D01*
Y484568D01*
X1853754Y486797D01*
X1852894Y488875D01*
X1851525Y490659D01*
X1849741Y492028D01*
X1847663Y492888D01*
X1846434Y493050D01*
D02*
G37*
G36*
X1844434D02*
X1843205Y492888D01*
X1841127Y492028D01*
X1839343Y490659D01*
X1837974Y488875D01*
X1837114Y486797D01*
X1836820Y484568D01*
Y479028D01*
X1844434D01*
Y493050D01*
D02*
G37*
G36*
X1949424Y485548D02*
X1947444D01*
X1945531Y485036D01*
X1943817Y484045D01*
X1942417Y482645D01*
X1941427Y480931D01*
X1940914Y479018D01*
Y477038D01*
X1941427Y475125D01*
X1942417Y473411D01*
X1943817Y472010D01*
X1945531Y471021D01*
X1947444Y470508D01*
X1949424D01*
X1951337Y471021D01*
X1953051Y472010D01*
X1954451Y473411D01*
X1955441Y475125D01*
X1955954Y477038D01*
Y479018D01*
X1955441Y480931D01*
X1954451Y482645D01*
X1953051Y484045D01*
X1951337Y485036D01*
X1949424Y485548D01*
D02*
G37*
G36*
X1879424D02*
X1877444D01*
X1875531Y485036D01*
X1873817Y484045D01*
X1872417Y482645D01*
X1871427Y480931D01*
X1870914Y479018D01*
Y477038D01*
X1871427Y475125D01*
X1872417Y473411D01*
X1873817Y472010D01*
X1875531Y471021D01*
X1877444Y470508D01*
X1879424D01*
X1881337Y471021D01*
X1883051Y472010D01*
X1884451Y473411D01*
X1885441Y475125D01*
X1885954Y477038D01*
Y479018D01*
X1885441Y480931D01*
X1884451Y482645D01*
X1883051Y484045D01*
X1881337Y485036D01*
X1879424Y485548D01*
D02*
G37*
G36*
X1594596Y471562D02*
Y468106D01*
X1598053D01*
X1597411Y469655D01*
X1596145Y470921D01*
X1594596Y471562D01*
D02*
G37*
G36*
X1592596D02*
X1591047Y470921D01*
X1589781Y469655D01*
X1589140Y468106D01*
X1592596D01*
Y471562D01*
D02*
G37*
G36*
X1844434Y477028D02*
X1836820D01*
Y471488D01*
X1837114Y469259D01*
X1837974Y467181D01*
X1839343Y465397D01*
X1841127Y464028D01*
X1843205Y463168D01*
X1844434Y463006D01*
Y477028D01*
D02*
G37*
G36*
X1854048D02*
X1846434D01*
Y463006D01*
X1847663Y463168D01*
X1849741Y464028D01*
X1851525Y465397D01*
X1852894Y467181D01*
X1853754Y469259D01*
X1854048Y471488D01*
Y477028D01*
D02*
G37*
G36*
X1598053Y466106D02*
X1594596D01*
Y462649D01*
X1596145Y463291D01*
X1597411Y464557D01*
X1598053Y466106D01*
D02*
G37*
G36*
X1592596D02*
X1589140D01*
X1589781Y464557D01*
X1591047Y463291D01*
X1592596Y462649D01*
Y466106D01*
D02*
G37*
G36*
X994956Y455886D02*
X993356D01*
X991879Y455274D01*
X990748Y454143D01*
X990136Y452666D01*
Y451066D01*
X990748Y449589D01*
X991879Y448458D01*
X993356Y447846D01*
X994956D01*
X996433Y448458D01*
X997564Y449589D01*
X998176Y451066D01*
Y452666D01*
X997564Y454143D01*
X996433Y455274D01*
X994956Y455886D01*
D02*
G37*
G36*
X800592Y446904D02*
Y443448D01*
X804048D01*
X803407Y444997D01*
X802141Y446263D01*
X800592Y446904D01*
D02*
G37*
G36*
X798592D02*
X797043Y446263D01*
X795777Y444997D01*
X795135Y443448D01*
X798592D01*
Y446904D01*
D02*
G37*
G36*
X1360701Y450706D02*
X1360516D01*
Y442706D01*
X1368516D01*
Y442891D01*
X1367903Y445180D01*
X1366718Y447232D01*
X1365042Y448908D01*
X1362990Y450093D01*
X1360701Y450706D01*
D02*
G37*
G36*
X1358516D02*
X1358331D01*
X1356042Y450093D01*
X1353990Y448908D01*
X1352314Y447232D01*
X1351129Y445180D01*
X1350516Y442891D01*
Y442706D01*
X1358516D01*
Y450706D01*
D02*
G37*
G36*
X1859974Y457658D02*
X1846894D01*
X1844790Y457380D01*
X1842829Y456568D01*
X1841145Y455276D01*
X1839854Y453593D01*
X1839041Y451632D01*
X1838764Y449528D01*
X1839041Y447424D01*
X1839854Y445463D01*
X1841145Y443780D01*
X1842829Y442488D01*
X1844790Y441675D01*
X1846894Y441399D01*
X1859974D01*
X1862078Y441675D01*
X1864039Y442488D01*
X1865722Y443780D01*
X1867014Y445463D01*
X1867827Y447424D01*
X1868103Y449528D01*
X1867827Y451632D01*
X1867014Y453593D01*
X1865722Y455276D01*
X1864039Y456568D01*
X1862078Y457380D01*
X1859974Y457658D01*
D02*
G37*
G36*
X804048Y441448D02*
X800592D01*
Y437991D01*
X802141Y438633D01*
X803407Y439899D01*
X804048Y441448D01*
D02*
G37*
G36*
X798592D02*
X795135D01*
X795777Y439899D01*
X797043Y438633D01*
X798592Y437991D01*
Y441448D01*
D02*
G37*
G36*
X1546336Y441082D02*
Y437626D01*
X1549792D01*
X1549151Y439175D01*
X1547885Y440441D01*
X1546336Y441082D01*
D02*
G37*
G36*
X1544336D02*
X1542787Y440441D01*
X1541521Y439175D01*
X1540880Y437626D01*
X1544336D01*
Y441082D01*
D02*
G37*
G36*
X1939974Y453158D02*
X1926894D01*
X1924790Y452881D01*
X1922829Y452068D01*
X1921146Y450776D01*
X1919854Y449093D01*
X1919041Y447132D01*
X1918764Y445028D01*
X1919041Y442924D01*
X1919854Y440963D01*
X1921146Y439280D01*
X1922829Y437988D01*
X1924790Y437175D01*
X1926894Y436898D01*
X1939974D01*
X1942078Y437175D01*
X1944039Y437988D01*
X1945722Y439280D01*
X1947014Y440963D01*
X1947827Y442924D01*
X1948103Y445028D01*
X1947827Y447132D01*
X1947014Y449093D01*
X1945722Y450776D01*
X1944039Y452068D01*
X1942078Y452881D01*
X1939974Y453158D01*
D02*
G37*
G36*
X1313016Y450324D02*
X1306016D01*
X1304057Y449935D01*
X1302397Y448825D01*
X1301287Y447165D01*
X1300898Y445206D01*
Y438206D01*
X1301287Y436247D01*
X1302397Y434587D01*
X1304057Y433477D01*
X1306016Y433088D01*
X1313016D01*
X1314975Y433477D01*
X1316635Y434587D01*
X1317745Y436247D01*
X1318134Y438206D01*
Y445206D01*
X1317745Y447165D01*
X1316635Y448825D01*
X1314975Y449935D01*
X1313016Y450324D01*
D02*
G37*
G36*
X1368516Y440706D02*
X1360516D01*
Y432706D01*
X1360701D01*
X1362990Y433319D01*
X1365042Y434504D01*
X1366718Y436180D01*
X1367903Y438232D01*
X1368516Y440521D01*
Y440706D01*
D02*
G37*
G36*
X1358516D02*
X1350516D01*
Y440521D01*
X1351129Y438232D01*
X1352314Y436180D01*
X1353990Y434504D01*
X1356042Y433319D01*
X1358331Y432706D01*
X1358516D01*
Y440706D01*
D02*
G37*
G36*
X1549792Y435626D02*
X1546336D01*
Y432169D01*
X1547885Y432811D01*
X1549151Y434077D01*
X1549792Y435626D01*
D02*
G37*
G36*
X1544336D02*
X1540880D01*
X1541521Y434077D01*
X1542787Y432811D01*
X1544336Y432169D01*
Y435626D01*
D02*
G37*
G36*
X385048Y424572D02*
Y421116D01*
X388504D01*
X387863Y422665D01*
X386597Y423931D01*
X385048Y424572D01*
D02*
G37*
G36*
X383048D02*
X381499Y423931D01*
X380233Y422665D01*
X379591Y421116D01*
X383048D01*
Y424572D01*
D02*
G37*
G36*
X388504Y419116D02*
X385048D01*
Y415659D01*
X386597Y416301D01*
X387863Y417567D01*
X388504Y419116D01*
D02*
G37*
G36*
X383048D02*
X379591D01*
X380233Y417567D01*
X381499Y416301D01*
X383048Y415659D01*
Y419116D01*
D02*
G37*
G36*
X987536Y415682D02*
Y412226D01*
X990993D01*
X990351Y413775D01*
X989085Y415041D01*
X987536Y415682D01*
D02*
G37*
G36*
X985536D02*
X983987Y415041D01*
X982721Y413775D01*
X982079Y412226D01*
X985536D01*
Y415682D01*
D02*
G37*
G36*
X990993Y410226D02*
X987536D01*
Y406769D01*
X989085Y407411D01*
X990351Y408677D01*
X990993Y410226D01*
D02*
G37*
G36*
X985536D02*
X982079D01*
X982721Y408677D01*
X983987Y407411D01*
X985536Y406769D01*
Y410226D01*
D02*
G37*
G36*
X341428Y417828D02*
X340852D01*
Y402828D01*
X355852D01*
Y403404D01*
X355237Y406495D01*
X354031Y409407D01*
X352280Y412027D01*
X350051Y414256D01*
X347431Y416007D01*
X344519Y417213D01*
X341428Y417828D01*
D02*
G37*
G36*
X290628D02*
X290052D01*
Y402828D01*
X305052D01*
Y403404D01*
X304437Y406495D01*
X303231Y409407D01*
X301480Y412027D01*
X299251Y414256D01*
X296631Y416007D01*
X293719Y417213D01*
X290628Y417828D01*
D02*
G37*
G36*
X338852D02*
X338276D01*
X335185Y417213D01*
X332273Y416007D01*
X329653Y414256D01*
X327424Y412027D01*
X325673Y409407D01*
X324467Y406495D01*
X323852Y403404D01*
Y402828D01*
X338852D01*
Y417828D01*
D02*
G37*
G36*
X288052D02*
X287476D01*
X284385Y417213D01*
X281473Y416007D01*
X278853Y414256D01*
X276624Y412027D01*
X274873Y409407D01*
X273667Y406495D01*
X273052Y403404D01*
Y402828D01*
X288052D01*
Y417828D01*
D02*
G37*
G36*
X1518396Y395871D02*
Y392414D01*
X1521853D01*
X1521211Y393963D01*
X1519945Y395229D01*
X1518396Y395871D01*
D02*
G37*
G36*
X1516396D02*
X1514847Y395229D01*
X1513581Y393963D01*
X1512939Y392414D01*
X1516396D01*
Y395871D01*
D02*
G37*
G36*
X1521853Y390414D02*
X1518396D01*
Y386958D01*
X1519945Y387599D01*
X1521211Y388865D01*
X1521853Y390414D01*
D02*
G37*
G36*
X1516396D02*
X1512939D01*
X1513581Y388865D01*
X1514847Y387599D01*
X1516396Y386958D01*
Y390414D01*
D02*
G37*
G36*
X355852Y400828D02*
X340852D01*
Y385828D01*
X341428D01*
X344519Y386443D01*
X347431Y387649D01*
X350051Y389400D01*
X352280Y391629D01*
X354031Y394249D01*
X355237Y397161D01*
X355852Y400252D01*
Y400828D01*
D02*
G37*
G36*
X338852D02*
X323852D01*
Y400252D01*
X324467Y397161D01*
X325673Y394249D01*
X327424Y391629D01*
X329653Y389400D01*
X332273Y387649D01*
X335185Y386443D01*
X338276Y385828D01*
X338852D01*
Y400828D01*
D02*
G37*
G36*
X305052D02*
X290052D01*
Y385828D01*
X290628D01*
X293719Y386443D01*
X296631Y387649D01*
X299251Y389400D01*
X301480Y391629D01*
X303231Y394249D01*
X304437Y397161D01*
X305052Y400252D01*
Y400828D01*
D02*
G37*
G36*
X288052D02*
X273052D01*
Y400252D01*
X273667Y397161D01*
X274873Y394249D01*
X276624Y391629D01*
X278853Y389400D01*
X281473Y387649D01*
X284385Y386443D01*
X287476Y385828D01*
X288052D01*
Y400828D01*
D02*
G37*
G36*
X764832Y382988D02*
X763232D01*
X761755Y382376D01*
X760624Y381245D01*
X760012Y379768D01*
Y378168D01*
X760624Y376691D01*
X761755Y375560D01*
X763232Y374948D01*
X764832D01*
X766309Y375560D01*
X767440Y376691D01*
X768052Y378168D01*
Y379768D01*
X767440Y381245D01*
X766309Y382376D01*
X764832Y382988D01*
D02*
G37*
G36*
X315969Y387948D02*
X312935D01*
X310005Y387163D01*
X307379Y385646D01*
X305234Y383502D01*
X303717Y380875D01*
X302932Y377945D01*
Y374911D01*
X303717Y371981D01*
X305234Y369355D01*
X307379Y367210D01*
X310005Y365693D01*
X312935Y364908D01*
X315969D01*
X318899Y365693D01*
X321525Y367210D01*
X323670Y369355D01*
X325187Y371981D01*
X325972Y374911D01*
Y377945D01*
X325187Y380875D01*
X323670Y383502D01*
X321525Y385646D01*
X318899Y387163D01*
X315969Y387948D01*
D02*
G37*
G36*
X1350756Y359803D02*
Y356346D01*
X1354212D01*
X1353571Y357895D01*
X1352305Y359161D01*
X1350756Y359803D01*
D02*
G37*
G36*
X1348756D02*
X1347207Y359161D01*
X1345941Y357895D01*
X1345300Y356346D01*
X1348756D01*
Y359803D01*
D02*
G37*
G36*
X341428Y367028D02*
X340852D01*
Y352028D01*
X355852D01*
Y352604D01*
X355237Y355695D01*
X354031Y358607D01*
X352280Y361227D01*
X350051Y363456D01*
X347431Y365207D01*
X344519Y366413D01*
X341428Y367028D01*
D02*
G37*
G36*
X290628D02*
X290052D01*
Y352028D01*
X305052D01*
Y352604D01*
X304437Y355695D01*
X303231Y358607D01*
X301480Y361227D01*
X299251Y363456D01*
X296631Y365207D01*
X293719Y366413D01*
X290628Y367028D01*
D02*
G37*
G36*
X338852D02*
X338276D01*
X335185Y366413D01*
X332273Y365207D01*
X329653Y363456D01*
X327424Y361227D01*
X325673Y358607D01*
X324467Y355695D01*
X323852Y352604D01*
Y352028D01*
X338852D01*
Y367028D01*
D02*
G37*
G36*
X288052D02*
X287476D01*
X284385Y366413D01*
X281473Y365207D01*
X278853Y363456D01*
X276624Y361227D01*
X274873Y358607D01*
X273667Y355695D01*
X273052Y352604D01*
Y352028D01*
X288052D01*
Y367028D01*
D02*
G37*
G36*
X1354212Y354346D02*
X1350756D01*
Y350890D01*
X1352305Y351531D01*
X1353571Y352797D01*
X1354212Y354346D01*
D02*
G37*
G36*
X1348756D02*
X1345300D01*
X1345941Y352797D01*
X1347207Y351531D01*
X1348756Y350890D01*
Y354346D01*
D02*
G37*
G36*
X744712Y352944D02*
Y349488D01*
X748168D01*
X747527Y351037D01*
X746261Y352303D01*
X744712Y352944D01*
D02*
G37*
G36*
X742712D02*
X741163Y352303D01*
X739897Y351037D01*
X739256Y349488D01*
X742712D01*
Y352944D01*
D02*
G37*
G36*
X650732D02*
Y349488D01*
X654189D01*
X653547Y351037D01*
X652281Y352303D01*
X650732Y352944D01*
D02*
G37*
G36*
X648732D02*
X647183Y352303D01*
X645917Y351037D01*
X645275Y349488D01*
X648732D01*
Y352944D01*
D02*
G37*
G36*
X748168Y347488D02*
X744712D01*
Y344031D01*
X746261Y344673D01*
X747527Y345939D01*
X748168Y347488D01*
D02*
G37*
G36*
X742712D02*
X739256D01*
X739897Y345939D01*
X741163Y344673D01*
X742712Y344031D01*
Y347488D01*
D02*
G37*
G36*
X654189D02*
X650732D01*
Y344031D01*
X652281Y344673D01*
X653547Y345939D01*
X654189Y347488D01*
D02*
G37*
G36*
X648732D02*
X645275D01*
X645917Y345939D01*
X647183Y344673D01*
X648732Y344031D01*
Y347488D01*
D02*
G37*
G36*
X1116876Y351746D02*
X1115276D01*
X1113799Y351134D01*
X1112668Y350003D01*
X1112056Y348526D01*
Y346926D01*
X1112668Y345449D01*
X1113799Y344318D01*
X1115276Y343706D01*
X1116876D01*
X1118353Y344318D01*
X1119484Y345449D01*
X1120096Y346926D01*
Y348526D01*
X1119484Y350003D01*
X1118353Y351134D01*
X1116876Y351746D01*
D02*
G37*
G36*
X596884Y345325D02*
Y341868D01*
X600340D01*
X599699Y343417D01*
X598433Y344683D01*
X596884Y345325D01*
D02*
G37*
G36*
X594884D02*
X593335Y344683D01*
X592069Y343417D01*
X591427Y341868D01*
X594884D01*
Y345325D01*
D02*
G37*
G36*
X439658Y344054D02*
Y340598D01*
X443115D01*
X442473Y342147D01*
X441207Y343413D01*
X439658Y344054D01*
D02*
G37*
G36*
X437658D02*
X436109Y343413D01*
X434843Y342147D01*
X434202Y340598D01*
X437658D01*
Y344054D01*
D02*
G37*
G36*
X600340Y339868D02*
X596884D01*
Y336412D01*
X598433Y337053D01*
X599699Y338319D01*
X600340Y339868D01*
D02*
G37*
G36*
X594884D02*
X591427D01*
X592069Y338319D01*
X593335Y337053D01*
X594884Y336412D01*
Y339868D01*
D02*
G37*
G36*
X443115Y338598D02*
X439658D01*
Y335141D01*
X441207Y335783D01*
X442473Y337049D01*
X443115Y338598D01*
D02*
G37*
G36*
X437658D02*
X434202D01*
X434843Y337049D01*
X436109Y335783D01*
X437658Y335141D01*
Y338598D01*
D02*
G37*
G36*
X355852Y350028D02*
X340852D01*
Y335028D01*
X341428D01*
X344519Y335643D01*
X347431Y336849D01*
X350051Y338600D01*
X352280Y340829D01*
X354031Y343449D01*
X355237Y346361D01*
X355852Y349452D01*
Y350028D01*
D02*
G37*
G36*
X338852D02*
X323852D01*
Y349452D01*
X324467Y346361D01*
X325673Y343449D01*
X327424Y340829D01*
X329653Y338600D01*
X332273Y336849D01*
X335185Y335643D01*
X338276Y335028D01*
X338852D01*
Y350028D01*
D02*
G37*
G36*
X305052D02*
X290052D01*
Y335028D01*
X290628D01*
X293719Y335643D01*
X296631Y336849D01*
X299251Y338600D01*
X301480Y340829D01*
X303231Y343449D01*
X304437Y346361D01*
X305052Y349452D01*
Y350028D01*
D02*
G37*
G36*
X288052D02*
X273052D01*
Y349452D01*
X273667Y346361D01*
X274873Y343449D01*
X276624Y340829D01*
X278853Y338600D01*
X281473Y336849D01*
X284385Y335643D01*
X287476Y335028D01*
X288052D01*
Y350028D01*
D02*
G37*
G36*
X782034Y324481D02*
Y321024D01*
X785490D01*
X784849Y322573D01*
X783583Y323839D01*
X782034Y324481D01*
D02*
G37*
G36*
X780034D02*
X778485Y323839D01*
X777219Y322573D01*
X776578Y321024D01*
X780034D01*
Y324481D01*
D02*
G37*
G36*
X1024088Y328916D02*
X1023903D01*
Y320916D01*
X1031903D01*
Y321101D01*
X1031289Y323390D01*
X1030105Y325442D01*
X1028429Y327117D01*
X1026377Y328302D01*
X1024088Y328916D01*
D02*
G37*
G36*
X1021903D02*
X1021718D01*
X1019429Y328302D01*
X1017377Y327117D01*
X1015701Y325442D01*
X1014516Y323390D01*
X1013903Y321101D01*
Y320916D01*
X1021903D01*
Y328916D01*
D02*
G37*
G36*
X785490Y319024D02*
X782034D01*
Y315567D01*
X783583Y316209D01*
X784849Y317475D01*
X785490Y319024D01*
D02*
G37*
G36*
X780034D02*
X776578D01*
X777219Y317475D01*
X778485Y316209D01*
X780034Y315567D01*
Y319024D01*
D02*
G37*
G36*
X1076403Y328534D02*
X1069403D01*
X1067444Y328144D01*
X1065783Y327035D01*
X1064674Y325374D01*
X1064284Y323416D01*
Y316416D01*
X1064674Y314457D01*
X1065783Y312796D01*
X1067444Y311687D01*
X1069403Y311297D01*
X1076403D01*
X1078361Y311687D01*
X1080022Y312796D01*
X1081131Y314457D01*
X1081521Y316416D01*
Y323416D01*
X1081131Y325374D01*
X1080022Y327035D01*
X1078361Y328144D01*
X1076403Y328534D01*
D02*
G37*
G36*
X1031903Y318916D02*
X1023903D01*
Y310916D01*
X1024088D01*
X1026377Y311529D01*
X1028429Y312714D01*
X1030105Y314390D01*
X1031289Y316442D01*
X1031903Y318731D01*
Y318916D01*
D02*
G37*
G36*
X1021903D02*
X1013903D01*
Y318731D01*
X1014516Y316442D01*
X1015701Y314390D01*
X1017377Y312714D01*
X1019429Y311529D01*
X1021718Y310916D01*
X1021903D01*
Y318916D01*
D02*
G37*
G36*
X1549855Y318836D02*
X1549308D01*
Y308086D01*
X1560058D01*
Y308633D01*
X1559257Y311621D01*
X1557710Y314301D01*
X1555523Y316488D01*
X1552843Y318035D01*
X1549855Y318836D01*
D02*
G37*
G36*
X1547308D02*
X1546761D01*
X1543773Y318035D01*
X1541093Y316488D01*
X1538906Y314301D01*
X1537359Y311621D01*
X1536558Y308633D01*
Y308086D01*
X1547308D01*
Y318836D01*
D02*
G37*
G36*
X1499792Y318356D02*
X1496824D01*
X1493958Y317588D01*
X1491388Y316104D01*
X1489290Y314006D01*
X1487806Y311436D01*
X1487038Y308570D01*
Y305602D01*
X1487806Y302736D01*
X1489290Y300166D01*
X1491388Y298068D01*
X1493958Y296584D01*
X1496824Y295816D01*
X1499792D01*
X1502658Y296584D01*
X1505228Y298068D01*
X1507326Y300166D01*
X1508810Y302736D01*
X1509578Y305602D01*
Y308570D01*
X1508810Y311436D01*
X1507326Y314006D01*
X1505228Y316104D01*
X1502658Y317588D01*
X1499792Y318356D01*
D02*
G37*
G36*
X1449792D02*
X1446824D01*
X1443958Y317588D01*
X1441388Y316104D01*
X1439290Y314006D01*
X1437806Y311436D01*
X1437038Y308570D01*
Y305602D01*
X1437806Y302736D01*
X1439290Y300166D01*
X1441388Y298068D01*
X1443958Y296584D01*
X1446824Y295816D01*
X1449792D01*
X1452658Y296584D01*
X1455228Y298068D01*
X1457326Y300166D01*
X1458810Y302736D01*
X1459578Y305602D01*
Y308570D01*
X1458810Y311436D01*
X1457326Y314006D01*
X1455228Y316104D01*
X1452658Y317588D01*
X1449792Y318356D01*
D02*
G37*
G36*
X1114336Y303486D02*
X1112736D01*
X1111259Y302874D01*
X1110128Y301743D01*
X1109516Y300266D01*
Y298666D01*
X1110128Y297189D01*
X1111259Y296058D01*
X1112736Y295446D01*
X1114336D01*
X1115813Y296058D01*
X1116944Y297189D01*
X1117556Y298666D01*
Y300266D01*
X1116944Y301743D01*
X1115813Y302874D01*
X1114336Y303486D01*
D02*
G37*
G36*
X1560058Y306086D02*
X1549308D01*
Y295336D01*
X1549855D01*
X1552843Y296137D01*
X1555523Y297684D01*
X1557710Y299871D01*
X1559257Y302551D01*
X1560058Y305539D01*
Y306086D01*
D02*
G37*
G36*
X1547308D02*
X1536558D01*
Y305539D01*
X1537359Y302551D01*
X1538906Y299871D01*
X1541093Y297684D01*
X1543773Y296137D01*
X1546761Y295336D01*
X1547308D01*
Y306086D01*
D02*
G37*
G36*
X625840Y288682D02*
Y285226D01*
X629296D01*
X628655Y286775D01*
X627389Y288041D01*
X625840Y288682D01*
D02*
G37*
G36*
X623840D02*
X622291Y288041D01*
X621025Y286775D01*
X620383Y285226D01*
X623840D01*
Y288682D01*
D02*
G37*
G36*
X1269476Y283603D02*
Y280146D01*
X1272933D01*
X1272291Y281695D01*
X1271025Y282961D01*
X1269476Y283603D01*
D02*
G37*
G36*
X1267476D02*
X1265927Y282961D01*
X1264661Y281695D01*
X1264019Y280146D01*
X1267476D01*
Y283603D01*
D02*
G37*
G36*
X629296Y283226D02*
X625840D01*
Y279769D01*
X627389Y280411D01*
X628655Y281677D01*
X629296Y283226D01*
D02*
G37*
G36*
X623840D02*
X620383D01*
X621025Y281677D01*
X622291Y280411D01*
X623840Y279769D01*
Y283226D01*
D02*
G37*
G36*
X1272933Y278146D02*
X1269476D01*
Y274690D01*
X1271025Y275331D01*
X1272291Y276597D01*
X1272933Y278146D01*
D02*
G37*
G36*
X1267476D02*
X1264019D01*
X1264661Y276597D01*
X1265927Y275331D01*
X1267476Y274690D01*
Y278146D01*
D02*
G37*
%LPD*%
D130*
X535952Y749448D02*
D03*
D131*
X600952D02*
D03*
X535952Y704448D02*
D03*
X600952D02*
D03*
D146*
X339852Y351028D02*
D03*
X289052D02*
D03*
Y401828D02*
D03*
X339852D02*
D03*
D147*
X1022903Y319916D02*
D03*
X1359516Y441706D02*
D03*
X1178996Y580122D02*
D03*
D148*
X294132Y655828D02*
D03*
Y630428D02*
D03*
Y706628D02*
D03*
Y732028D02*
D03*
Y681228D02*
D03*
D149*
X1845434Y478028D02*
D03*
D150*
X1548308Y307086D02*
D03*
X1448308D02*
D03*
X1498308D02*
D03*
D151*
X1128996Y580122D02*
D03*
X1309516Y441706D02*
D03*
X1072903Y319916D02*
D03*
D153*
X1933434Y445028D02*
D03*
X1853434Y506528D02*
D03*
Y449528D02*
D03*
X1933434Y511028D02*
D03*
D154*
X1878434Y478028D02*
D03*
X1948434D02*
D03*
D155*
X1471676Y596646D02*
D03*
X1446276Y622046D02*
D03*
X1420876Y596646D02*
D03*
X1289050Y595122D02*
D03*
X1263650Y620522D02*
D03*
X1238250Y595122D02*
D03*
D157*
X294132Y757428D02*
D03*
D158*
X314452Y376428D02*
D03*
D159*
X1034557Y691391D02*
D03*
X1010157D02*
D03*
X1058958D02*
D03*
D160*
X595884Y340868D02*
D03*
X438658Y339598D02*
D03*
X922020Y577596D02*
D03*
X843797Y538725D02*
D03*
X843280Y549148D02*
D03*
X903868Y549093D02*
D03*
X873252Y573532D02*
D03*
X872786Y514173D02*
D03*
X649732Y348488D02*
D03*
X626872Y495808D02*
D03*
X708152D02*
D03*
X654812D02*
D03*
X680212D02*
D03*
X427678Y537972D02*
D03*
X444755Y499984D02*
D03*
X530352Y549148D02*
D03*
X743712Y348488D02*
D03*
X986536Y411226D02*
D03*
X799592Y442448D02*
D03*
X1111127Y485465D02*
D03*
X999236Y558546D02*
D03*
X1037336Y611886D02*
D03*
X360672Y582048D02*
D03*
X507492Y554228D02*
D03*
X393192Y660908D02*
D03*
X355092Y709168D02*
D03*
X461772Y663448D02*
D03*
X482472Y615188D02*
D03*
X492938Y727529D02*
D03*
X568832Y559308D02*
D03*
X553592Y579628D02*
D03*
X581152Y638048D02*
D03*
X751712Y572008D02*
D03*
X928131Y690375D02*
D03*
X761492Y612648D02*
D03*
X637412Y686308D02*
D03*
X660272D02*
D03*
X761492Y643128D02*
D03*
X713612Y706628D02*
D03*
X1349756Y355346D02*
D03*
X1545336Y436626D02*
D03*
X1128783Y505336D02*
D03*
X1108073Y665675D02*
D03*
X1260838Y639996D02*
D03*
X1301496Y500126D02*
D03*
X1489456D02*
D03*
X1344676Y507746D02*
D03*
X1446276Y642366D02*
D03*
X1547876Y589026D02*
D03*
X1593596Y467106D02*
D03*
X1657578Y593842D02*
D03*
X1692656Y561086D02*
D03*
X1583436Y665226D02*
D03*
X1733839Y641414D02*
D03*
X1314196Y683006D02*
D03*
X1260856Y688086D02*
D03*
X1444770Y697546D02*
D03*
X1342806Y698306D02*
D03*
X1197359Y708620D02*
D03*
X1230376Y759206D02*
D03*
X1380239Y708620D02*
D03*
X1308848Y713223D02*
D03*
X1413256Y759206D02*
D03*
X1497076Y683006D02*
D03*
X1525686Y698306D02*
D03*
X1768856Y680466D02*
D03*
X1903222Y686562D02*
D03*
X1845818Y690880D02*
D03*
X1871114Y690974D02*
D03*
X1582409Y705285D02*
D03*
X1491728Y713223D02*
D03*
X1687576Y746506D02*
D03*
X1735988Y703661D02*
D03*
X1824228Y786638D02*
D03*
X906288Y675135D02*
D03*
X903224Y573532D02*
D03*
X384048Y420116D02*
D03*
X624840Y284226D02*
D03*
X1517396Y391414D02*
D03*
X1151636Y731520D02*
D03*
X1346962Y657098D02*
D03*
X1536011Y731987D02*
D03*
X1751330Y612648D02*
D03*
X1779016Y540766D02*
D03*
X781034Y320024D02*
D03*
X1268476Y279146D02*
D03*
X401192Y577088D02*
D03*
X467232Y538988D02*
D03*
X488215Y532192D02*
D03*
X355092Y729488D02*
D03*
X492252Y592328D02*
D03*
Y686308D02*
D03*
X994156Y451866D02*
D03*
X991616Y500126D02*
D03*
X837708Y642115D02*
D03*
X1057656Y576326D02*
D03*
X411352Y592328D02*
D03*
X474852Y597408D02*
D03*
X342552Y630428D02*
D03*
X1061720Y559054D02*
D03*
X764032Y378968D02*
D03*
X1752603Y649054D02*
D03*
X1593596Y639826D02*
D03*
X1580896Y688086D02*
D03*
X1471676Y665226D02*
D03*
X1547876Y492506D02*
D03*
X1518594Y490925D02*
D03*
X1286256Y662686D02*
D03*
X685292Y706628D02*
D03*
X1862328Y784606D02*
D03*
X1669796Y799846D02*
D03*
X1679956Y596646D02*
D03*
X1641856Y589026D02*
D03*
X1408176Y731266D02*
D03*
X1217676Y723646D02*
D03*
X1420876Y665226D02*
D03*
X1235456Y660146D02*
D03*
X1217683Y495176D02*
D03*
X1194823D02*
D03*
X454206Y660099D02*
D03*
X408432Y554228D02*
D03*
X510032Y630428D02*
D03*
X1113536Y299466D02*
D03*
X1116076Y347726D02*
D03*
M02*
