G04*
G04 #@! TF.GenerationSoftware,Altium Limited,Altium Designer,25.5.2 (35)*
G04*
G04 Layer_Color=8421504*
%FSLAX44Y44*%
%MOMM*%
G71*
G04*
G04 #@! TF.SameCoordinates,F6FF292E-385D-4CED-94FC-DDC138C61579*
G04*
G04*
G04 #@! TF.FilePolarity,Positive*
G04*
G01*
G75*
%ADD18R,1.3914X1.3914*%
%ADD19R,0.9000X0.9700*%
%ADD20R,0.6600X0.6200*%
%ADD21R,0.5200X0.5600*%
%ADD22R,1.4700X1.2000*%
%ADD23R,2.0000X3.6000*%
%ADD24R,0.7000X0.2500*%
%ADD25R,1.6500X2.3800*%
G04:AMPARAMS|DCode=26|XSize=0.614mm|YSize=0.414mm|CornerRadius=0.1035mm|HoleSize=0mm|Usage=FLASHONLY|Rotation=90.000|XOffset=0mm|YOffset=0mm|HoleType=Round|Shape=RoundedRectangle|*
%AMROUNDEDRECTD26*
21,1,0.6140,0.2070,0,0,90.0*
21,1,0.4070,0.4140,0,0,90.0*
1,1,0.2070,0.1035,0.2035*
1,1,0.2070,0.1035,-0.2035*
1,1,0.2070,-0.1035,-0.2035*
1,1,0.2070,-0.1035,0.2035*
%
%ADD26ROUNDEDRECTD26*%
%ADD27R,1.8288X1.0160*%
%ADD28R,1.0500X0.9000*%
%ADD29R,0.9500X0.8500*%
%ADD30R,1.3208X1.0160*%
%ADD31R,1.1430X0.7620*%
%ADD32R,0.9500X2.2000*%
%ADD33R,0.4725X0.5153*%
%ADD34R,0.9000X0.7500*%
G04:AMPARAMS|DCode=35|XSize=0.614mm|YSize=0.414mm|CornerRadius=0.1035mm|HoleSize=0mm|Usage=FLASHONLY|Rotation=0.000|XOffset=0mm|YOffset=0mm|HoleType=Round|Shape=RoundedRectangle|*
%AMROUNDEDRECTD35*
21,1,0.6140,0.2070,0,0,0.0*
21,1,0.4070,0.4140,0,0,0.0*
1,1,0.2070,0.2035,-0.1035*
1,1,0.2070,-0.2035,-0.1035*
1,1,0.2070,-0.2035,0.1035*
1,1,0.2070,0.2035,0.1035*
%
%ADD35ROUNDEDRECTD35*%
G04:AMPARAMS|DCode=36|XSize=0.4mm|YSize=0.85mm|CornerRadius=0.05mm|HoleSize=0mm|Usage=FLASHONLY|Rotation=90.000|XOffset=0mm|YOffset=0mm|HoleType=Round|Shape=RoundedRectangle|*
%AMROUNDEDRECTD36*
21,1,0.4000,0.7500,0,0,90.0*
21,1,0.3000,0.8500,0,0,90.0*
1,1,0.1000,0.3750,0.1500*
1,1,0.1000,0.3750,-0.1500*
1,1,0.1000,-0.3750,-0.1500*
1,1,0.1000,-0.3750,0.1500*
%
%ADD36ROUNDEDRECTD36*%
%ADD37R,0.8121X0.7581*%
%ADD38R,0.2425X0.9096*%
G04:AMPARAMS|DCode=39|XSize=0.9096mm|YSize=0.2425mm|CornerRadius=0.1212mm|HoleSize=0mm|Usage=FLASHONLY|Rotation=90.000|XOffset=0mm|YOffset=0mm|HoleType=Round|Shape=RoundedRectangle|*
%AMROUNDEDRECTD39*
21,1,0.9096,0.0000,0,0,90.0*
21,1,0.6672,0.2425,0,0,90.0*
1,1,0.2425,0.0000,0.3336*
1,1,0.2425,0.0000,-0.3336*
1,1,0.2425,0.0000,-0.3336*
1,1,0.2425,0.0000,0.3336*
%
%ADD39ROUNDEDRECTD39*%
%ADD40R,1.0000X0.8000*%
%ADD41R,0.9400X0.8600*%
G04:AMPARAMS|DCode=42|XSize=1.29mm|YSize=0.5mm|CornerRadius=0.125mm|HoleSize=0mm|Usage=FLASHONLY|Rotation=0.000|XOffset=0mm|YOffset=0mm|HoleType=Round|Shape=RoundedRectangle|*
%AMROUNDEDRECTD42*
21,1,1.2900,0.2500,0,0,0.0*
21,1,1.0400,0.5000,0,0,0.0*
1,1,0.2500,0.5200,-0.1250*
1,1,0.2500,-0.5200,-0.1250*
1,1,0.2500,-0.5200,0.1250*
1,1,0.2500,0.5200,0.1250*
%
%ADD42ROUNDEDRECTD42*%
G04:AMPARAMS|DCode=43|XSize=0.2425mm|YSize=0.9096mm|CornerRadius=0.1212mm|HoleSize=0mm|Usage=FLASHONLY|Rotation=90.000|XOffset=0mm|YOffset=0mm|HoleType=Round|Shape=RoundedRectangle|*
%AMROUNDEDRECTD43*
21,1,0.2425,0.6672,0,0,90.0*
21,1,0.0000,0.9096,0,0,90.0*
1,1,0.2425,0.3336,0.0000*
1,1,0.2425,0.3336,0.0000*
1,1,0.2425,-0.3336,0.0000*
1,1,0.2425,-0.3336,0.0000*
%
%ADD43ROUNDEDRECTD43*%
%ADD44O,1.3000X0.5500*%
%ADD45R,1.0160X1.3208*%
%ADD46R,0.5200X0.5200*%
%ADD47R,1.1500X1.4500*%
%ADD48R,2.6000X1.6000*%
%ADD49R,2.2000X0.9500*%
%ADD50R,0.5588X0.5334*%
%ADD51R,1.4000X1.5000*%
%ADD52R,0.9500X1.4000*%
%ADD53R,0.5000X0.6000*%
%ADD54R,0.5153X0.4725*%
%ADD55R,2.5400X1.0150*%
%ADD56O,2.3000X0.6000*%
%ADD57O,0.6000X2.3000*%
%ADD58R,0.5200X0.5200*%
G04:AMPARAMS|DCode=59|XSize=0.3mm|YSize=1.55mm|CornerRadius=0.0495mm|HoleSize=0mm|Usage=FLASHONLY|Rotation=90.000|XOffset=0mm|YOffset=0mm|HoleType=Round|Shape=RoundedRectangle|*
%AMROUNDEDRECTD59*
21,1,0.3000,1.4510,0,0,90.0*
21,1,0.2010,1.5500,0,0,90.0*
1,1,0.0990,0.7255,0.1005*
1,1,0.0990,0.7255,-0.1005*
1,1,0.0990,-0.7255,-0.1005*
1,1,0.0990,-0.7255,0.1005*
%
%ADD59ROUNDEDRECTD59*%
%ADD60R,0.4000X0.5000*%
%ADD61R,0.8061X0.8582*%
%ADD62R,1.2000X1.2000*%
%ADD63R,0.9000X0.6500*%
G04:AMPARAMS|DCode=64|XSize=2.1692mm|YSize=0.5821mm|CornerRadius=0.2911mm|HoleSize=0mm|Usage=FLASHONLY|Rotation=90.000|XOffset=0mm|YOffset=0mm|HoleType=Round|Shape=RoundedRectangle|*
%AMROUNDEDRECTD64*
21,1,2.1692,0.0000,0,0,90.0*
21,1,1.5870,0.5821,0,0,90.0*
1,1,0.5821,0.0000,0.7935*
1,1,0.5821,0.0000,-0.7935*
1,1,0.5821,0.0000,-0.7935*
1,1,0.5821,0.0000,0.7935*
%
%ADD64ROUNDEDRECTD64*%
%ADD65R,3.8000X2.0300*%
%ADD66C,1.2700*%
%ADD67R,2.0300X3.8000*%
%ADD68R,6.8000X7.2000*%
%ADD69R,0.6000X0.8000*%
%ADD70R,7.2000X6.8000*%
%ADD71R,1.0000X1.2000*%
%ADD72R,0.5000X0.4500*%
G04:AMPARAMS|DCode=73|XSize=0.3556mm|YSize=0.5588mm|CornerRadius=0.0889mm|HoleSize=0mm|Usage=FLASHONLY|Rotation=0.000|XOffset=0mm|YOffset=0mm|HoleType=Round|Shape=RoundedRectangle|*
%AMROUNDEDRECTD73*
21,1,0.3556,0.3810,0,0,0.0*
21,1,0.1778,0.5588,0,0,0.0*
1,1,0.1778,0.0889,-0.1905*
1,1,0.1778,-0.0889,-0.1905*
1,1,0.1778,-0.0889,0.1905*
1,1,0.1778,0.0889,0.1905*
%
%ADD73ROUNDEDRECTD73*%
%ADD74R,1.9000X1.4000*%
%ADD75R,0.6350X0.6096*%
%ADD76R,1.5000X1.6000*%
%ADD77R,0.8065X0.8682*%
%ADD78R,0.7620X1.0160*%
%ADD79R,0.9000X0.8500*%
%ADD80R,0.5821X2.1692*%
%ADD81R,1.6000X2.6000*%
%ADD82O,0.5500X1.3000*%
%ADD83R,1.0160X1.8288*%
%ADD84R,0.9300X0.8900*%
%ADD85R,0.9000X2.5000*%
%ADD86R,2.5000X3.5000*%
%ADD87R,0.6500X0.6500*%
D18*
X441952Y573240D02*
D03*
D19*
X1130832Y692150D02*
D03*
X1146532D02*
D03*
X934998Y717804D02*
D03*
X950698D02*
D03*
D20*
X488317Y375121D02*
D03*
X479517D02*
D03*
D21*
X432054Y375592D02*
D03*
Y367792D02*
D03*
D22*
X457962Y375122D02*
D03*
Y357922D02*
D03*
D23*
X532910Y377952D02*
D03*
X566910D02*
D03*
D24*
X886998Y539108D02*
D03*
X858998Y544108D02*
D03*
Y554108D02*
D03*
X886998Y544108D02*
D03*
Y554108D02*
D03*
Y549108D02*
D03*
X858998D02*
D03*
Y539108D02*
D03*
D25*
X872998Y546608D02*
D03*
D26*
X804100Y595884D02*
D03*
X493012Y546608D02*
D03*
X704912Y683768D02*
D03*
X485012Y546608D02*
D03*
X696912Y683768D02*
D03*
X560832Y518668D02*
D03*
X568832D02*
D03*
X796100Y595884D02*
D03*
D27*
X677291Y348488D02*
D03*
X718693D02*
D03*
D28*
X595884Y359018D02*
D03*
Y373518D02*
D03*
D29*
X444372Y516998D02*
D03*
X1547876Y666896D02*
D03*
Y653396D02*
D03*
X444372Y530498D02*
D03*
D30*
X633602Y541528D02*
D03*
X659002D02*
D03*
X684402D02*
D03*
X709802D02*
D03*
X661542Y668528D02*
D03*
X636142D02*
D03*
X712342D02*
D03*
X686942D02*
D03*
D31*
X886983Y674881D02*
D03*
X856504Y690121D02*
D03*
Y674881D02*
D03*
Y705361D02*
D03*
X886983Y690121D02*
D03*
X886654Y704646D02*
D03*
D32*
X1032323Y407496D02*
D03*
X1077923D02*
D03*
D33*
X1110996Y469597D02*
D03*
X492252Y710414D02*
D03*
X1601216Y658852D02*
D03*
X1733296Y653820D02*
D03*
X1598676Y699492D02*
D03*
X1110996Y462026D02*
D03*
X492252Y702842D02*
D03*
X1733296Y661392D02*
D03*
X1601216Y651280D02*
D03*
X1598676Y691920D02*
D03*
D34*
X922020Y566736D02*
D03*
X393192Y646588D02*
D03*
X553592Y601568D02*
D03*
X1530096Y613506D02*
D03*
X922020Y554736D02*
D03*
X1530096Y625506D02*
D03*
X393192Y634588D02*
D03*
X553592Y613568D02*
D03*
D35*
X799592Y421068D02*
D03*
X462152Y614108D02*
D03*
X1844548Y788098D02*
D03*
X903224Y565340D02*
D03*
X462152Y606108D02*
D03*
X903224Y557340D02*
D03*
X1844548Y780098D02*
D03*
X799592Y413068D02*
D03*
D36*
X1022096Y557426D02*
D03*
X1044596Y550926D02*
D03*
Y563926D02*
D03*
X1022096D02*
D03*
Y550926D02*
D03*
D37*
X1037336Y595296D02*
D03*
Y582756D02*
D03*
D38*
X429452Y554228D02*
D03*
D39*
X434452D02*
D03*
X439452D02*
D03*
X454452D02*
D03*
Y592253D02*
D03*
X429452D02*
D03*
X434452D02*
D03*
X439452D02*
D03*
X444452D02*
D03*
X449452D02*
D03*
Y554228D02*
D03*
X444452D02*
D03*
D40*
X383412Y582048D02*
D03*
Y567048D02*
D03*
D41*
X530352Y565808D02*
D03*
Y578208D02*
D03*
D42*
X502832Y573428D02*
D03*
X484632Y579928D02*
D03*
Y566928D02*
D03*
D43*
X460964Y580741D02*
D03*
Y575741D02*
D03*
Y560741D02*
D03*
Y565740D02*
D03*
X422939Y570741D02*
D03*
Y585741D02*
D03*
Y560741D02*
D03*
Y565740D02*
D03*
Y575741D02*
D03*
Y580741D02*
D03*
X460964Y585741D02*
D03*
Y570741D02*
D03*
D44*
X384712Y716948D02*
D03*
X467712Y724948D02*
D03*
Y716948D02*
D03*
Y700948D02*
D03*
X384712Y724948D02*
D03*
Y748948D02*
D03*
Y740948D02*
D03*
Y732948D02*
D03*
Y708948D02*
D03*
Y700948D02*
D03*
Y692948D02*
D03*
X467712D02*
D03*
Y708948D02*
D03*
Y732948D02*
D03*
Y740948D02*
D03*
Y748948D02*
D03*
D45*
X606932Y563118D02*
D03*
Y588518D02*
D03*
X733932Y572008D02*
D03*
Y622808D02*
D03*
X606932Y639318D02*
D03*
X733932Y648208D02*
D03*
Y597408D02*
D03*
X606932Y613918D02*
D03*
D46*
X948961Y690054D02*
D03*
X956961D02*
D03*
D47*
X1246746Y279146D02*
D03*
X1229246D02*
D03*
D48*
X1322256Y355346D02*
D03*
X1286256D02*
D03*
D49*
X1141483Y462156D02*
D03*
X1517896Y418906D02*
D03*
X1236783Y352876D02*
D03*
X1517896Y464506D02*
D03*
X1236783Y307276D02*
D03*
X1141483Y416556D02*
D03*
D50*
X1260856Y656717D02*
D03*
X1446276Y659257D02*
D03*
X1260856Y668655D02*
D03*
X1446276Y671195D02*
D03*
D51*
X1466596Y500126D02*
D03*
X1447596D02*
D03*
D52*
X1567286Y467106D02*
D03*
X1548786D02*
D03*
D53*
X1687416Y581406D02*
D03*
X1677416D02*
D03*
D54*
X1695147Y606806D02*
D03*
X1654556Y609346D02*
D03*
X1677367Y746506D02*
D03*
X1687576Y606806D02*
D03*
X1669796Y746506D02*
D03*
X1646985Y609346D02*
D03*
D55*
X1560576Y608081D02*
D03*
Y630931D02*
D03*
D56*
X1627296Y662006D02*
D03*
Y700106D02*
D03*
X1712296D02*
D03*
X1627296Y674706D02*
D03*
Y687406D02*
D03*
Y649306D02*
D03*
X1712296Y662006D02*
D03*
Y674706D02*
D03*
Y687406D02*
D03*
Y649306D02*
D03*
D57*
X1695196Y632206D02*
D03*
X1657096D02*
D03*
Y717206D02*
D03*
X1644396D02*
D03*
X1669796D02*
D03*
X1682496Y632206D02*
D03*
X1644396D02*
D03*
X1695196Y717206D02*
D03*
X1682496D02*
D03*
X1669796Y632206D02*
D03*
D58*
X1108456Y682498D02*
D03*
Y690498D02*
D03*
D59*
X1284106Y693246D02*
D03*
X1466986D02*
D03*
X1284106Y708246D02*
D03*
X1466986D02*
D03*
Y703246D02*
D03*
X1284106Y698246D02*
D03*
X1466986D02*
D03*
X1237606Y703246D02*
D03*
X1420486D02*
D03*
X1466986Y688246D02*
D03*
X1420486Y698246D02*
D03*
Y693246D02*
D03*
Y688246D02*
D03*
Y708246D02*
D03*
X1237606Y688246D02*
D03*
Y693246D02*
D03*
Y698246D02*
D03*
X1284106Y688246D02*
D03*
Y703246D02*
D03*
X1237606Y708246D02*
D03*
D60*
X1329816Y698246D02*
D03*
X1209676Y705866D02*
D03*
X1392556D02*
D03*
X1512696Y698246D02*
D03*
X1321816D02*
D03*
X1504696D02*
D03*
X1400556Y705866D02*
D03*
X1217676D02*
D03*
D61*
X1208447Y759206D02*
D03*
X1391327D02*
D03*
X409110Y612648D02*
D03*
X421132D02*
D03*
X1196425Y759206D02*
D03*
X1379305D02*
D03*
D62*
X1788956Y672686D02*
D03*
Y652686D02*
D03*
D63*
X1902968Y700278D02*
D03*
Y714778D02*
D03*
D64*
X1871218Y712202D02*
D03*
X1845818D02*
D03*
X1858518D02*
D03*
X1845818Y759474D02*
D03*
X1858518D02*
D03*
X1833118D02*
D03*
X1871218D02*
D03*
D65*
X1597152Y428752D02*
D03*
X1595374Y382524D02*
D03*
X1317752Y291592D02*
D03*
X1073658Y619252D02*
D03*
X1248156Y538226D02*
D03*
X1532636Y520446D02*
D03*
X1121156Y276606D02*
D03*
D66*
X405638Y420370D02*
D03*
X646430Y284480D02*
D03*
X801624Y319278D02*
D03*
X1173988Y731520D02*
D03*
X1369314Y657098D02*
D03*
X1558363Y731987D02*
D03*
X1773682Y612648D02*
D03*
X1801622Y540766D02*
D03*
X967994Y596900D02*
D03*
X928370Y597916D02*
D03*
X1834004Y541570D02*
D03*
X1772412Y652526D02*
D03*
X1558683Y691475D02*
D03*
X1369314Y693166D02*
D03*
X1177036Y692658D02*
D03*
X801097Y358392D02*
D03*
X646430Y324358D02*
D03*
X404876Y376428D02*
D03*
D67*
X1113536Y390906D02*
D03*
X334772Y574548D02*
D03*
D68*
X1055123Y471496D02*
D03*
D69*
X518772Y681228D02*
D03*
X531772D02*
D03*
D70*
X1453896Y441706D02*
D03*
X1205483Y439356D02*
D03*
X1172783Y330076D02*
D03*
D71*
X360492Y615188D02*
D03*
X380492D02*
D03*
D72*
X1808480Y507746D02*
D03*
X1800980D02*
D03*
X1808734Y451866D02*
D03*
X1801234D02*
D03*
D73*
X735076Y373888D02*
D03*
X726948D02*
D03*
X672846Y325120D02*
D03*
X664718D02*
D03*
D74*
X1902968Y731998D02*
D03*
Y759998D02*
D03*
D75*
X1449705Y728726D02*
D03*
X1437767D02*
D03*
X1266825D02*
D03*
X1254887D02*
D03*
D76*
X1821456Y662686D02*
D03*
D77*
X1658457Y771906D02*
D03*
X1686397D02*
D03*
X1670975D02*
D03*
X1698915D02*
D03*
D78*
X1269365Y662686D02*
D03*
X1454785Y665226D02*
D03*
X1252347Y662686D02*
D03*
X1437767Y665226D02*
D03*
D79*
X1380236Y723516D02*
D03*
X1197356D02*
D03*
X776732Y424838D02*
D03*
Y409338D02*
D03*
X1197356Y739016D02*
D03*
X1380236D02*
D03*
D80*
X1833118Y712202D02*
D03*
D81*
X1791208Y730318D02*
D03*
Y766318D02*
D03*
D82*
X398212Y679448D02*
D03*
X406212D02*
D03*
X414212D02*
D03*
X422212D02*
D03*
X430212D02*
D03*
X438212D02*
D03*
X446212D02*
D03*
X454212D02*
D03*
Y762448D02*
D03*
X446212D02*
D03*
X438212D02*
D03*
X430212D02*
D03*
X422212D02*
D03*
X414212D02*
D03*
X406212D02*
D03*
X398212D02*
D03*
D83*
X697992Y327787D02*
D03*
Y369189D02*
D03*
D84*
X530352Y596888D02*
D03*
Y613168D02*
D03*
D85*
X754132Y424708D02*
D03*
X723132D02*
D03*
D86*
X1883156Y594626D02*
D03*
Y659626D02*
D03*
D87*
X1202276Y279146D02*
D03*
X1192276D02*
D03*
M02*
