G04*
G04 #@! TF.GenerationSoftware,Altium Limited,Altium Designer,25.5.2 (35)*
G04*
G04 Layer_Color=16711935*
%FSLAX44Y44*%
%MOMM*%
G71*
G04*
G04 #@! TF.SameCoordinates,F6FF292E-385D-4CED-94FC-DDC138C61579*
G04*
G04*
G04 #@! TF.FilePolarity,Negative*
G04*
G01*
G75*
%ADD127C,2.9016*%
%ADD128C,1.5016*%
%ADD129C,1.7016*%
%ADD130R,1.5400X1.5400*%
%ADD131C,1.5400*%
%ADD132O,1.4096X2.7176*%
%ADD133C,2.0516*%
G04:AMPARAMS|DCode=134|XSize=1.5016mm|YSize=1.5016mm|CornerRadius=0.4008mm|HoleSize=0mm|Usage=FLASHONLY|Rotation=180.000|XOffset=0mm|YOffset=0mm|HoleType=Round|Shape=RoundedRectangle|*
%AMROUNDEDRECTD134*
21,1,1.5016,0.7000,0,0,180.0*
21,1,0.7000,1.5016,0,0,180.0*
1,1,0.8016,-0.3500,0.3500*
1,1,0.8016,0.3500,0.3500*
1,1,0.8016,0.3500,-0.3500*
1,1,0.8016,-0.3500,-0.3500*
%
%ADD134ROUNDEDRECTD134*%
%ADD135R,2.0516X2.0516*%
%ADD136O,2.7176X1.4096*%
%ADD137C,1.3016*%
%ADD138C,1.3236*%
%ADD139R,1.3236X1.3236*%
G04:AMPARAMS|DCode=140|XSize=1.7016mm|YSize=1.7016mm|CornerRadius=0.4508mm|HoleSize=0mm|Usage=FLASHONLY|Rotation=270.000|XOffset=0mm|YOffset=0mm|HoleType=Round|Shape=RoundedRectangle|*
%AMROUNDEDRECTD140*
21,1,1.7016,0.8000,0,0,270.0*
21,1,0.8000,1.7016,0,0,270.0*
1,1,0.9016,-0.4000,-0.4000*
1,1,0.9016,-0.4000,0.4000*
1,1,0.9016,0.4000,0.4000*
1,1,0.9016,0.4000,-0.4000*
%
%ADD140ROUNDEDRECTD140*%
%ADD141C,2.1016*%
%ADD142C,1.1316*%
%ADD143C,0.6016*%
D127*
X339852Y351028D02*
D03*
X289052D02*
D03*
Y401828D02*
D03*
X339852D02*
D03*
D128*
X1022903Y319916D02*
D03*
X1359516Y441706D02*
D03*
X1178996Y580122D02*
D03*
D129*
X294132Y655828D02*
D03*
Y630428D02*
D03*
Y706628D02*
D03*
Y732028D02*
D03*
Y681228D02*
D03*
D130*
X535952Y749448D02*
D03*
D131*
X600952D02*
D03*
X535952Y704448D02*
D03*
X600952D02*
D03*
D132*
X1845434Y478028D02*
D03*
D133*
X1548308Y307086D02*
D03*
X1498308D02*
D03*
D134*
X1128996Y580122D02*
D03*
X1309516Y441706D02*
D03*
X1072903Y319916D02*
D03*
D135*
X1448308Y307086D02*
D03*
D136*
X1933434Y445028D02*
D03*
X1853434Y506528D02*
D03*
Y449528D02*
D03*
X1933434Y511028D02*
D03*
D137*
X1878434Y478028D02*
D03*
X1948434D02*
D03*
D138*
X1471676Y596646D02*
D03*
X1446276Y622046D02*
D03*
X1289050Y595122D02*
D03*
X1263650Y620522D02*
D03*
D139*
X1420876Y596646D02*
D03*
X1238250Y595122D02*
D03*
D140*
X294132Y757428D02*
D03*
D141*
X314452Y376428D02*
D03*
D142*
X1034557Y691391D02*
D03*
X1010157D02*
D03*
X1058958D02*
D03*
D143*
X595884Y340868D02*
D03*
X438658Y339598D02*
D03*
X922020Y577596D02*
D03*
X843797Y538725D02*
D03*
X843280Y549148D02*
D03*
X903868Y549093D02*
D03*
X873252Y573532D02*
D03*
X872786Y514173D02*
D03*
X360672Y582048D02*
D03*
X482472Y615188D02*
D03*
X581152Y638048D02*
D03*
X1692656Y561086D02*
D03*
X1903222Y686562D02*
D03*
X1845818Y690880D02*
D03*
X1871114Y690974D02*
D03*
X906288Y675135D02*
D03*
X903224Y573532D02*
D03*
X384048Y420116D02*
D03*
X624840Y284226D02*
D03*
X1151636Y731520D02*
D03*
X1346962Y657098D02*
D03*
X1536011Y731987D02*
D03*
X1751330Y612648D02*
D03*
X1779016Y540766D02*
D03*
X781034Y320024D02*
D03*
X1268476Y279146D02*
D03*
X837708Y642115D02*
D03*
X1061720Y559054D02*
D03*
X1862328Y784606D02*
D03*
X1679956Y596646D02*
D03*
X1217676Y723646D02*
D03*
X454206Y660099D02*
D03*
M02*
