G04*
G04 #@! TF.GenerationSoftware,Altium Limited,Altium Designer,25.5.2 (35)*
G04*
G04 Layer_Physical_Order=1*
G04 Layer_Color=255*
%FSLAX44Y44*%
%MOMM*%
G71*
G04*
G04 #@! TF.SameCoordinates,F6FF292E-385D-4CED-94FC-DDC138C61579*
G04*
G04*
G04 #@! TF.FilePolarity,Positive*
G04*
G01*
G75*
%ADD13C,0.1524*%
%ADD17C,0.2540*%
%ADD19R,0.9000X0.9700*%
%ADD20R,0.6600X0.6200*%
%ADD21R,0.5200X0.5600*%
%ADD22R,1.4700X1.2000*%
%ADD23R,2.0000X3.6000*%
%ADD24R,0.7000X0.2500*%
%ADD25R,1.6500X2.3800*%
G04:AMPARAMS|DCode=26|XSize=0.614mm|YSize=0.414mm|CornerRadius=0.1035mm|HoleSize=0mm|Usage=FLASHONLY|Rotation=90.000|XOffset=0mm|YOffset=0mm|HoleType=Round|Shape=RoundedRectangle|*
%AMROUNDEDRECTD26*
21,1,0.6140,0.2070,0,0,90.0*
21,1,0.4070,0.4140,0,0,90.0*
1,1,0.2070,0.1035,0.2035*
1,1,0.2070,0.1035,-0.2035*
1,1,0.2070,-0.1035,-0.2035*
1,1,0.2070,-0.1035,0.2035*
%
%ADD26ROUNDEDRECTD26*%
%ADD27R,1.8288X1.0160*%
%ADD28R,1.0500X0.9000*%
%ADD29R,0.9500X0.8500*%
%ADD30R,1.3208X1.0160*%
%ADD31R,1.1430X0.7620*%
%ADD32R,0.9500X2.2000*%
%ADD33R,0.4725X0.5153*%
%ADD34R,0.9000X0.7500*%
G04:AMPARAMS|DCode=35|XSize=0.614mm|YSize=0.414mm|CornerRadius=0.1035mm|HoleSize=0mm|Usage=FLASHONLY|Rotation=0.000|XOffset=0mm|YOffset=0mm|HoleType=Round|Shape=RoundedRectangle|*
%AMROUNDEDRECTD35*
21,1,0.6140,0.2070,0,0,0.0*
21,1,0.4070,0.4140,0,0,0.0*
1,1,0.2070,0.2035,-0.1035*
1,1,0.2070,-0.2035,-0.1035*
1,1,0.2070,-0.2035,0.1035*
1,1,0.2070,0.2035,0.1035*
%
%ADD35ROUNDEDRECTD35*%
G04:AMPARAMS|DCode=36|XSize=0.4mm|YSize=0.85mm|CornerRadius=0.05mm|HoleSize=0mm|Usage=FLASHONLY|Rotation=90.000|XOffset=0mm|YOffset=0mm|HoleType=Round|Shape=RoundedRectangle|*
%AMROUNDEDRECTD36*
21,1,0.4000,0.7500,0,0,90.0*
21,1,0.3000,0.8500,0,0,90.0*
1,1,0.1000,0.3750,0.1500*
1,1,0.1000,0.3750,-0.1500*
1,1,0.1000,-0.3750,-0.1500*
1,1,0.1000,-0.3750,0.1500*
%
%ADD36ROUNDEDRECTD36*%
%ADD37R,0.8121X0.7581*%
%ADD38R,0.2425X0.9096*%
G04:AMPARAMS|DCode=39|XSize=0.9096mm|YSize=0.2425mm|CornerRadius=0.1212mm|HoleSize=0mm|Usage=FLASHONLY|Rotation=90.000|XOffset=0mm|YOffset=0mm|HoleType=Round|Shape=RoundedRectangle|*
%AMROUNDEDRECTD39*
21,1,0.9096,0.0000,0,0,90.0*
21,1,0.6672,0.2425,0,0,90.0*
1,1,0.2425,0.0000,0.3336*
1,1,0.2425,0.0000,-0.3336*
1,1,0.2425,0.0000,-0.3336*
1,1,0.2425,0.0000,0.3336*
%
%ADD39ROUNDEDRECTD39*%
%ADD40R,1.0000X0.8000*%
%ADD41R,0.9400X0.8600*%
G04:AMPARAMS|DCode=42|XSize=1.29mm|YSize=0.5mm|CornerRadius=0.125mm|HoleSize=0mm|Usage=FLASHONLY|Rotation=0.000|XOffset=0mm|YOffset=0mm|HoleType=Round|Shape=RoundedRectangle|*
%AMROUNDEDRECTD42*
21,1,1.2900,0.2500,0,0,0.0*
21,1,1.0400,0.5000,0,0,0.0*
1,1,0.2500,0.5200,-0.1250*
1,1,0.2500,-0.5200,-0.1250*
1,1,0.2500,-0.5200,0.1250*
1,1,0.2500,0.5200,0.1250*
%
%ADD42ROUNDEDRECTD42*%
G04:AMPARAMS|DCode=43|XSize=0.2425mm|YSize=0.9096mm|CornerRadius=0.1212mm|HoleSize=0mm|Usage=FLASHONLY|Rotation=90.000|XOffset=0mm|YOffset=0mm|HoleType=Round|Shape=RoundedRectangle|*
%AMROUNDEDRECTD43*
21,1,0.2425,0.6672,0,0,90.0*
21,1,0.0000,0.9096,0,0,90.0*
1,1,0.2425,0.3336,0.0000*
1,1,0.2425,0.3336,0.0000*
1,1,0.2425,-0.3336,0.0000*
1,1,0.2425,-0.3336,0.0000*
%
%ADD43ROUNDEDRECTD43*%
%ADD44O,1.3000X0.5500*%
%ADD45R,1.0160X1.3208*%
%ADD46R,0.5200X0.5200*%
%ADD47R,1.1500X1.4500*%
%ADD48R,2.6000X1.6000*%
%ADD49R,2.2000X0.9500*%
%ADD50R,0.5588X0.5334*%
%ADD51R,1.4000X1.5000*%
%ADD52R,0.9500X1.4000*%
%ADD53R,0.5000X0.6000*%
%ADD54R,0.5153X0.4725*%
%ADD55R,2.5400X1.0150*%
%ADD56O,2.3000X0.6000*%
%ADD57O,0.6000X2.3000*%
%ADD58R,0.5200X0.5200*%
G04:AMPARAMS|DCode=59|XSize=0.3mm|YSize=1.55mm|CornerRadius=0.0495mm|HoleSize=0mm|Usage=FLASHONLY|Rotation=90.000|XOffset=0mm|YOffset=0mm|HoleType=Round|Shape=RoundedRectangle|*
%AMROUNDEDRECTD59*
21,1,0.3000,1.4510,0,0,90.0*
21,1,0.2010,1.5500,0,0,90.0*
1,1,0.0990,0.7255,0.1005*
1,1,0.0990,0.7255,-0.1005*
1,1,0.0990,-0.7255,-0.1005*
1,1,0.0990,-0.7255,0.1005*
%
%ADD59ROUNDEDRECTD59*%
%ADD60R,0.4000X0.5000*%
%ADD61R,0.8061X0.8582*%
%ADD62R,1.2000X1.2000*%
%ADD63R,0.9000X0.6500*%
G04:AMPARAMS|DCode=64|XSize=2.1692mm|YSize=0.5821mm|CornerRadius=0.2911mm|HoleSize=0mm|Usage=FLASHONLY|Rotation=90.000|XOffset=0mm|YOffset=0mm|HoleType=Round|Shape=RoundedRectangle|*
%AMROUNDEDRECTD64*
21,1,2.1692,0.0000,0,0,90.0*
21,1,1.5870,0.5821,0,0,90.0*
1,1,0.5821,0.0000,0.7935*
1,1,0.5821,0.0000,-0.7935*
1,1,0.5821,0.0000,-0.7935*
1,1,0.5821,0.0000,0.7935*
%
%ADD64ROUNDEDRECTD64*%
%ADD65R,3.8000X2.0300*%
%ADD66C,1.2700*%
%ADD67R,2.0300X3.8000*%
%ADD68R,6.8000X7.2000*%
%ADD69R,0.6000X0.8000*%
%ADD70R,7.2000X6.8000*%
%ADD71R,1.0000X1.2000*%
%ADD72R,0.5000X0.4500*%
G04:AMPARAMS|DCode=73|XSize=0.3556mm|YSize=0.5588mm|CornerRadius=0.0889mm|HoleSize=0mm|Usage=FLASHONLY|Rotation=0.000|XOffset=0mm|YOffset=0mm|HoleType=Round|Shape=RoundedRectangle|*
%AMROUNDEDRECTD73*
21,1,0.3556,0.3810,0,0,0.0*
21,1,0.1778,0.5588,0,0,0.0*
1,1,0.1778,0.0889,-0.1905*
1,1,0.1778,-0.0889,-0.1905*
1,1,0.1778,-0.0889,0.1905*
1,1,0.1778,0.0889,0.1905*
%
%ADD73ROUNDEDRECTD73*%
%ADD74R,1.9000X1.4000*%
%ADD75R,0.6350X0.6096*%
%ADD76R,1.5000X1.6000*%
%ADD77R,0.8065X0.8682*%
%ADD78R,0.7620X1.0160*%
%ADD79R,0.9000X0.8500*%
%ADD80R,0.5821X2.1692*%
%ADD81R,1.6000X2.6000*%
%ADD82O,0.5500X1.3000*%
%ADD83R,1.0160X1.8288*%
%ADD84R,0.9300X0.8900*%
%ADD85R,0.9000X2.5000*%
%ADD86R,2.5000X3.5000*%
%ADD87R,0.6500X0.6500*%
%ADD101R,2.2000X2.2000*%
%ADD130R,1.5400X1.5400*%
%ADD131C,1.5400*%
%ADD144C,0.2032*%
%ADD145C,0.5080*%
%ADD146C,2.8000*%
%ADD147C,1.4000*%
%ADD148C,1.6000*%
%ADD149O,1.3080X2.6160*%
%ADD150C,1.9500*%
G04:AMPARAMS|DCode=151|XSize=1.4mm|YSize=1.4mm|CornerRadius=0.35mm|HoleSize=0mm|Usage=FLASHONLY|Rotation=180.000|XOffset=0mm|YOffset=0mm|HoleType=Round|Shape=RoundedRectangle|*
%AMROUNDEDRECTD151*
21,1,1.4000,0.7000,0,0,180.0*
21,1,0.7000,1.4000,0,0,180.0*
1,1,0.7000,-0.3500,0.3500*
1,1,0.7000,0.3500,0.3500*
1,1,0.7000,0.3500,-0.3500*
1,1,0.7000,-0.3500,-0.3500*
%
%ADD151ROUNDEDRECTD151*%
%ADD152R,1.9500X1.9500*%
%ADD153O,2.6160X1.3080*%
%ADD154C,1.2000*%
%ADD155C,1.2220*%
%ADD156R,1.2220X1.2220*%
G04:AMPARAMS|DCode=157|XSize=1.6mm|YSize=1.6mm|CornerRadius=0.4mm|HoleSize=0mm|Usage=FLASHONLY|Rotation=270.000|XOffset=0mm|YOffset=0mm|HoleType=Round|Shape=RoundedRectangle|*
%AMROUNDEDRECTD157*
21,1,1.6000,0.8000,0,0,270.0*
21,1,0.8000,1.6000,0,0,270.0*
1,1,0.8000,-0.4000,-0.4000*
1,1,0.8000,-0.4000,0.4000*
1,1,0.8000,0.4000,0.4000*
1,1,0.8000,0.4000,-0.4000*
%
%ADD157ROUNDEDRECTD157*%
%ADD158C,2.0000*%
%ADD159C,1.0300*%
%ADD160C,0.5000*%
D13*
X1144698Y693166D02*
G03*
X1143682Y692150I0J-1016D01*
G01*
X1110056D02*
G03*
X1108217Y690311I0J-1839D01*
G01*
X1146532Y693166D02*
X1237526D01*
X733932Y597408D02*
X735456Y595884D01*
X796100D01*
X804100Y594884D02*
Y595884D01*
Y594884D02*
X844876Y554108D01*
X858998D01*
X967994Y596646D02*
Y598170D01*
X913638Y652526D02*
X967994Y598170D01*
Y569214D02*
Y596900D01*
X937888Y539108D02*
X967994Y569214D01*
X892302Y652526D02*
X913638D01*
X922020Y566736D02*
Y577596D01*
X903868Y549093D02*
X915627D01*
X921270Y554736D01*
X922020D01*
X903853Y549108D02*
X903868Y549093D01*
X886998Y544108D02*
X930696D01*
X939038Y552450D01*
Y580644D01*
X926481Y599548D02*
X928370Y597916D01*
X919865Y606421D02*
X926049Y599980D01*
X885441Y640845D02*
X919853Y606433D01*
X926049Y599980D02*
X926481Y599548D01*
X919853Y606433D02*
X919865Y606421D01*
X928370Y597916D02*
X939038Y580644D01*
X843989Y538916D02*
X858806D01*
X858998Y539108D01*
X843797Y538725D02*
X843989Y538916D01*
X843280Y549148D02*
X843320Y549108D01*
X858998D01*
X886998D02*
X903853D01*
X871236Y673593D02*
Y695455D01*
Y673593D02*
X892302Y652526D01*
X886998Y539108D02*
X937888D01*
X856504Y674881D02*
X856608Y674777D01*
Y669678D02*
X885441Y640845D01*
X885441D01*
X856608Y669678D02*
Y674777D01*
X902076Y557340D02*
X903224D01*
X898844Y554108D02*
X902076Y557340D01*
X886998Y554108D02*
X898844D01*
X427678Y537972D02*
X429452Y539746D01*
X493012Y546608D02*
X499872D01*
X429452Y539746D02*
Y554228D01*
X499872Y546608D02*
X507492Y554228D01*
X429452D02*
X434452D01*
X502832Y558888D02*
Y573428D01*
Y558888D02*
X507492Y554228D01*
X393192Y646588D02*
Y660908D01*
X1517896Y411226D02*
X1519936Y409186D01*
X1260838Y639996D02*
X1260856Y639978D01*
X1446276Y642366D02*
Y659257D01*
X1530096Y613506D02*
X1547526D01*
X1547876Y589026D02*
X1548638Y589788D01*
Y603768D01*
X1654556Y596646D02*
X1657096Y594106D01*
X1548638Y603768D02*
X1552951Y608081D01*
X1560576D01*
X1657313Y594106D02*
X1657578Y593842D01*
X1657096Y594106D02*
X1657313D01*
X1692783Y561213D02*
Y581406D01*
X1687416D02*
X1692783D01*
X1692656Y561086D02*
X1692783Y561213D01*
Y581406D02*
X1695196Y583819D01*
X1547526Y613506D02*
X1552951Y608081D01*
X1599616Y660666D02*
X1601216Y659066D01*
Y658852D02*
Y659066D01*
X1604156Y662006D01*
X1594842Y665226D02*
X1599401Y660666D01*
X1583436Y665226D02*
X1594842D01*
X1599401Y660666D02*
X1599616D01*
X1604156Y662006D02*
X1627296D01*
X1654556Y596646D02*
Y609346D01*
Y619955D01*
X1657096Y622495D01*
Y632206D01*
X1733296Y641957D02*
Y653820D01*
Y641957D02*
X1733839Y641414D01*
X1260856Y668655D02*
Y688086D01*
X1209676Y705866D02*
Y706366D01*
X1303956Y693246D02*
X1314196Y683006D01*
X1284106Y693246D02*
X1303956D01*
X1446276Y671195D02*
Y693166D01*
X1443736Y695706D02*
Y696512D01*
Y695706D02*
X1446276Y693166D01*
X1329816Y698246D02*
X1342746D01*
X1342806Y698306D01*
X1443736Y696512D02*
X1444770Y697546D01*
X1381255Y707604D02*
X1391318D01*
X1392556Y705866D02*
Y706366D01*
X1198375Y707604D02*
X1208438D01*
X1197359Y708620D02*
X1198375Y707604D01*
X1208438D02*
X1209676Y706366D01*
X1208447Y759206D02*
X1230376D01*
X1284106Y708246D02*
X1303876D01*
X1391318Y707604D02*
X1392556Y706366D01*
X1380239Y708620D02*
X1381255Y707604D01*
X1466986Y708246D02*
X1486756D01*
X1308848Y713223D02*
X1308853D01*
X1391327Y759206D02*
X1413256D01*
X1466986Y693246D02*
X1486836D01*
X1497076Y683006D01*
X1525626Y698246D02*
X1525686Y698306D01*
X1512696Y698246D02*
X1525626D01*
X1587270Y699492D02*
X1598676D01*
X1599290Y700106D01*
X1713152Y699250D02*
X1729508D01*
X1599290Y700106D02*
X1627296D01*
X1712296D02*
X1713152Y699250D01*
X1776636Y672686D02*
X1788956D01*
X1768856Y680466D02*
X1776636Y672686D01*
X1871209Y690880D02*
X1871472D01*
X1871114Y690974D02*
X1871209Y690880D01*
X1582409Y704353D02*
X1587270Y699492D01*
X1582409Y704353D02*
Y705285D01*
X1491728Y713223D02*
X1491733D01*
X1677367Y746506D02*
X1687576D01*
X1729508Y699250D02*
X1733920Y703661D01*
X1735988D01*
X1824228Y786638D02*
X1825688Y788098D01*
X1844548D01*
X886983Y674881D02*
X906033D01*
X906288Y675135D01*
X903224Y565340D02*
Y573532D01*
X1260856Y639978D02*
Y656717D01*
X1695196Y583819D02*
Y632206D01*
X1303876Y708246D02*
X1308853Y713223D01*
X1871218Y691134D02*
X1871472Y690880D01*
X1486756Y708246D02*
X1491733Y713223D01*
X485012Y536068D02*
X488215Y532865D01*
Y532192D02*
Y532865D01*
X485012Y536068D02*
Y546608D01*
X487369Y579928D02*
X489070Y581629D01*
X484632Y579928D02*
X487369D01*
X489070Y581629D02*
Y589146D01*
X492252Y592328D01*
X1113536Y390906D02*
Y459272D01*
X1110996Y461812D02*
Y462026D01*
Y461812D02*
X1113536Y459272D01*
X837708Y680723D02*
X847105Y690121D01*
X856504D01*
X837708Y642115D02*
Y680723D01*
X1110056Y692150D02*
X1131396D01*
X859551Y702313D02*
X864378D01*
X871236Y695455D01*
X856504Y705361D02*
X859551Y702313D01*
X1466986Y688246D02*
X1483106Y672126D01*
X1448562Y622046D02*
X1483106Y656590D01*
Y672126D01*
X1446276Y622046D02*
X1448562D01*
X1420876Y596646D02*
Y622046D01*
X1263650Y620522D02*
X1298956Y655828D01*
Y673396D01*
X1238250Y621792D02*
X1238250Y595122D01*
X1587434Y674878D02*
X1587606Y674706D01*
X1627296D01*
X1505238Y707958D02*
X1541795D01*
X1500526Y703246D02*
X1505238Y707958D01*
X1466986Y703246D02*
X1500526D01*
X1541795Y707958D02*
X1575047Y674706D01*
X1579438Y674878D02*
X1587434D01*
X1579266Y674706D02*
X1579438Y674878D01*
X1575047Y674706D02*
X1579266D01*
X1567236Y666896D02*
X1575047Y674706D01*
X1547876Y666896D02*
X1567236D01*
X1449705Y711897D02*
X1458158Y703444D01*
X1449705Y711897D02*
Y728726D01*
X1466788Y703444D02*
X1466986Y703246D01*
X1458158Y703444D02*
X1466788D01*
X1658457Y771597D02*
Y771906D01*
Y728279D02*
Y771906D01*
X1644396Y757536D02*
X1658457Y771597D01*
X1644396Y717206D02*
Y757536D01*
X1657096Y726917D02*
X1658457Y728279D01*
X1657096Y717206D02*
Y726917D01*
X1712296Y662006D02*
X1732682D01*
X1733296Y661392D01*
X1742210D01*
X1753616Y649986D01*
X1753535D02*
X1753616D01*
X1752603Y649054D02*
X1753535Y649986D01*
X1598676Y691920D02*
X1614282D01*
X1584730D02*
X1598676D01*
X1614282D02*
X1618796Y687406D01*
X1627296D01*
X1601216Y651066D02*
Y651280D01*
X1599616Y649680D02*
X1601216Y651280D01*
Y651066D02*
X1602816Y649466D01*
X1627136D01*
X1627296Y649306D01*
X1599616Y645846D02*
Y649680D01*
X1466986Y698246D02*
X1504696D01*
X1580896Y688086D02*
X1584730Y691920D01*
X1593596Y639826D02*
X1599616Y645846D01*
X1593596Y639551D02*
Y639826D01*
X1532636Y503576D02*
Y520446D01*
Y503576D02*
X1548786Y487426D01*
X1466788Y698048D02*
X1466986Y698246D01*
X1458158Y698048D02*
X1466788D01*
X1454785Y694675D02*
X1458158Y698048D01*
X1284106Y698246D02*
X1321816D01*
X1283908Y698048D02*
X1284106Y698246D01*
X1275278Y698048D02*
X1283908D01*
X1269911Y692681D02*
X1275278Y698048D01*
X1269911Y692681D02*
X1270508Y692084D01*
X1454785Y665226D02*
Y694675D01*
X1270508Y684088D02*
Y692084D01*
X1269365Y682945D02*
X1270508Y684088D01*
X1269365Y662686D02*
Y682945D01*
X1679367Y771906D02*
X1686397D01*
X1679367D02*
Y787735D01*
X1672336Y771906D02*
X1679367D01*
X1669796Y797306D02*
X1679367Y787735D01*
X1672014Y770545D02*
X1672336D01*
X1671655Y771225D02*
X1672336Y771906D01*
X1669796Y768327D02*
X1672014Y770545D01*
X1669796Y797306D02*
Y799846D01*
Y746506D02*
Y768327D01*
Y717206D02*
Y746506D01*
X1687576Y606806D02*
Y618626D01*
X1682496Y623706D02*
Y632206D01*
X1644396Y622495D02*
Y632206D01*
Y622495D02*
X1646985Y619906D01*
X1682496Y623706D02*
X1687576Y618626D01*
X1646985Y609346D02*
Y619906D01*
X1687362Y606806D02*
X1687576D01*
X1641856Y604217D02*
X1646985Y609346D01*
X1679956Y599400D02*
X1687362Y606806D01*
X1679956Y596646D02*
Y599400D01*
X1641856Y589026D02*
Y604217D01*
X1400621Y723711D02*
X1408176Y731266D01*
X1400621Y723581D02*
Y723711D01*
X1400556Y705866D02*
Y718723D01*
X1398159Y721119D02*
X1400621Y723581D01*
X1398159Y721119D02*
X1400556Y718723D01*
X1395763Y723516D02*
X1398159Y721119D01*
X1380236Y723516D02*
X1395763D01*
X1429314Y703048D02*
X1434719Y697643D01*
X1420684Y703048D02*
X1429314D01*
X1420486Y703246D02*
X1420684Y703048D01*
X1402676Y703246D02*
X1420486D01*
X1400556Y705366D02*
X1402676Y703246D01*
X1219796D02*
X1237606D01*
X1217676Y705366D02*
X1219796Y703246D01*
X1217676Y705866D02*
Y723646D01*
X1252347Y693227D02*
Y697135D01*
X1251204Y692084D02*
X1252347Y693227D01*
X1246434Y703048D02*
X1252347Y697135D01*
X1237804Y703048D02*
X1246434D01*
X1237606Y703246D02*
X1237804Y703048D01*
X1434719Y668274D02*
X1437767Y665226D01*
X1434719Y668274D02*
Y697643D01*
X1252347Y662686D02*
Y682945D01*
X1251204Y684088D02*
X1252347Y682945D01*
X1251204Y684088D02*
Y692084D01*
X1239306Y538226D02*
X1248156D01*
X1229918Y528838D02*
X1239306Y538226D01*
X1229918Y507411D02*
Y528838D01*
X1217683Y495176D02*
X1229918Y507411D01*
X1197356Y723516D02*
X1197486Y723646D01*
X1217676D01*
X1763873Y652686D02*
X1788956D01*
X1712296Y674706D02*
Y687406D01*
Y674706D02*
X1741853D01*
X1763873Y652686D01*
X1698915Y742125D02*
Y771906D01*
X1696375Y739585D02*
X1698915Y742125D01*
X1696375Y728837D02*
Y739585D01*
X1682496Y725706D02*
X1696375Y739585D01*
X1696052Y728515D02*
X1696375Y728837D01*
X1696052Y718062D02*
Y728515D01*
X1682496Y717206D02*
Y725706D01*
X1695196Y717206D02*
X1696052Y718062D01*
X1831133Y766318D02*
X1833118Y764333D01*
X1669796Y623115D02*
Y632206D01*
Y623115D02*
X1672336Y620575D01*
Y585978D02*
Y620575D01*
Y585978D02*
X1674495Y583819D01*
X1674785D01*
X1674960Y583644D01*
X1675678D01*
X1677289Y582033D01*
X1676035Y580779D02*
X1677289Y582033D01*
X1622163Y580779D02*
X1676035D01*
X1547876Y653396D02*
X1550416Y650856D01*
Y630931D02*
Y650856D01*
X1560576Y630931D02*
X1564889Y626618D01*
X1576324D01*
X1622163Y580779D01*
X1535521Y630931D02*
X1550416D01*
X1533834Y629244D02*
X1535521Y630931D01*
X1533834Y628494D02*
Y629244D01*
X1530846Y625506D02*
X1533834Y628494D01*
X1530096Y625506D02*
X1530846D01*
X294132Y681228D02*
X360172D01*
X362712Y678688D01*
X383032D01*
X380492Y615188D02*
X393129D01*
X393192Y615252D01*
Y634588D01*
X393129Y615188D02*
X405765D01*
X408305Y612648D01*
X294132Y732028D02*
X296374Y734270D01*
X337014D01*
X360172Y757428D01*
X389449D01*
X423799Y612394D02*
Y612648D01*
Y612394D02*
X434452Y601741D01*
Y592253D02*
Y601741D01*
X389449Y757428D02*
X453929Y692948D01*
X436372Y696468D02*
X445890Y686950D01*
Y679770D02*
Y686950D01*
Y679770D02*
X446212Y679448D01*
X454152Y660908D02*
X454206Y660854D01*
X454152Y660908D02*
X454212Y660968D01*
X454206Y660099D02*
Y660854D01*
X454212Y660968D02*
Y679448D01*
X453929Y692948D02*
X467712D01*
X400812Y696468D02*
X436372D01*
X383032Y678688D02*
X400812Y696468D01*
X473669Y566928D02*
X484632D01*
X469856Y570741D02*
X473669Y566928D01*
X460964Y570741D02*
X469856D01*
X568832Y517520D02*
Y518668D01*
X956961Y690054D02*
X971180D01*
X972517Y691391D01*
X1193361Y698968D02*
X1200528D01*
X1200528Y698968D01*
X1215212D01*
X1184656Y707673D02*
X1193361Y698968D01*
X1184656Y707673D02*
Y726566D01*
X1197106Y739016D01*
X1197356D01*
Y759206D01*
X1220399Y639642D02*
Y678468D01*
Y639642D02*
X1220804Y639238D01*
X1220399Y678468D02*
X1230376Y688444D01*
X1220804Y639238D02*
X1238250Y621792D01*
X1284106Y688246D02*
X1298956Y673396D01*
X1405636Y637286D02*
Y673396D01*
X1420486Y688246D01*
X1405636Y637286D02*
X1420876Y622046D01*
X1215212Y698968D02*
X1215934Y698246D01*
X1237606D01*
X1237526Y693166D02*
X1237606Y693246D01*
X1284106Y703246D02*
X1317646D01*
X1346804Y707958D02*
X1361596Y693166D01*
X1376241Y698968D02*
X1383408D01*
X1237606Y708246D02*
Y718176D01*
X1248156Y728726D01*
X1254887D01*
X1266825Y711897D02*
Y728726D01*
Y711897D02*
X1275278Y703444D01*
X1283908D01*
X1284106Y703246D01*
X1317646D02*
X1322358Y707958D01*
X1346804D01*
X1367536Y707673D02*
Y726566D01*
Y707673D02*
X1376241Y698968D01*
X1367536Y726566D02*
X1379986Y739016D01*
X1383408Y698968D02*
X1383408Y698968D01*
X1398092D01*
X1361596Y693166D02*
X1420406D01*
X1398092Y698968D02*
X1398814Y698246D01*
X1420486D01*
X1420406Y693166D02*
X1420486Y693246D01*
X1379986Y739016D02*
X1380236D01*
Y759206D01*
X1420486Y708246D02*
Y718176D01*
X1431036Y728726D01*
X1437767D01*
X1902968Y714778D02*
Y731998D01*
D17*
X530079Y375121D02*
X532910Y377952D01*
X488317Y375121D02*
X530079D01*
X432054Y363982D02*
X438876Y357160D01*
X432054Y373978D02*
Y374178D01*
X430724Y375508D02*
X432054Y374178D01*
Y375122D02*
X457962D01*
X314452Y376428D02*
X429236D01*
X430156Y375508D01*
X430724D01*
X432054Y373978D02*
Y375122D01*
X457962D02*
X457963Y375121D01*
X595884Y340868D02*
Y359018D01*
X571482Y373380D02*
X612140D01*
X646430Y339090D01*
Y324358D02*
Y339090D01*
Y324513D02*
X664817D01*
X566910Y377952D02*
X571482Y373380D01*
X457963Y375121D02*
X479517D01*
X438658Y339598D02*
X438876Y339816D01*
Y357922D01*
X457962D01*
X432054Y363982D02*
Y364744D01*
X872998Y573278D02*
X873252Y573532D01*
X872998Y546608D02*
Y573278D01*
X872786Y514173D02*
X873075D01*
X873252Y514350D01*
X872998Y514604D02*
X873252Y514350D01*
X872998Y514604D02*
Y546608D01*
X649732Y348488D02*
X677291D01*
X444372Y516998D02*
X444755Y516615D01*
Y499984D02*
Y516615D01*
X718693Y348488D02*
X743712D01*
X799592Y422148D02*
Y442448D01*
X1000356Y557426D02*
X1022096D01*
X999236Y558546D02*
X1000356Y557426D01*
X1037336Y595296D02*
Y611886D01*
X355092Y709168D02*
X362872Y716948D01*
X384712D01*
X1246746Y279146D02*
X1268476D01*
X1322256Y355346D02*
X1349756D01*
X1110996Y469597D02*
Y485335D01*
X1111127Y485465D01*
X1902968Y686816D02*
X1903222Y686562D01*
X1902968Y686816D02*
Y700278D01*
X1845818Y690880D02*
Y712202D01*
X1871218Y691134D02*
Y712202D01*
X384302Y420370D02*
X405638D01*
X384048Y420116D02*
X384302Y420370D01*
X624840Y284226D02*
X625094Y284480D01*
X646430D01*
X1151636Y731520D02*
X1173988D01*
X1346962Y657098D02*
X1369314D01*
X1536011Y731987D02*
X1558363D01*
X1751330Y612648D02*
X1773682D01*
X1779016Y540766D02*
X1801622D01*
X801251Y319651D02*
X801624Y319278D01*
X781034Y320024D02*
X781407Y319651D01*
X801251D01*
X355092Y729488D02*
X357841D01*
X362381Y724948D01*
X384712D01*
X1064592Y462026D02*
X1110996D01*
X1044596Y482022D02*
Y550926D01*
X672769Y325120D02*
X695325D01*
X697992Y327787D01*
X1064808Y619252D02*
X1073658D01*
X1055928Y610372D02*
X1064808Y619252D01*
X1055928Y601078D02*
Y610372D01*
X1037606Y582756D02*
X1055928Y601078D01*
X1037336Y582756D02*
X1037606D01*
X1046846Y563926D02*
X1056848D01*
X1042346D02*
X1044596D01*
X1046846D01*
X1041616Y564656D02*
X1042346Y563926D01*
X1041616Y564656D02*
Y566906D01*
X1037336Y571186D02*
X1041616Y566906D01*
X1046846Y563926D02*
X1057656Y574736D01*
Y576326D01*
X1037336Y571186D02*
Y582756D01*
X1056848Y563926D02*
X1061720Y559054D01*
X789432Y394208D02*
Y409338D01*
X764032Y378968D02*
X774192D01*
X789432Y394208D01*
X1852825Y507137D02*
X1853434Y506528D01*
X1809089Y507137D02*
X1852825D01*
X1808480Y507746D02*
X1809089Y507137D01*
X1881632Y588102D02*
Y593102D01*
X1871926Y578396D02*
X1881632Y588102D01*
X1870429Y578396D02*
X1871926D01*
X1802210Y510177D02*
X1870429Y578396D01*
X1802210Y508726D02*
Y510177D01*
X1801230Y507746D02*
X1802210Y508726D01*
X1800980Y507746D02*
X1801230D01*
X1800980D02*
X1801107Y507619D01*
Y451993D02*
Y507619D01*
Y451993D02*
X1801234Y451866D01*
X1852076Y450886D02*
X1853434Y449528D01*
X1809714Y450886D02*
X1852076D01*
X1808734Y451866D02*
X1809714Y450886D01*
X1850246Y679052D02*
X1858518Y687324D01*
X1837322Y679052D02*
X1850246D01*
X1821456Y663186D02*
X1837322Y679052D01*
X1821456Y662686D02*
Y663186D01*
X1858518Y687324D02*
Y712202D01*
X1454785Y665226D02*
X1471676D01*
X1269365Y662686D02*
X1286256D01*
X1845818Y759474D02*
Y779298D01*
X1845018Y780098D02*
X1845818Y779298D01*
X1844548Y780098D02*
X1845018D01*
X1858518Y780796D02*
X1862328Y784606D01*
X1858518Y759474D02*
Y780796D01*
X1420876Y665226D02*
X1437767D01*
X1249807Y660146D02*
X1252347Y662686D01*
X1235456Y660146D02*
X1249807D01*
X1235456Y660146D02*
X1235456Y660146D01*
X1810438Y730318D02*
X1818978Y721778D01*
X1831477D01*
X1833118Y720137D01*
Y712202D02*
Y720137D01*
X1791208Y730318D02*
X1810438D01*
X1833118Y759474D02*
Y764802D01*
X1831602Y766318D02*
X1833118Y764802D01*
X1791208Y766318D02*
X1831602D01*
X1883156Y659626D02*
X1884680Y661150D01*
Y759474D02*
X1902444D01*
X1884680Y661150D02*
Y759474D01*
X1871218D02*
X1884680D01*
X294132Y757428D02*
X309462Y772758D01*
X427495D01*
X423652Y768915D02*
X427495Y772758D01*
X422212Y762448D02*
Y766999D01*
X423652Y768439D01*
Y768915D01*
X427495Y772758D02*
X467642D01*
X535952Y704448D01*
X697992Y369189D02*
Y370078D01*
X701802Y373888D01*
X725912D01*
X776982Y409338D02*
X789432D01*
X795862D01*
X797792Y411268D01*
Y412268D01*
X798592Y413068D01*
X799592D01*
X754132Y424708D02*
X776602D01*
X727012Y373888D02*
Y412828D01*
X723132Y416708D02*
X727012Y412828D01*
X723132Y416708D02*
Y424708D01*
X1208653Y279146D02*
X1227053Y297546D01*
Y303796D01*
Y297546D02*
X1229246Y295352D01*
X1227053Y303796D02*
X1230533Y307276D01*
X1229246Y279146D02*
Y295352D01*
X1230533Y307276D02*
X1236783D01*
X1902444Y759474D02*
X1902968Y759998D01*
X1202276Y279146D02*
X1208653D01*
X1192276D02*
Y310582D01*
X1172783Y330076D02*
X1192276Y310582D01*
D19*
X1130832Y692150D02*
D03*
X1146532D02*
D03*
X934998Y717804D02*
D03*
X950698D02*
D03*
D20*
X488317Y375121D02*
D03*
X479517D02*
D03*
D21*
X432054Y375592D02*
D03*
Y367792D02*
D03*
D22*
X457962Y375122D02*
D03*
Y357922D02*
D03*
D23*
X532910Y377952D02*
D03*
X566910D02*
D03*
D24*
X886998Y539108D02*
D03*
X858998Y544108D02*
D03*
Y554108D02*
D03*
X886998Y544108D02*
D03*
Y554108D02*
D03*
Y549108D02*
D03*
X858998D02*
D03*
Y539108D02*
D03*
D25*
X872998Y546608D02*
D03*
D26*
X804100Y595884D02*
D03*
X493012Y546608D02*
D03*
X704912Y683768D02*
D03*
X485012Y546608D02*
D03*
X696912Y683768D02*
D03*
X560832Y518668D02*
D03*
X568832D02*
D03*
X796100Y595884D02*
D03*
D27*
X677291Y348488D02*
D03*
X718693D02*
D03*
D28*
X595884Y359018D02*
D03*
Y373518D02*
D03*
D29*
X444372Y516998D02*
D03*
X1547876Y666896D02*
D03*
Y653396D02*
D03*
X444372Y530498D02*
D03*
D30*
X633602Y541528D02*
D03*
X659002D02*
D03*
X684402D02*
D03*
X709802D02*
D03*
X661542Y668528D02*
D03*
X636142D02*
D03*
X712342D02*
D03*
X686942D02*
D03*
D31*
X886983Y674881D02*
D03*
X856504Y690121D02*
D03*
Y674881D02*
D03*
Y705361D02*
D03*
X886983Y690121D02*
D03*
X886654Y704646D02*
D03*
D32*
X1032323Y407496D02*
D03*
X1077923D02*
D03*
D33*
X1110996Y469597D02*
D03*
X492252Y710414D02*
D03*
X1601216Y658852D02*
D03*
X1733296Y653820D02*
D03*
X1598676Y699492D02*
D03*
X1110996Y462026D02*
D03*
X492252Y702842D02*
D03*
X1733296Y661392D02*
D03*
X1601216Y651280D02*
D03*
X1598676Y691920D02*
D03*
D34*
X922020Y566736D02*
D03*
X393192Y646588D02*
D03*
X553592Y601568D02*
D03*
X1530096Y613506D02*
D03*
X922020Y554736D02*
D03*
X1530096Y625506D02*
D03*
X393192Y634588D02*
D03*
X553592Y613568D02*
D03*
D35*
X799592Y421068D02*
D03*
X462152Y614108D02*
D03*
X1844548Y788098D02*
D03*
X903224Y565340D02*
D03*
X462152Y606108D02*
D03*
X903224Y557340D02*
D03*
X1844548Y780098D02*
D03*
X799592Y413068D02*
D03*
D36*
X1022096Y557426D02*
D03*
X1044596Y550926D02*
D03*
Y563926D02*
D03*
X1022096D02*
D03*
Y550926D02*
D03*
D37*
X1037336Y595296D02*
D03*
Y582756D02*
D03*
D38*
X429452Y554228D02*
D03*
D39*
X434452D02*
D03*
X439452D02*
D03*
X454452D02*
D03*
Y592253D02*
D03*
X429452D02*
D03*
X434452D02*
D03*
X439452D02*
D03*
X444452D02*
D03*
X449452D02*
D03*
Y554228D02*
D03*
X444452D02*
D03*
D40*
X383412Y582048D02*
D03*
Y567048D02*
D03*
D41*
X530352Y565808D02*
D03*
Y578208D02*
D03*
D42*
X502832Y573428D02*
D03*
X484632Y579928D02*
D03*
Y566928D02*
D03*
D43*
X460964Y580741D02*
D03*
Y575741D02*
D03*
Y560741D02*
D03*
Y565740D02*
D03*
X422939Y570741D02*
D03*
Y585741D02*
D03*
Y560741D02*
D03*
Y565740D02*
D03*
Y575741D02*
D03*
Y580741D02*
D03*
X460964Y585741D02*
D03*
Y570741D02*
D03*
D44*
X384712Y716948D02*
D03*
X467712Y724948D02*
D03*
Y716948D02*
D03*
Y700948D02*
D03*
X384712Y724948D02*
D03*
Y748948D02*
D03*
Y740948D02*
D03*
Y732948D02*
D03*
Y708948D02*
D03*
Y700948D02*
D03*
Y692948D02*
D03*
X467712D02*
D03*
Y708948D02*
D03*
Y732948D02*
D03*
Y740948D02*
D03*
Y748948D02*
D03*
D45*
X606932Y563118D02*
D03*
Y588518D02*
D03*
X733932Y572008D02*
D03*
Y622808D02*
D03*
X606932Y639318D02*
D03*
X733932Y648208D02*
D03*
Y597408D02*
D03*
X606932Y613918D02*
D03*
D46*
X948961Y690054D02*
D03*
X956961D02*
D03*
D47*
X1246746Y279146D02*
D03*
X1229246D02*
D03*
D48*
X1322256Y355346D02*
D03*
X1286256D02*
D03*
D49*
X1141483Y462156D02*
D03*
X1517896Y418906D02*
D03*
X1236783Y352876D02*
D03*
X1517896Y464506D02*
D03*
X1236783Y307276D02*
D03*
X1141483Y416556D02*
D03*
D50*
X1260856Y656717D02*
D03*
X1446276Y659257D02*
D03*
X1260856Y668655D02*
D03*
X1446276Y671195D02*
D03*
D51*
X1466596Y500126D02*
D03*
X1447596D02*
D03*
D52*
X1567286Y467106D02*
D03*
X1548786D02*
D03*
D53*
X1687416Y581406D02*
D03*
X1677416D02*
D03*
D54*
X1695147Y606806D02*
D03*
X1654556Y609346D02*
D03*
X1677367Y746506D02*
D03*
X1687576Y606806D02*
D03*
X1669796Y746506D02*
D03*
X1646985Y609346D02*
D03*
D55*
X1560576Y608081D02*
D03*
Y630931D02*
D03*
D56*
X1627296Y662006D02*
D03*
Y700106D02*
D03*
X1712296D02*
D03*
X1627296Y674706D02*
D03*
Y687406D02*
D03*
Y649306D02*
D03*
X1712296Y662006D02*
D03*
Y674706D02*
D03*
Y687406D02*
D03*
Y649306D02*
D03*
D57*
X1695196Y632206D02*
D03*
X1657096D02*
D03*
Y717206D02*
D03*
X1644396D02*
D03*
X1669796D02*
D03*
X1682496Y632206D02*
D03*
X1644396D02*
D03*
X1695196Y717206D02*
D03*
X1682496D02*
D03*
X1669796Y632206D02*
D03*
D58*
X1108456Y682498D02*
D03*
Y690498D02*
D03*
D59*
X1284106Y693246D02*
D03*
X1466986D02*
D03*
X1284106Y708246D02*
D03*
X1466986D02*
D03*
Y703246D02*
D03*
X1284106Y698246D02*
D03*
X1466986D02*
D03*
X1237606Y703246D02*
D03*
X1420486D02*
D03*
X1466986Y688246D02*
D03*
X1420486Y698246D02*
D03*
Y693246D02*
D03*
Y688246D02*
D03*
Y708246D02*
D03*
X1237606Y688246D02*
D03*
Y693246D02*
D03*
Y698246D02*
D03*
X1284106Y688246D02*
D03*
Y703246D02*
D03*
X1237606Y708246D02*
D03*
D60*
X1329816Y698246D02*
D03*
X1209676Y705866D02*
D03*
X1392556D02*
D03*
X1512696Y698246D02*
D03*
X1321816D02*
D03*
X1504696D02*
D03*
X1400556Y705866D02*
D03*
X1217676D02*
D03*
D61*
X1208447Y759206D02*
D03*
X1391327D02*
D03*
X409110Y612648D02*
D03*
X421132D02*
D03*
X1196425Y759206D02*
D03*
X1379305D02*
D03*
D62*
X1788956Y672686D02*
D03*
Y652686D02*
D03*
D63*
X1902968Y700278D02*
D03*
Y714778D02*
D03*
D64*
X1871218Y712202D02*
D03*
X1845818D02*
D03*
X1858518D02*
D03*
X1845818Y759474D02*
D03*
X1858518D02*
D03*
X1833118D02*
D03*
X1871218D02*
D03*
D65*
X1597152Y428752D02*
D03*
X1595374Y382524D02*
D03*
X1317752Y291592D02*
D03*
X1073658Y619252D02*
D03*
X1248156Y538226D02*
D03*
X1532636Y520446D02*
D03*
X1121156Y276606D02*
D03*
D66*
X405638Y420370D02*
D03*
X646430Y284480D02*
D03*
X801624Y319278D02*
D03*
X1173988Y731520D02*
D03*
X1369314Y657098D02*
D03*
X1558363Y731987D02*
D03*
X1773682Y612648D02*
D03*
X1801622Y540766D02*
D03*
X967994Y596900D02*
D03*
X928370Y597916D02*
D03*
X1834004Y541570D02*
D03*
X1772412Y652526D02*
D03*
X1558683Y691475D02*
D03*
X1369314Y693166D02*
D03*
X1177036Y692658D02*
D03*
X801097Y358392D02*
D03*
X646430Y324358D02*
D03*
X404876Y376428D02*
D03*
D67*
X1113536Y390906D02*
D03*
X334772Y574548D02*
D03*
D68*
X1055123Y471496D02*
D03*
D69*
X518772Y681228D02*
D03*
X531772D02*
D03*
D70*
X1453896Y441706D02*
D03*
X1205483Y439356D02*
D03*
X1172783Y330076D02*
D03*
D71*
X360492Y615188D02*
D03*
X380492D02*
D03*
D72*
X1808480Y507746D02*
D03*
X1800980D02*
D03*
X1808734Y451866D02*
D03*
X1801234D02*
D03*
D73*
X735076Y373888D02*
D03*
X726948D02*
D03*
X672846Y325120D02*
D03*
X664718D02*
D03*
D74*
X1902968Y731998D02*
D03*
Y759998D02*
D03*
D75*
X1449705Y728726D02*
D03*
X1437767D02*
D03*
X1266825D02*
D03*
X1254887D02*
D03*
D76*
X1821456Y662686D02*
D03*
D77*
X1658457Y771906D02*
D03*
X1686397D02*
D03*
X1670975D02*
D03*
X1698915D02*
D03*
D78*
X1269365Y662686D02*
D03*
X1454785Y665226D02*
D03*
X1252347Y662686D02*
D03*
X1437767Y665226D02*
D03*
D79*
X1380236Y723516D02*
D03*
X1197356D02*
D03*
X776732Y424838D02*
D03*
Y409338D02*
D03*
X1197356Y739016D02*
D03*
X1380236D02*
D03*
D80*
X1833118Y712202D02*
D03*
D81*
X1791208Y730318D02*
D03*
Y766318D02*
D03*
D82*
X398212Y679448D02*
D03*
X406212D02*
D03*
X414212D02*
D03*
X422212D02*
D03*
X430212D02*
D03*
X438212D02*
D03*
X446212D02*
D03*
X454212D02*
D03*
Y762448D02*
D03*
X446212D02*
D03*
X438212D02*
D03*
X430212D02*
D03*
X422212D02*
D03*
X414212D02*
D03*
X406212D02*
D03*
X398212D02*
D03*
D83*
X697992Y327787D02*
D03*
Y369189D02*
D03*
D84*
X530352Y596888D02*
D03*
Y613168D02*
D03*
D85*
X754132Y424708D02*
D03*
X723132D02*
D03*
D86*
X1883156Y594626D02*
D03*
Y659626D02*
D03*
D87*
X1202276Y279146D02*
D03*
X1192276D02*
D03*
D101*
X441952Y573241D02*
D03*
D130*
X535952Y749448D02*
D03*
D131*
X600952D02*
D03*
X535952Y704448D02*
D03*
X600952D02*
D03*
D144*
X965454Y717804D02*
X972978Y710281D01*
X950698Y717804D02*
X965454D01*
X972978Y691851D02*
Y710281D01*
X899811Y717804D02*
X934998D01*
X886654Y704646D02*
X899811Y717804D01*
X842058Y544108D02*
X858998D01*
X833882Y535932D02*
X842058Y544108D01*
X833882Y373126D02*
Y535932D01*
X749092Y358808D02*
X819564D01*
X735012Y372888D02*
Y373888D01*
X819564Y358808D02*
X833882Y373126D01*
X530352Y549148D02*
Y565808D01*
X654812Y495808D02*
Y498695D01*
X626872Y495808D02*
X633602Y502538D01*
X654812Y498695D02*
X659002Y502885D01*
X680212Y495808D02*
Y498695D01*
X684402Y502885D01*
X708152Y495808D02*
Y539878D01*
X659002Y502885D02*
Y541528D01*
X633602Y502538D02*
Y541528D01*
X684402Y502885D02*
Y541528D01*
X708152Y539878D02*
X709802Y541528D01*
X434452Y554228D02*
X439452D01*
X360672Y582048D02*
X383412D01*
X360552Y582168D02*
X360672Y582048D01*
X434452Y580741D02*
X441952Y573241D01*
X439452Y554228D02*
Y570741D01*
X441952Y573241D01*
X460964Y575741D02*
Y580741D01*
X441952Y573241D02*
X449452Y580741D01*
X460964D01*
X462152Y614108D02*
X463232Y615188D01*
X482472D01*
X492252Y710628D02*
Y726948D01*
X553592Y579628D02*
Y601568D01*
X492252Y710414D02*
Y710628D01*
X477932Y724948D02*
X492252Y710628D01*
X467712Y724948D02*
X477932D01*
X492252Y726948D02*
X492833Y727529D01*
X492938D01*
X553592Y579628D02*
X562482Y588518D01*
X572642Y563118D02*
X606932D01*
X568832Y559308D02*
X572642Y563118D01*
X581152Y638048D02*
X582422Y639318D01*
X562482Y588518D02*
X606932D01*
X582422Y639318D02*
X606932D01*
X733932Y572008D02*
X751712D01*
X948801Y690215D02*
X948961Y690054D01*
X751332Y622808D02*
X761492Y612648D01*
X733932Y622808D02*
X751332D01*
X636142Y668528D02*
X637412Y669798D01*
Y686308D01*
X661542Y668528D02*
Y685038D01*
X660272Y686308D02*
X661542Y685038D01*
X704912Y697928D02*
X713612Y706628D01*
X733932Y648208D02*
X753525D01*
X758605Y643128D02*
X761492D01*
X753525Y648208D02*
X758605Y643128D01*
X712225Y668645D02*
Y675466D01*
X704912Y683768D02*
Y697928D01*
Y682778D02*
X712225Y675466D01*
X712342Y668528D02*
X713866D01*
X712225Y668645D02*
X712342Y668528D01*
X1108073Y665675D02*
X1108217Y665820D01*
Y682311D01*
X928131Y690375D02*
X928292Y690215D01*
X948801D01*
X454452Y550892D02*
Y554228D01*
X460964Y560741D02*
Y565740D01*
X401192Y577088D02*
X401788D01*
X408135Y570741D01*
X422939D01*
X466356Y538988D02*
X467232D01*
X454452Y550892D02*
X466356Y538988D01*
X460964Y560741D02*
X470880D01*
X485012Y546608D01*
X467712Y716948D02*
X472380D01*
X467712Y700948D02*
X472401D01*
X474295Y702842D01*
X472380Y716948D02*
X483273Y706055D01*
X474295Y702842D02*
X483273D01*
Y706055D01*
Y702842D02*
X492252D01*
Y686308D02*
X495139D01*
X492252D02*
Y702842D01*
X495139Y686308D02*
X500219Y681228D01*
X518772D01*
X360492Y615188D02*
Y616188D01*
X411352Y589788D02*
Y592328D01*
Y589788D02*
X415400Y585741D01*
X422939D01*
X426275D01*
X429452Y588917D01*
Y592253D01*
X454452D02*
Y595589D01*
X460110Y601246D01*
Y605056D01*
X461162Y606108D01*
X472312Y599948D02*
X474852Y597408D01*
X469312Y599948D02*
X472312D01*
X463152Y606108D02*
X469312Y599948D01*
X461162Y606108D02*
X462152D01*
X463152D01*
X346252Y630428D02*
X360492Y616188D01*
X342552Y630428D02*
X346252D01*
X688642Y670228D02*
Y675498D01*
X685292Y706628D02*
X696912Y695008D01*
Y683768D02*
Y695008D01*
Y682778D02*
Y683768D01*
X695859Y681726D02*
X696912Y682778D01*
X694870Y681726D02*
X695859D01*
X688642Y675498D02*
X694870Y681726D01*
X681354Y672592D02*
X685418Y668528D01*
X686942D02*
X688642Y670228D01*
X685418Y668528D02*
X686942D01*
X439452Y592253D02*
Y617188D01*
X444452Y592253D02*
Y595695D01*
X444684Y595927D01*
Y639398D01*
X446532Y641246D01*
X449452Y592253D02*
Y620268D01*
X467712Y638528D01*
X444372Y530498D02*
X444452Y530578D01*
Y554228D01*
X449220Y542990D02*
Y554228D01*
X334772Y574548D02*
Y583398D01*
X383412Y565740D02*
X422939D01*
X408432Y554228D02*
X414944Y560741D01*
X422939D01*
X334772Y583398D02*
X343906Y592532D01*
X358836D01*
X380492Y614188D01*
Y615188D01*
X422212Y634428D02*
X439452Y617188D01*
X446532Y641246D02*
Y679448D01*
X422212Y634428D02*
Y679448D01*
X449220Y542990D02*
X473543Y518668D01*
X568832D02*
X594029D01*
X473543D02*
X560832D01*
X530352Y578208D02*
Y596888D01*
X512552Y613568D02*
X530352D01*
X532892D02*
X553592D01*
X467712Y638528D02*
Y692948D01*
X553592Y613568D02*
X553942Y613918D01*
X606932D01*
X510412Y615708D02*
X512552Y613568D01*
X510032Y616088D02*
X510412Y615708D01*
X510032Y616088D02*
Y630428D01*
X531772Y681228D02*
Y682228D01*
X535952Y686408D01*
Y704448D01*
X672769Y597408D02*
X733932D01*
X594029Y518668D02*
X672769Y597408D01*
X735012Y372888D02*
X749092Y358808D01*
X1107138Y691391D02*
X1108217Y690311D01*
X1058958Y691391D02*
X1107138D01*
X972517D02*
X1010157D01*
X972517D02*
X972978Y691851D01*
D145*
X990396Y407366D02*
X1032316D01*
X1022896Y321622D02*
X1032316Y331042D01*
Y407366D01*
X986536Y411226D02*
X990396Y407366D01*
X1359516Y441706D02*
Y441906D01*
X1517896Y418906D02*
X1524146D01*
X1517896Y411226D02*
Y418906D01*
X1524146D02*
X1541866Y436626D01*
X1545336D01*
X1128783Y505336D02*
X1141483Y492636D01*
Y462156D02*
Y492636D01*
X1301496Y499926D02*
Y500126D01*
Y499926D02*
X1359516Y441906D01*
X1344676Y507746D02*
X1359516Y492906D01*
X1466596Y500126D02*
X1489456D01*
X1567286Y467106D02*
X1593596D01*
X1517896Y391914D02*
Y409186D01*
X1517396Y391414D02*
X1517896Y391914D01*
X1580692Y436362D02*
X1589826Y427228D01*
X1595120D01*
X1580692Y436362D02*
Y441656D01*
X1566886Y455462D02*
Y466706D01*
Y455462D02*
X1580692Y441656D01*
X1566886Y466706D02*
X1567286Y467106D01*
X1022896Y319786D02*
Y321622D01*
X1359516Y441906D02*
Y492906D01*
X994156Y451866D02*
X1035616D01*
X1055116Y471366D01*
X1055123Y471496D02*
Y520453D01*
Y471496D02*
X1064592Y462026D01*
X1026356Y500126D02*
X1044528Y481954D01*
X991616Y500126D02*
X1026356D01*
X1055123Y520453D02*
X1114792Y580122D01*
X1128996D01*
X1472184Y381254D02*
X1473454Y382524D01*
X1595374D01*
X1472184Y381254D02*
Y423418D01*
X1447596Y448006D02*
X1453896Y441706D01*
X1447596Y448006D02*
Y500126D01*
X1472184Y333210D02*
X1498308Y307086D01*
X1453896Y441706D02*
X1472184Y423418D01*
Y333210D02*
Y381254D01*
X1433068Y322326D02*
X1448308Y307086D01*
X1304036Y322326D02*
X1433068D01*
X1304036Y289306D02*
Y322326D01*
Y342566D01*
X1291256Y355346D02*
X1304036Y342566D01*
X1286256Y355346D02*
X1291256D01*
X1283786Y352876D02*
X1286256Y355346D01*
X1236783Y352876D02*
X1283786D01*
X1547876Y492506D02*
X1548786Y491596D01*
Y487426D02*
Y491596D01*
Y467106D02*
Y487426D01*
Y466716D02*
Y467106D01*
X1546576Y464506D02*
X1548786Y466716D01*
X1518355Y490925D02*
X1518594D01*
X1517396Y489966D02*
X1518355Y490925D01*
X1517396Y489966D02*
X1517896Y489466D01*
Y464506D02*
Y489466D01*
Y464506D02*
X1546576D01*
X1205483Y439356D02*
Y482487D01*
Y439356D02*
X1207833Y441706D01*
X1309516D01*
X1217683Y494687D02*
Y495176D01*
X1194823Y493147D02*
Y495176D01*
X1205483Y482487D02*
X1217683Y494687D01*
X1194823Y493147D02*
X1205483Y482487D01*
X535952Y704448D02*
X600952D01*
X1072896Y319786D02*
Y320306D01*
X1077916Y325326D01*
Y407366D01*
X1121156Y276606D02*
Y296926D01*
X1123696Y299466D01*
X1113536D02*
X1123696D01*
X1142296D01*
X1142303Y299596D02*
X1172783Y330076D01*
X1072896Y319786D02*
X1162616D01*
X1116076Y347726D02*
X1154996D01*
X1141483Y361376D02*
X1155003Y347856D01*
X1141483Y361376D02*
Y416556D01*
D146*
X339852Y351028D02*
D03*
X289052D02*
D03*
Y401828D02*
D03*
X339852D02*
D03*
D147*
X1022903Y319916D02*
D03*
X1359516Y441706D02*
D03*
X1178996Y580122D02*
D03*
D148*
X294132Y655828D02*
D03*
Y630428D02*
D03*
Y706628D02*
D03*
Y732028D02*
D03*
Y681228D02*
D03*
D149*
X1845434Y478028D02*
D03*
D150*
X1548308Y307086D02*
D03*
X1498308D02*
D03*
D151*
X1128996Y580122D02*
D03*
X1309516Y441706D02*
D03*
X1072903Y319916D02*
D03*
D152*
X1448308Y307086D02*
D03*
D153*
X1933434Y445028D02*
D03*
X1853434Y506528D02*
D03*
Y449528D02*
D03*
X1933434Y511028D02*
D03*
D154*
X1878434Y478028D02*
D03*
X1948434D02*
D03*
D155*
X1471676Y596646D02*
D03*
X1446276Y622046D02*
D03*
X1289050Y595122D02*
D03*
X1263650Y620522D02*
D03*
D156*
X1420876Y596646D02*
D03*
X1238250Y595122D02*
D03*
D157*
X294132Y757428D02*
D03*
D158*
X314452Y376428D02*
D03*
D159*
X1034557Y691391D02*
D03*
X1010157D02*
D03*
X1058958D02*
D03*
D160*
X595884Y340868D02*
D03*
X438658Y339598D02*
D03*
X922020Y577596D02*
D03*
X843797Y538725D02*
D03*
X843280Y549148D02*
D03*
X903868Y549093D02*
D03*
X873252Y573532D02*
D03*
X872786Y514173D02*
D03*
X649732Y348488D02*
D03*
X626872Y495808D02*
D03*
X708152D02*
D03*
X654812D02*
D03*
X680212D02*
D03*
X427678Y537972D02*
D03*
X444755Y499984D02*
D03*
X530352Y549148D02*
D03*
X743712Y348488D02*
D03*
X986536Y411226D02*
D03*
X799592Y442448D02*
D03*
X1111127Y485465D02*
D03*
X999236Y558546D02*
D03*
X1037336Y611886D02*
D03*
X360672Y582048D02*
D03*
X507492Y554228D02*
D03*
X393192Y660908D02*
D03*
X355092Y709168D02*
D03*
X461772Y663448D02*
D03*
X482472Y615188D02*
D03*
X492938Y727529D02*
D03*
X568832Y559308D02*
D03*
X553592Y579628D02*
D03*
X581152Y638048D02*
D03*
X751712Y572008D02*
D03*
X928131Y690375D02*
D03*
X761492Y612648D02*
D03*
X637412Y686308D02*
D03*
X660272D02*
D03*
X761492Y643128D02*
D03*
X713612Y706628D02*
D03*
X1349756Y355346D02*
D03*
X1545336Y436626D02*
D03*
X1128783Y505336D02*
D03*
X1108073Y665675D02*
D03*
X1260838Y639996D02*
D03*
X1301496Y500126D02*
D03*
X1489456D02*
D03*
X1344676Y507746D02*
D03*
X1446276Y642366D02*
D03*
X1547876Y589026D02*
D03*
X1593596Y467106D02*
D03*
X1657578Y593842D02*
D03*
X1692656Y561086D02*
D03*
X1583436Y665226D02*
D03*
X1733839Y641414D02*
D03*
X1314196Y683006D02*
D03*
X1260856Y688086D02*
D03*
X1444770Y697546D02*
D03*
X1342806Y698306D02*
D03*
X1197359Y708620D02*
D03*
X1230376Y759206D02*
D03*
X1380239Y708620D02*
D03*
X1308848Y713223D02*
D03*
X1413256Y759206D02*
D03*
X1497076Y683006D02*
D03*
X1525686Y698306D02*
D03*
X1768856Y680466D02*
D03*
X1903222Y686562D02*
D03*
X1845818Y690880D02*
D03*
X1871114Y690974D02*
D03*
X1582409Y705285D02*
D03*
X1491728Y713223D02*
D03*
X1687576Y746506D02*
D03*
X1735988Y703661D02*
D03*
X1824228Y786638D02*
D03*
X906288Y675135D02*
D03*
X903224Y573532D02*
D03*
X384048Y420116D02*
D03*
X624840Y284226D02*
D03*
X1517396Y391414D02*
D03*
X1151636Y731520D02*
D03*
X1346962Y657098D02*
D03*
X1536011Y731987D02*
D03*
X1751330Y612648D02*
D03*
X1779016Y540766D02*
D03*
X781034Y320024D02*
D03*
X1268476Y279146D02*
D03*
X401192Y577088D02*
D03*
X467232Y538988D02*
D03*
X488215Y532192D02*
D03*
X355092Y729488D02*
D03*
X492252Y592328D02*
D03*
Y686308D02*
D03*
X994156Y451866D02*
D03*
X991616Y500126D02*
D03*
X837708Y642115D02*
D03*
X1057656Y576326D02*
D03*
X411352Y592328D02*
D03*
X474852Y597408D02*
D03*
X342552Y630428D02*
D03*
X1061720Y559054D02*
D03*
X764032Y378968D02*
D03*
X1752603Y649054D02*
D03*
X1593596Y639826D02*
D03*
X1580896Y688086D02*
D03*
X1471676Y665226D02*
D03*
X1547876Y492506D02*
D03*
X1518594Y490925D02*
D03*
X1286256Y662686D02*
D03*
X685292Y706628D02*
D03*
X1862328Y784606D02*
D03*
X1669796Y799846D02*
D03*
X1679956Y596646D02*
D03*
X1641856Y589026D02*
D03*
X1408176Y731266D02*
D03*
X1217676Y723646D02*
D03*
X1420876Y665226D02*
D03*
X1235456Y660146D02*
D03*
X1217683Y495176D02*
D03*
X1194823D02*
D03*
X454206Y660099D02*
D03*
X408432Y554228D02*
D03*
X510032Y630428D02*
D03*
X1113536Y299466D02*
D03*
X1116076Y347726D02*
D03*
M02*
