G04*
G04 #@! TF.GenerationSoftware,Altium Limited,Altium Designer,25.5.2 (35)*
G04*
G04 Layer_Color=65535*
%FSLAX44Y44*%
%MOMM*%
G71*
G04*
G04 #@! TF.SameCoordinates,F6FF292E-385D-4CED-94FC-DDC138C61579*
G04*
G04*
G04 #@! TF.FilePolarity,Positive*
G04*
G01*
G75*
%ADD10C,0.2500*%
%ADD11C,0.2000*%
%ADD12C,0.6000*%
%ADD13C,0.1524*%
%ADD14C,0.1270*%
%ADD15C,0.1500*%
%ADD16C,0.1800*%
%ADD17C,0.2540*%
D10*
X845998Y555358D02*
G03*
X845998Y555358I-1250J0D01*
G01*
X1519146Y408656D02*
G03*
X1519146Y408656I-1250J0D01*
G01*
X295382Y776128D02*
G03*
X295382Y776128I-1250J0D01*
G01*
X522252Y749198D02*
G03*
X522252Y749198I-1250J0D01*
G01*
X385962Y757198D02*
G03*
X385962Y757198I-1250J0D01*
G01*
X430702Y544180D02*
G03*
X430702Y544180I-1250J0D01*
G01*
X597762Y639278D02*
G03*
X597762Y639278I-1250J0D01*
G01*
X1421736Y715996D02*
G03*
X1421736Y715996I-1250J0D01*
G01*
X1671046Y734206D02*
G03*
X1671046Y734206I-1250J0D01*
G01*
X1778706Y672686D02*
G03*
X1778706Y672686I-1250J0D01*
G01*
X1834368Y695856D02*
G03*
X1834368Y695856I-1250J0D01*
G01*
X1238033Y297026D02*
G03*
X1238033Y297026I-1250J0D01*
G01*
X1023346Y571426D02*
G03*
X1023346Y571426I-1250J0D01*
G01*
X1023323Y407496D02*
G03*
X1023323Y407496I-1250J0D01*
G01*
X1142733Y472406D02*
G03*
X1142733Y472406I-1250J0D01*
G01*
X1238856Y715996D02*
G03*
X1238856Y715996I-1250J0D01*
G01*
X1566877Y517182D02*
Y527179D01*
X1574374D01*
X1576874Y524679D01*
Y517182D01*
X1591869Y532177D02*
X1581872D01*
Y524679D01*
X1586870Y527179D01*
X1589370D01*
X1591869Y524679D01*
Y519681D01*
X1589370Y517182D01*
X1584371D01*
X1581872Y519681D01*
X1596867Y532177D02*
Y522180D01*
X1601866Y517182D01*
X1606864Y522180D01*
Y532177D01*
X990322Y636487D02*
X995320D01*
X992821D01*
Y651482D01*
X990322Y648983D01*
X1002817Y651482D02*
Y641486D01*
X1007816Y636487D01*
X1012814Y641486D01*
Y651482D01*
X1017813Y638987D02*
X1020312Y636487D01*
X1025310D01*
X1027809Y638987D01*
Y648983D01*
X1025310Y651482D01*
X1020312D01*
X1017813Y648983D01*
Y646484D01*
X1020312Y643985D01*
X1027809D01*
X1292149Y545815D02*
X1282152D01*
Y538317D01*
X1287150Y540817D01*
X1289650D01*
X1292149Y538317D01*
Y533319D01*
X1289650Y530820D01*
X1284651D01*
X1282152Y533319D01*
X1297147Y545815D02*
Y535818D01*
X1302146Y530820D01*
X1307144Y535818D01*
Y545815D01*
X1132546Y387106D02*
X1135045Y389605D01*
X1140043D01*
X1142543Y387106D01*
Y384607D01*
X1140043Y382108D01*
X1137544D01*
X1140043D01*
X1142543Y379608D01*
Y377109D01*
X1140043Y374610D01*
X1135045D01*
X1132546Y377109D01*
X1147541Y389605D02*
Y379608D01*
X1152540Y374610D01*
X1157538Y379608D01*
Y389605D01*
X1162536Y387106D02*
X1165035Y389605D01*
X1170034D01*
X1172533Y387106D01*
Y384607D01*
X1170034Y382108D01*
X1167535D01*
X1170034D01*
X1172533Y379608D01*
Y377109D01*
X1170034Y374610D01*
X1165035D01*
X1162536Y377109D01*
D11*
X1416808Y307086D02*
G03*
X1416808Y307086I-1000J0D01*
G01*
X1206496Y580122D02*
G03*
X1206496Y580122I-52500J0D01*
G01*
X1834434Y478028D02*
G03*
X1834434Y478028I-1000J0D01*
G01*
X1406636Y596646D02*
G03*
X1406636Y596646I-1000J0D01*
G01*
X1224010Y595122D02*
G03*
X1224010Y595122I-1000J0D01*
G01*
X1387016Y441706D02*
G03*
X1387016Y441706I-52500J0D01*
G01*
X1100403Y319916D02*
G03*
X1100403Y319916I-52500J0D01*
G01*
X973057Y691391D02*
G03*
X973057Y691391I-1000J0D01*
G01*
X574910Y398952D02*
Y402952D01*
Y352952D02*
Y356952D01*
X524910Y398952D02*
Y402952D01*
Y352952D02*
Y356952D01*
Y402952D02*
X574910D01*
X524910Y352952D02*
X574910D01*
X857498Y562108D02*
X860998D01*
X884998D02*
X888498D01*
Y531108D02*
Y534108D01*
Y559108D02*
Y562108D01*
X857498Y531108D02*
X860998D01*
X884998D02*
X888498D01*
X857498D02*
Y534108D01*
Y559108D02*
Y562108D01*
X1096408Y608452D02*
Y630052D01*
X1050908Y608452D02*
Y630052D01*
X1493896Y408206D02*
X1497396D01*
Y475206D01*
X1493896D02*
X1497396D01*
X1619902Y417952D02*
Y439552D01*
X1574402Y417952D02*
Y439552D01*
X1270906Y527426D02*
Y549026D01*
X1225406Y527426D02*
Y549026D01*
X1894468Y742998D02*
Y748998D01*
X1911468Y742998D02*
Y748998D01*
X280682Y616228D02*
X307582D01*
Y771628D01*
X280682D02*
X307582D01*
X280682Y616228D02*
Y771628D01*
X336952Y311428D02*
Y333028D01*
X291952Y311428D02*
Y333028D01*
Y311428D02*
X336952D01*
X344452Y369028D02*
Y383828D01*
X284452Y369028D02*
Y383828D01*
X307052Y406428D02*
X321852D01*
X307052Y346428D02*
X321852D01*
X547402Y758398D02*
X589502D01*
X599902Y715898D02*
Y737998D01*
X547402Y695498D02*
X589502D01*
X537002Y715898D02*
Y737998D01*
X395212Y689948D02*
Y751948D01*
X457212Y689948D02*
Y751948D01*
X395212D02*
X457212D01*
X395212Y689948D02*
X457212D01*
X421952Y553240D02*
X424452D01*
X421952D02*
Y555741D01*
X459452Y553240D02*
X461952D01*
Y555741D01*
X421952Y593241D02*
X424452D01*
X421952Y590740D02*
Y593241D01*
X459452D02*
X461952D01*
Y590740D02*
Y593241D01*
X323972Y597298D02*
X345572D01*
X323972Y551798D02*
X345572D01*
X722696Y668528D02*
X733932D01*
X697296D02*
X701988D01*
X671896D02*
X676588D01*
X646496D02*
X651188D01*
X606932D02*
X625788D01*
X606932Y541528D02*
Y552764D01*
Y573472D02*
Y578164D01*
Y598872D02*
Y603564D01*
Y624272D02*
Y628964D01*
Y649672D02*
Y668528D01*
X720156Y541528D02*
X733932D01*
X694756D02*
X699448D01*
X669356D02*
X674048D01*
X643956D02*
X648648D01*
X606932D02*
X623248D01*
X733932D02*
Y561654D01*
Y582362D02*
Y587054D01*
Y607762D02*
Y612454D01*
Y633162D02*
Y637854D01*
Y658562D02*
Y668528D01*
X405080Y603898D02*
X425162D01*
X405080Y621398D02*
X425162D01*
X361492Y625188D02*
X379492D01*
X361492Y605188D02*
X379492D01*
X401722Y631891D02*
Y649391D01*
X384692Y631838D02*
Y649338D01*
X562092Y598818D02*
Y616318D01*
X545062Y598765D02*
Y616265D01*
X485502Y700266D02*
Y712990D01*
X499002Y700266D02*
Y712990D01*
X913490Y551933D02*
Y569433D01*
X930520Y551986D02*
Y569486D01*
X731382Y411208D02*
X745882D01*
X731382Y438208D02*
X745882D01*
X1572624Y371724D02*
Y393324D01*
X1618124Y371724D02*
Y393324D01*
X1557286Y474356D02*
X1558786D01*
X1557286Y459856D02*
X1558786D01*
X1509886Y509646D02*
Y531246D01*
X1555386Y509646D02*
Y531246D01*
X1573826Y616906D02*
Y622106D01*
X1547326Y616906D02*
Y622106D01*
X1644408Y616096D02*
X1657133D01*
X1644408Y602596D02*
X1657133D01*
X1538596Y610756D02*
Y628256D01*
X1521566Y610703D02*
Y628203D01*
X1437386Y735726D02*
X1450086D01*
X1437386Y721726D02*
X1450086D01*
X1432236Y682746D02*
X1455236D01*
X1432236Y713746D02*
X1455236D01*
Y682746D02*
Y713746D01*
X1432236Y682746D02*
Y713746D01*
X1503696Y704746D02*
X1513696D01*
X1503696Y691746D02*
X1513696D01*
X1591926Y689344D02*
Y702068D01*
X1605426Y689344D02*
Y702068D01*
X1594466Y648704D02*
Y661428D01*
X1607966Y648704D02*
Y661428D01*
X1642796Y691706D02*
X1696796D01*
X1652796Y701706D02*
X1696796D01*
Y647706D02*
Y701706D01*
X1642796Y647706D02*
X1696796D01*
X1642796D02*
Y691706D01*
X1652796Y701706D01*
X1654425Y780706D02*
X1675007D01*
X1654425Y763106D02*
X1675007D01*
X1667219Y739756D02*
X1679944D01*
X1667219Y753256D02*
X1679944D01*
X1676916Y588406D02*
X1687916D01*
X1676916Y574406D02*
X1687916D01*
X1684999Y600056D02*
X1697724D01*
X1684999Y613556D02*
X1697724D01*
X1726546Y651244D02*
Y663968D01*
X1740046Y651244D02*
Y663968D01*
X1798956Y644686D02*
X1821956D01*
X1824956Y647686D01*
Y650686D01*
X1824956Y674686D02*
Y677686D01*
X1821956Y680686D02*
X1824956Y677686D01*
X1798956Y680686D02*
X1821956D01*
X1913156Y669626D02*
X1925656Y657126D01*
X1840656Y657126D02*
X1853156Y669626D01*
X1899656D02*
X1913156D01*
X1925656Y584626D02*
Y657126D01*
X1853156Y669626D02*
X1866656D01*
X1840656Y584626D02*
Y657126D01*
X1899656Y584626D02*
X1925656D01*
X1840656Y584626D02*
X1866656D01*
X1682365Y763106D02*
X1702947D01*
X1682365Y780706D02*
X1702947D01*
X1813708Y733818D02*
Y770818D01*
X1802208Y725818D02*
X1805708D01*
X1813708Y733818D01*
X1802208Y770818D02*
X1813708D01*
X1768708D02*
X1780208D01*
X1768708Y733818D02*
X1776708Y725818D01*
X1780208D01*
X1768708Y733818D02*
Y770818D01*
X1827643Y728048D02*
X1876693D01*
Y743628D01*
X1827643D02*
X1876693D01*
X1827643Y728048D02*
Y743628D01*
X1894177Y698987D02*
Y716069D01*
X1911759Y698987D02*
Y716069D01*
X1143906Y265806D02*
Y287406D01*
X1098406Y265806D02*
Y287406D01*
X1212783Y363576D02*
X1216283D01*
Y296576D02*
Y363576D01*
X1212783Y296576D02*
X1216283D01*
X1340502Y280792D02*
Y302392D01*
X1295002Y280792D02*
Y302392D01*
X1289756Y377846D02*
X1326756D01*
X1281756Y366346D02*
Y369846D01*
X1289756Y377846D01*
X1326756Y366346D02*
Y377846D01*
Y332846D02*
Y344346D01*
X1281756Y340846D02*
X1289756Y332846D01*
X1281756Y340846D02*
Y344346D01*
X1289756Y332846D02*
X1326756D01*
X1102736Y413656D02*
X1124336D01*
X1102736Y368156D02*
X1124336D01*
X1030346Y568426D02*
X1036346D01*
X1030346Y546426D02*
X1036346D01*
X1030346D02*
Y568426D01*
X1036346Y546426D02*
Y568426D01*
X1021623Y427996D02*
Y431496D01*
Y427996D02*
X1088623D01*
Y431496D01*
X1161983Y472856D02*
X1165483D01*
X1161983Y405856D02*
Y472856D01*
Y405856D02*
X1165483D01*
X1104246Y459449D02*
Y472174D01*
X1117746Y459449D02*
Y472174D01*
X1028836Y578965D02*
Y599087D01*
X1045836Y578965D02*
Y599087D01*
X1249356Y682746D02*
Y713746D01*
X1272356Y682746D02*
Y713746D01*
X1249356D02*
X1272356D01*
X1249356Y682746D02*
X1272356D01*
X1114806Y681498D02*
Y691498D01*
X1102106Y681498D02*
Y691498D01*
X947961Y696404D02*
X957961D01*
X947961Y683704D02*
X957961D01*
X1208676Y699366D02*
X1218676D01*
X1208676Y712366D02*
X1218676D01*
X1192395Y767956D02*
X1212477D01*
X1192395Y750456D02*
X1212477D01*
X1320816Y704746D02*
X1330816D01*
X1320816Y691746D02*
X1330816D01*
X1391556Y699366D02*
X1401556D01*
X1391556Y712366D02*
X1401556D01*
X1254506Y721726D02*
X1267206D01*
X1254506Y735726D02*
X1267206D01*
X1375275Y750456D02*
X1395357D01*
X1375275Y767956D02*
X1395357D01*
X979646Y598392D02*
X986311D01*
X911828Y599946D02*
X918493D01*
X915160Y603279D02*
Y596614D01*
X904208Y614028D02*
Y624025D01*
X907540Y620693D01*
X910872Y624025D01*
Y614028D01*
X914205Y624025D02*
X920869Y614028D01*
Y624025D02*
X914205Y614028D01*
X924202D02*
Y624025D01*
X929200D01*
X930866Y622359D01*
Y619026D01*
X929200Y617360D01*
X924202D01*
X927534D02*
X930866Y614028D01*
X934198Y612362D02*
X940863D01*
X944195Y624025D02*
Y614028D01*
X949193D01*
X950860Y615694D01*
Y622359D01*
X949193Y624025D01*
X944195D01*
X954192D02*
X957524D01*
X955858D01*
Y614028D01*
X954192D01*
X957524D01*
X969187Y624025D02*
X962523D01*
Y619026D01*
X965855D01*
X962523D01*
Y614028D01*
X979184Y624025D02*
X972519D01*
Y619026D01*
X975852D01*
X972519D01*
Y614028D01*
X1725450Y634439D02*
X1718786D01*
Y629440D01*
X1722118D01*
X1718786D01*
Y624442D01*
X1728783D02*
Y634439D01*
X1732115Y631107D01*
X1735447Y634439D01*
Y624442D01*
X1738780Y634439D02*
Y624442D01*
X1743778D01*
X1745444Y626108D01*
Y632773D01*
X1743778Y634439D01*
X1738780D01*
X1748776Y622776D02*
X1755441D01*
X1763772Y634439D02*
X1760439D01*
X1758773Y632773D01*
Y626108D01*
X1760439Y624442D01*
X1763772D01*
X1765438Y626108D01*
Y632773D01*
X1763772Y634439D01*
X1768770D02*
Y626108D01*
X1770436Y624442D01*
X1773768D01*
X1775434Y626108D01*
Y634439D01*
X1778767D02*
X1785431D01*
X1782099D01*
Y624442D01*
X1518126Y705722D02*
Y712387D01*
X1521458Y715719D01*
X1524790Y712387D01*
Y705722D01*
Y710721D01*
X1518126D01*
X1534787Y705722D02*
X1528123D01*
X1534787Y712387D01*
Y714053D01*
X1533121Y715719D01*
X1529789D01*
X1528123Y714053D01*
X1538120Y704056D02*
X1544784D01*
X1553115Y715719D02*
X1549783D01*
X1548116Y714053D01*
Y707388D01*
X1549783Y705722D01*
X1553115D01*
X1554781Y707388D01*
Y714053D01*
X1553115Y715719D01*
X1558113D02*
Y707388D01*
X1559779Y705722D01*
X1563112D01*
X1564778Y707388D01*
Y715719D01*
X1568110D02*
X1574774D01*
X1571442D01*
Y705722D01*
X1332992Y673173D02*
Y679837D01*
X1336324Y683170D01*
X1339656Y679837D01*
Y673173D01*
Y678171D01*
X1332992D01*
X1342988Y673173D02*
X1346321D01*
X1344655D01*
Y683170D01*
X1342988Y681504D01*
X1351319Y671507D02*
X1357984D01*
X1366314Y683170D02*
X1362982D01*
X1361316Y681504D01*
Y674839D01*
X1362982Y673173D01*
X1366314D01*
X1367980Y674839D01*
Y681504D01*
X1366314Y683170D01*
X1371313D02*
Y674839D01*
X1372979Y673173D01*
X1376311D01*
X1377977Y674839D01*
Y683170D01*
X1381309D02*
X1387974D01*
X1384642D01*
Y673173D01*
X1141952Y673718D02*
Y683715D01*
X1145284Y680383D01*
X1148616Y683715D01*
Y673718D01*
X1151949Y683715D02*
X1158613Y673718D01*
Y683715D02*
X1151949Y673718D01*
X1161946D02*
Y683715D01*
X1166944D01*
X1168610Y682049D01*
Y678717D01*
X1166944Y677050D01*
X1161946D01*
X1165278D02*
X1168610Y673718D01*
X1171942Y672052D02*
X1178607D01*
X1186937Y683715D02*
X1183605D01*
X1181939Y682049D01*
Y675384D01*
X1183605Y673718D01*
X1186937D01*
X1188604Y675384D01*
Y682049D01*
X1186937Y683715D01*
X1191936D02*
Y675384D01*
X1193602Y673718D01*
X1196934D01*
X1198600Y675384D01*
Y683715D01*
X1201933D02*
X1208597D01*
X1205265D01*
Y673718D01*
X775624Y348363D02*
Y338367D01*
Y343365D01*
X782288D01*
Y348363D01*
Y338367D01*
X792285Y348363D02*
X785620D01*
Y343365D01*
X788953D01*
X785620D01*
Y338367D01*
X795617Y336700D02*
X802282D01*
X810612Y348363D02*
X807280D01*
X805614Y346697D01*
Y340033D01*
X807280Y338367D01*
X810612D01*
X812278Y340033D01*
Y346697D01*
X810612Y348363D01*
X815611D02*
Y340033D01*
X817277Y338367D01*
X820609D01*
X822275Y340033D01*
Y348363D01*
X825608D02*
X832272D01*
X828940D01*
Y338367D01*
X609568Y311351D02*
Y301354D01*
Y306353D01*
X616232D01*
Y311351D01*
Y301354D01*
X626229Y311351D02*
X619565D01*
Y306353D01*
X622897D01*
X619565D01*
Y301354D01*
X629562Y299688D02*
X636226D01*
X639558Y311351D02*
X642891D01*
X641225D01*
Y301354D01*
X639558D01*
X642891D01*
X647889D02*
Y311351D01*
X654554Y301354D01*
Y311351D01*
X373094Y350630D02*
Y360627D01*
X378092D01*
X379758Y358961D01*
Y355629D01*
X378092Y353962D01*
X373094D01*
X376426D02*
X379758Y350630D01*
X389755Y360627D02*
X383091D01*
Y355629D01*
X386423D01*
X383091D01*
Y350630D01*
X393088Y348964D02*
X399752D01*
X403084Y360627D02*
X406417D01*
X404751D01*
Y350630D01*
X403084D01*
X406417D01*
X411415D02*
Y360627D01*
X418079Y350630D01*
Y360627D01*
D12*
X408212Y741948D02*
G03*
X408212Y741948I-3000J0D01*
G01*
X1672796Y681706D02*
G03*
X1672796Y681706I-3000J0D01*
G01*
D13*
X473294Y583280D02*
G03*
X473294Y585820I0J1270D01*
G01*
D02*
G03*
X473294Y583280I0J-1270D01*
G01*
X684022Y334518D02*
X689585D01*
X684022Y356895D02*
Y362458D01*
X706399D02*
X711962D01*
Y334518D02*
Y340081D01*
X684022Y334518D02*
Y340081D01*
Y362458D02*
X689585D01*
X711962Y356895D02*
Y362458D01*
X706399Y334518D02*
X711962D01*
X486932Y585620D02*
X500532D01*
Y561236D02*
Y567840D01*
X486932Y561236D02*
X500532D01*
Y579016D02*
Y585620D01*
X1796656Y709094D02*
X1786208D01*
X1791432Y714318D02*
Y703870D01*
X1265032Y349898D02*
Y360346D01*
X1270256Y355122D02*
X1259808D01*
D14*
X1423308Y264586D02*
X1573308D01*
X1423308D02*
Y347086D01*
X1573308D01*
Y264586D02*
Y347086D01*
X1949714Y513028D02*
X1968434D01*
X1869714D02*
X1917154D01*
X1949714Y443028D02*
X1968434D01*
X1869714D02*
X1917154D01*
X1413276Y561446D02*
Y584296D01*
Y609696D02*
Y631346D01*
X1479276D01*
Y609696D02*
Y631346D01*
Y561446D02*
Y584296D01*
X1413276Y561346D02*
X1479276D01*
X1230650Y559922D02*
Y582772D01*
Y608172D02*
Y629822D01*
X1296650D01*
Y608172D02*
Y629822D01*
Y559922D02*
Y582772D01*
X1230650Y559822D02*
X1296650D01*
X979057Y714891D02*
X1090058D01*
X979057Y667891D02*
Y714891D01*
Y667891D02*
X1090058D01*
Y714891D01*
D15*
X1098496Y580124D02*
X1088499D01*
X1093498Y575126D02*
Y585123D01*
X1279016Y441708D02*
X1269019D01*
X1274018Y436710D02*
Y446707D01*
X1103403Y319913D02*
X1113399D01*
X1108401Y324912D02*
Y314915D01*
X1569151Y655858D02*
X1567485Y657524D01*
X1564153D01*
X1562487Y655858D01*
Y649194D01*
X1564153Y647528D01*
X1567485D01*
X1569151Y649194D01*
X1572484Y655858D02*
X1574150Y657524D01*
X1577482D01*
X1579148Y655858D01*
Y654192D01*
X1577482Y652526D01*
X1575816D01*
X1577482D01*
X1579148Y650860D01*
Y649194D01*
X1577482Y647528D01*
X1574150D01*
X1572484Y649194D01*
X1589145Y657524D02*
X1585813Y655858D01*
X1582480Y652526D01*
Y649194D01*
X1584147Y647528D01*
X1587479D01*
X1589145Y649194D01*
Y650860D01*
X1587479Y652526D01*
X1582480D01*
X1729964Y676341D02*
X1728298Y674675D01*
Y671343D01*
X1729964Y669677D01*
X1736628D01*
X1738294Y671343D01*
Y674675D01*
X1736628Y676341D01*
X1729964Y679674D02*
X1728298Y681340D01*
Y684672D01*
X1729964Y686338D01*
X1731630D01*
X1733296Y684672D01*
Y683006D01*
Y684672D01*
X1734962Y686338D01*
X1736628D01*
X1738294Y684672D01*
Y681340D01*
X1736628Y679674D01*
X1728298Y696335D02*
Y689670D01*
X1733296D01*
X1731630Y693003D01*
Y694669D01*
X1733296Y696335D01*
X1736628D01*
X1738294Y694669D01*
Y691337D01*
X1736628Y689670D01*
D16*
X1150642Y270786D02*
X1153974D01*
X1152308D01*
Y280783D01*
X1150642Y279117D01*
X1165637Y270786D02*
X1158973D01*
X1165637Y277451D01*
Y279117D01*
X1163971Y280783D01*
X1160639D01*
X1158973Y279117D01*
X1168969Y280783D02*
Y274118D01*
X1172302Y270786D01*
X1175634Y274118D01*
Y280783D01*
X1189025Y258908D02*
Y268904D01*
X1194024D01*
X1195690Y267238D01*
Y263906D01*
X1194024Y262240D01*
X1189025D01*
X1192358D02*
X1195690Y258908D01*
X1199022Y260574D02*
X1200688Y258908D01*
X1204020D01*
X1205687Y260574D01*
Y267238D01*
X1204020Y268904D01*
X1200688D01*
X1199022Y267238D01*
Y265572D01*
X1200688Y263906D01*
X1205687D01*
X667116Y317784D02*
X665450Y319450D01*
X662117D01*
X660451Y317784D01*
Y311120D01*
X662117Y309454D01*
X665450D01*
X667116Y311120D01*
X677113Y309454D02*
X670448D01*
X677113Y316118D01*
Y317784D01*
X675446Y319450D01*
X672114D01*
X670448Y317784D01*
X321443Y610190D02*
Y620186D01*
X326441D01*
X328107Y618520D01*
Y615188D01*
X326441Y613522D01*
X321443D01*
X324775D02*
X328107Y610190D01*
X338104D02*
X331440D01*
X338104Y616854D01*
Y618520D01*
X336438Y620186D01*
X333106D01*
X331440Y618520D01*
X341437D02*
X343103Y620186D01*
X346435D01*
X348101Y618520D01*
Y616854D01*
X346435Y615188D01*
X344769D01*
X346435D01*
X348101Y613522D01*
Y611856D01*
X346435Y610190D01*
X343103D01*
X341437Y611856D01*
D17*
X1351026Y284480D02*
X1356104D01*
X1353565D01*
Y299715D01*
X1351026Y297176D01*
X1373879Y299715D02*
X1363722D01*
Y292097D01*
X1368800Y294637D01*
X1371339D01*
X1373879Y292097D01*
Y287019D01*
X1371339Y284480D01*
X1366261D01*
X1363722Y287019D01*
X1378957Y299715D02*
Y289558D01*
X1384035Y284480D01*
X1389114Y289558D01*
Y299715D01*
X1642869Y434336D02*
X1640329Y436875D01*
X1635251D01*
X1632712Y434336D01*
Y424179D01*
X1635251Y421640D01*
X1640329D01*
X1642869Y424179D01*
Y429258D01*
X1637790D01*
X1647947Y421640D02*
Y436875D01*
X1658104Y421640D01*
Y436875D01*
X1663182D02*
Y421640D01*
X1670800D01*
X1673339Y424179D01*
Y434336D01*
X1670800Y436875D01*
X1663182D01*
X1632712Y378968D02*
Y389125D01*
X1640329D01*
X1642869Y386586D01*
Y378968D01*
X1647947D02*
X1653025D01*
X1650486D01*
Y394203D01*
X1647947Y391664D01*
X1670800Y394203D02*
X1660643D01*
Y386586D01*
X1665721Y389125D01*
X1668260D01*
X1670800Y386586D01*
Y381507D01*
X1668260Y378968D01*
X1663182D01*
X1660643Y381507D01*
X1675878Y394203D02*
Y384046D01*
X1680956Y378968D01*
X1686035Y384046D01*
Y394203D01*
X1489207Y565401D02*
X1486668Y562862D01*
Y557783D01*
X1489207Y555244D01*
X1499364D01*
X1501903Y557783D01*
Y562862D01*
X1499364Y565401D01*
X1494285D01*
Y560322D01*
X1501903Y570479D02*
X1491746D01*
X1486668Y575557D01*
X1491746Y580636D01*
X1501903D01*
X1494285D01*
Y570479D01*
X1486668Y585714D02*
Y590793D01*
Y588253D01*
X1501903D01*
Y585714D01*
Y590793D01*
Y598410D02*
X1486668D01*
X1501903Y608567D01*
X1486668D01*
X1504442Y613645D02*
Y623802D01*
X1501903Y639037D02*
Y628880D01*
X1491746Y639037D01*
X1489207D01*
X1486668Y636498D01*
Y631419D01*
X1489207Y628880D01*
X1317249Y562353D02*
X1314710Y559813D01*
Y554735D01*
X1317249Y552196D01*
X1327406D01*
X1329945Y554735D01*
Y559813D01*
X1327406Y562353D01*
X1322327D01*
Y557274D01*
X1329945Y567431D02*
X1319788D01*
X1314710Y572509D01*
X1319788Y577588D01*
X1329945D01*
X1322327D01*
Y567431D01*
X1314710Y582666D02*
Y587744D01*
Y585205D01*
X1329945D01*
Y582666D01*
Y587744D01*
Y595362D02*
X1314710D01*
X1329945Y605519D01*
X1314710D01*
X1332484Y610597D02*
Y620754D01*
X1329945Y625832D02*
Y630910D01*
Y628371D01*
X1314710D01*
X1317249Y625832D01*
X1296416Y751581D02*
Y738885D01*
X1298955Y736346D01*
X1304034D01*
X1306573Y738885D01*
Y751581D01*
X1321808D02*
X1311651D01*
Y743963D01*
X1316729Y746503D01*
X1319269D01*
X1321808Y743963D01*
Y738885D01*
X1319269Y736346D01*
X1314190D01*
X1311651Y738885D01*
X1426461Y372613D02*
X1421382D01*
X1423922D01*
Y359917D01*
X1421382Y357378D01*
X1418843D01*
X1416304Y359917D01*
X1431539Y357378D02*
X1436617D01*
X1434078D01*
Y372613D01*
X1431539Y370074D01*
X1444235D02*
X1446774Y372613D01*
X1451853D01*
X1454392Y370074D01*
Y367535D01*
X1451853Y364995D01*
X1449313D01*
X1451853D01*
X1454392Y362456D01*
Y359917D01*
X1451853Y357378D01*
X1446774D01*
X1444235Y359917D01*
X1752860Y502668D02*
Y517904D01*
X1760478D01*
X1763017Y515364D01*
Y510286D01*
X1760478Y507747D01*
X1752860D01*
X1757939D02*
X1763017Y502668D01*
X1768095D02*
X1773174D01*
X1770634D01*
Y517904D01*
X1768095Y515364D01*
X1788409Y502668D02*
Y517904D01*
X1780791Y510286D01*
X1790948D01*
X1790958Y425706D02*
Y440942D01*
X1798576D01*
X1801115Y438402D01*
Y433324D01*
X1798576Y430785D01*
X1790958D01*
X1796037D02*
X1801115Y425706D01*
X1806193Y438402D02*
X1808732Y440942D01*
X1813811D01*
X1816350Y438402D01*
Y435863D01*
X1813811Y433324D01*
X1811272D01*
X1813811D01*
X1816350Y430785D01*
Y428246D01*
X1813811Y425706D01*
X1808732D01*
X1806193Y428246D01*
X1899413Y423923D02*
X1894335D01*
X1896874D01*
Y411228D01*
X1894335Y408689D01*
X1891795D01*
X1889256Y411228D01*
X1914648Y408689D02*
X1904491D01*
X1914648Y418845D01*
Y421384D01*
X1912109Y423923D01*
X1907030D01*
X1904491Y421384D01*
X852932Y732531D02*
X863089D01*
X858010D01*
Y717296D01*
X868167D02*
X873245D01*
X870706D01*
Y732531D01*
X868167Y729992D01*
X281436Y589790D02*
Y605025D01*
X289054D01*
X291593Y602486D01*
Y597408D01*
X289054Y594869D01*
X281436D01*
X306828Y589790D02*
X296671D01*
X306828Y599947D01*
Y602486D01*
X304289Y605025D01*
X299210D01*
X296671Y602486D01*
X1699012Y573788D02*
Y589024D01*
X1706630D01*
X1709169Y586484D01*
Y581406D01*
X1706630Y578867D01*
X1699012D01*
X1704091D02*
X1709169Y573788D01*
X1714247D02*
X1719326D01*
X1716786D01*
Y589024D01*
X1714247Y586484D01*
X1726943D02*
X1729482Y589024D01*
X1734561D01*
X1737100Y586484D01*
Y583945D01*
X1734561Y581406D01*
X1732021D01*
X1734561D01*
X1737100Y578867D01*
Y576328D01*
X1734561Y573788D01*
X1729482D01*
X1726943Y576328D01*
X405638Y629920D02*
Y645155D01*
X413256D01*
X415795Y642616D01*
Y637537D01*
X413256Y634998D01*
X405638D01*
X410716D02*
X415795Y629920D01*
X420873D02*
X425951D01*
X423412D01*
Y645155D01*
X420873Y642616D01*
X433569Y629920D02*
X438647D01*
X436108D01*
Y645155D01*
X433569Y642616D01*
X999239Y624584D02*
X996700Y627123D01*
X991622D01*
X989083Y624584D01*
Y614428D01*
X991622Y611889D01*
X996700D01*
X999239Y614428D01*
X1011935Y611889D02*
Y627123D01*
X1004318Y619506D01*
X1014474D01*
X1029709Y627123D02*
X1024631Y624584D01*
X1019553Y619506D01*
Y614428D01*
X1022092Y611889D01*
X1027170D01*
X1029709Y614428D01*
Y616967D01*
X1027170Y619506D01*
X1019553D01*
X1105918Y430024D02*
X1103378Y427485D01*
Y422407D01*
X1105918Y419868D01*
X1116074D01*
X1118614Y422407D01*
Y427485D01*
X1116074Y430024D01*
X1118614Y442720D02*
X1103378D01*
X1110996Y435103D01*
Y445260D01*
X1118614Y450338D02*
Y455416D01*
Y452877D01*
X1103378D01*
X1105918Y450338D01*
X991620Y594104D02*
Y581408D01*
X994159Y578868D01*
X999238D01*
X1001777Y581408D01*
Y594104D01*
X1014473Y578868D02*
Y594104D01*
X1006855Y586486D01*
X1017012D01*
X487175Y739646D02*
X484636Y742186D01*
X479558D01*
X477019Y739646D01*
Y729490D01*
X479558Y726951D01*
X484636D01*
X487175Y729490D01*
X492254Y739646D02*
X494793Y742186D01*
X499871D01*
X502410Y739646D01*
Y737107D01*
X499871Y734568D01*
X497332D01*
X499871D01*
X502410Y732029D01*
Y729490D01*
X499871Y726951D01*
X494793D01*
X492254Y729490D01*
X507489Y742186D02*
X517645D01*
Y739646D01*
X507489Y729490D01*
Y726951D01*
X1715519Y611884D02*
X1712980Y614423D01*
X1707902D01*
X1705363Y611884D01*
Y601728D01*
X1707902Y599188D01*
X1712980D01*
X1715519Y601728D01*
X1730754Y599188D02*
X1720598D01*
X1730754Y609345D01*
Y611884D01*
X1728215Y614423D01*
X1723137D01*
X1720598Y611884D01*
X1735833D02*
X1738372Y614423D01*
X1743450D01*
X1745989Y611884D01*
Y601728D01*
X1743450Y599188D01*
X1738372D01*
X1735833Y601728D01*
Y611884D01*
X894590Y591313D02*
X892050Y588774D01*
Y583695D01*
X894590Y581156D01*
X904746D01*
X907286Y583695D01*
Y588774D01*
X904746Y591313D01*
X892050Y606548D02*
X894590Y601469D01*
X899668Y596391D01*
X904746D01*
X907286Y598930D01*
Y604009D01*
X904746Y606548D01*
X902207D01*
X899668Y604009D01*
Y596391D01*
X732025Y401570D02*
X729485Y404109D01*
X724407D01*
X721868Y401570D01*
Y391413D01*
X724407Y388874D01*
X729485D01*
X732025Y391413D01*
X737103Y401570D02*
X739642Y404109D01*
X744721D01*
X747260Y401570D01*
Y399031D01*
X744721Y396492D01*
X742181D01*
X744721D01*
X747260Y393952D01*
Y391413D01*
X744721Y388874D01*
X739642D01*
X737103Y391413D01*
X819912Y422146D02*
X817373Y424686D01*
X812294D01*
X809755Y422146D01*
Y411990D01*
X812294Y409450D01*
X817373D01*
X819912Y411990D01*
X824990Y409450D02*
X830069D01*
X827530D01*
Y424686D01*
X824990Y422146D01*
X323348Y767586D02*
Y754890D01*
X325887Y752350D01*
X330966D01*
X333505Y754890D01*
Y767586D01*
X338583Y752350D02*
X343662D01*
X341122D01*
Y767586D01*
X338583Y765046D01*
X358897Y752350D02*
Y767586D01*
X351279Y759968D01*
X361436D01*
X637034Y737106D02*
X634495Y739645D01*
X629417D01*
X626878Y737106D01*
Y734567D01*
X629417Y732028D01*
X634495D01*
X637034Y729489D01*
Y726950D01*
X634495Y724410D01*
X629417D01*
X626878Y726950D01*
X642113Y739645D02*
Y724410D01*
X647191Y729489D01*
X652270Y724410D01*
Y739645D01*
X657348Y724410D02*
X662426D01*
X659887D01*
Y739645D01*
X657348Y737106D01*
X542802Y673102D02*
Y688337D01*
X550420D01*
X552959Y685798D01*
Y680720D01*
X550420Y678181D01*
X542802D01*
X547881D02*
X552959Y673102D01*
X568194D02*
X558037D01*
X568194Y683259D01*
Y685798D01*
X565655Y688337D01*
X560576D01*
X558037Y685798D01*
X486915Y400808D02*
X484375Y403347D01*
X479297D01*
X476758Y400808D01*
Y390651D01*
X479297Y388112D01*
X484375D01*
X486915Y390651D01*
X499611Y388112D02*
Y403347D01*
X491993Y395729D01*
X502150D01*
X972566Y740405D02*
Y737866D01*
X977644Y732787D01*
X982723Y737866D01*
Y740405D01*
X977644Y732787D02*
Y725170D01*
X987801D02*
X992879D01*
X990340D01*
Y740405D01*
X987801Y737866D01*
X1391926Y498853D02*
Y486158D01*
X1394465Y483619D01*
X1399544D01*
X1402083Y486158D01*
Y498853D01*
X1407161Y483619D02*
X1412240D01*
X1409700D01*
Y498853D01*
X1407161Y496314D01*
X1419857D02*
X1422396Y498853D01*
X1427475D01*
X1430014Y496314D01*
Y486158D01*
X1427475Y483619D01*
X1422396D01*
X1419857Y486158D01*
Y496314D01*
X1210060Y385824D02*
Y373128D01*
X1212599Y370588D01*
X1217678D01*
X1220217Y373128D01*
Y385824D01*
X1225295Y373128D02*
X1227834Y370588D01*
X1232913D01*
X1235452Y373128D01*
Y383284D01*
X1232913Y385824D01*
X1227834D01*
X1225295Y383284D01*
Y380745D01*
X1227834Y378206D01*
X1235452D01*
X1020826Y533141D02*
Y520445D01*
X1023365Y517906D01*
X1028444D01*
X1030983Y520445D01*
Y533141D01*
X1036061Y530602D02*
X1038600Y533141D01*
X1043679D01*
X1046218Y530602D01*
Y528063D01*
X1043679Y525523D01*
X1046218Y522984D01*
Y520445D01*
X1043679Y517906D01*
X1038600D01*
X1036061Y520445D01*
Y522984D01*
X1038600Y525523D01*
X1036061Y528063D01*
Y530602D01*
X1038600Y525523D02*
X1043679D01*
X1130300Y498851D02*
Y486155D01*
X1132839Y483616D01*
X1137917D01*
X1140457Y486155D01*
Y498851D01*
X1155692D02*
X1150613Y496312D01*
X1145535Y491233D01*
Y486155D01*
X1148074Y483616D01*
X1153153D01*
X1155692Y486155D01*
Y488694D01*
X1153153Y491233D01*
X1145535D01*
X497335Y610106D02*
Y597410D01*
X499874Y594870D01*
X504953D01*
X507492Y597410D01*
Y610106D01*
X512570Y594870D02*
X517649D01*
X515110D01*
Y610106D01*
X512570Y607566D01*
X1920242Y737619D02*
X1917702Y735080D01*
Y730002D01*
X1920242Y727463D01*
X1930398D01*
X1932937Y730002D01*
Y735080D01*
X1930398Y737619D01*
X1932937Y750315D02*
X1917702D01*
X1925320Y742698D01*
Y752854D01*
X1932937Y765550D02*
X1917702D01*
X1925320Y757933D01*
Y768089D01*
X729746Y523745D02*
Y521206D01*
X734825Y516128D01*
X739903Y521206D01*
Y523745D01*
X734825Y516128D02*
Y508511D01*
X755138D02*
X744981D01*
X755138Y518667D01*
Y521206D01*
X752599Y523745D01*
X747520D01*
X744981Y521206D01*
X1882146Y799335D02*
Y786640D01*
X1884685Y784100D01*
X1889764D01*
X1892303Y786640D01*
Y799335D01*
X1897381Y784100D02*
X1902460D01*
X1899920D01*
Y799335D01*
X1897381Y796796D01*
X1910077D02*
X1912616Y799335D01*
X1917695D01*
X1920234Y796796D01*
Y794257D01*
X1917695Y791718D01*
X1915155D01*
X1917695D01*
X1920234Y789179D01*
Y786640D01*
X1917695Y784100D01*
X1912616D01*
X1910077Y786640D01*
X1561851Y756664D02*
Y743968D01*
X1564391Y741429D01*
X1569469D01*
X1572008Y743968D01*
Y756664D01*
X1577086Y741429D02*
X1582165D01*
X1579626D01*
Y756664D01*
X1577086Y754124D01*
X1589782Y741429D02*
X1594861D01*
X1592321D01*
Y756664D01*
X1589782Y754124D01*
X842776Y597151D02*
Y584456D01*
X845315Y581917D01*
X850394D01*
X852933Y584456D01*
Y597151D01*
X858011D02*
X868168D01*
Y594612D01*
X858011Y584456D01*
Y581917D01*
X395736Y526286D02*
Y513590D01*
X398275Y511050D01*
X403354D01*
X405893Y513590D01*
Y526286D01*
X421128Y511050D02*
X410971D01*
X421128Y521207D01*
Y523746D01*
X418589Y526286D01*
X413510D01*
X410971Y523746D01*
X377949Y508515D02*
X362714D01*
Y516132D01*
X365254Y518671D01*
X370332D01*
X372871Y516132D01*
Y508515D01*
Y513593D02*
X377949Y518671D01*
Y533906D02*
Y523750D01*
X367793Y533906D01*
X365254D01*
X362714Y531367D01*
Y526289D01*
X365254Y523750D01*
X377949Y549141D02*
Y538985D01*
X367793Y549141D01*
X365254D01*
X362714Y546602D01*
Y541524D01*
X365254Y538985D01*
X605025Y390404D02*
X589790D01*
Y398022D01*
X592330Y400561D01*
X597408D01*
X599947Y398022D01*
Y390404D01*
Y395482D02*
X605025Y400561D01*
Y405639D02*
Y410718D01*
Y408178D01*
X589790D01*
X592330Y405639D01*
X605025Y428492D02*
Y418335D01*
X594869Y428492D01*
X592330D01*
X589790Y425953D01*
Y420874D01*
X592330Y418335D01*
X535429Y625352D02*
X520195D01*
Y632970D01*
X522734Y635509D01*
X527812D01*
X530351Y632970D01*
Y625352D01*
Y630430D02*
X535429Y635509D01*
X522734Y640587D02*
X520195Y643126D01*
Y648205D01*
X522734Y650744D01*
X525273D01*
X527812Y648205D01*
X530351Y650744D01*
X532890D01*
X535429Y648205D01*
Y643126D01*
X532890Y640587D01*
X530351D01*
X527812Y643126D01*
X525273Y640587D01*
X522734D01*
X527812Y643126D02*
Y648205D01*
X1918466Y701042D02*
Y716277D01*
X1926084D01*
X1928623Y713738D01*
Y708660D01*
X1926084Y706121D01*
X1918466D01*
X1923544D02*
X1928623Y701042D01*
X1943858Y716277D02*
X1938779Y713738D01*
X1933701Y708660D01*
Y703582D01*
X1936240Y701042D01*
X1941319D01*
X1943858Y703582D01*
Y706121D01*
X1941319Y708660D01*
X1933701D01*
X1796800Y619509D02*
Y634743D01*
X1804418D01*
X1806957Y632204D01*
Y627126D01*
X1804418Y624587D01*
X1796800D01*
X1801879D02*
X1806957Y619509D01*
X1822192Y634743D02*
X1812035D01*
Y627126D01*
X1817113Y629665D01*
X1819653D01*
X1822192Y627126D01*
Y622048D01*
X1819653Y619509D01*
X1814574D01*
X1812035Y622048D01*
X771906Y439420D02*
Y454655D01*
X779523D01*
X782063Y452116D01*
Y447038D01*
X779523Y444498D01*
X771906D01*
X776984D02*
X782063Y439420D01*
X787141D02*
X792219D01*
X789680D01*
Y454655D01*
X787141Y452116D01*
X1130556Y701808D02*
X1145791D01*
Y711965D01*
Y717043D02*
Y722122D01*
Y719582D01*
X1130556D01*
X1133096Y717043D01*
X1145791Y739896D02*
Y729739D01*
X1135635Y739896D01*
X1133096D01*
X1130556Y737357D01*
Y732278D01*
X1133096Y729739D01*
X895943Y725422D02*
Y710186D01*
X906100D01*
X911178D02*
X916257D01*
X913718D01*
Y725422D01*
X911178Y722882D01*
X923874Y710186D02*
X928953D01*
X926413D01*
Y725422D01*
X923874Y722882D01*
X1555498Y554742D02*
X1570733D01*
Y564899D01*
Y569977D02*
Y575056D01*
Y572516D01*
X1555498D01*
X1558038Y569977D01*
Y582673D02*
X1555498Y585212D01*
Y590291D01*
X1558038Y592830D01*
X1568194D01*
X1570733Y590291D01*
Y585212D01*
X1568194Y582673D01*
X1558038D01*
X448059Y391672D02*
X463293D01*
Y401829D01*
X450598Y406907D02*
X448059Y409446D01*
Y414525D01*
X450598Y417064D01*
X453137D01*
X455676Y414525D01*
Y411986D01*
Y414525D01*
X458215Y417064D01*
X460754D01*
X463293Y414525D01*
Y409446D01*
X460754Y406907D01*
X523240Y427985D02*
Y412750D01*
X533397D01*
X548632D02*
X538475D01*
X548632Y422907D01*
Y425446D01*
X546093Y427985D01*
X541014D01*
X538475Y425446D01*
X719074Y463037D02*
Y447802D01*
X729231D01*
X734309D02*
X739387D01*
X736848D01*
Y463037D01*
X734309Y460498D01*
X657353Y384045D02*
X652274D01*
X654814D01*
Y371350D01*
X652274Y368811D01*
X649735D01*
X647196Y371350D01*
X670049Y368811D02*
Y384045D01*
X662431Y376428D01*
X672588D01*
X286763Y439669D02*
X281684D01*
X284223D01*
Y426973D01*
X281684Y424434D01*
X279145D01*
X276606Y426973D01*
X291841Y437130D02*
X294380Y439669D01*
X299459D01*
X301998Y437130D01*
Y434591D01*
X299459Y432052D01*
X296919D01*
X299459D01*
X301998Y429512D01*
Y426973D01*
X299459Y424434D01*
X294380D01*
X291841Y426973D01*
X334772Y544066D02*
X329694D01*
X332233D01*
Y531370D01*
X329694Y528830D01*
X327155D01*
X324615Y531370D01*
X339850Y528830D02*
X344929D01*
X342390D01*
Y544066D01*
X339850Y541526D01*
X1907543Y567688D02*
X1905004Y570228D01*
X1899926D01*
X1897387Y567688D01*
Y557532D01*
X1899926Y554992D01*
X1905004D01*
X1907543Y557532D01*
X1920239Y554992D02*
Y570228D01*
X1912622Y562610D01*
X1922778D01*
X1938013Y570228D02*
X1927857D01*
Y562610D01*
X1932935Y565149D01*
X1935474D01*
X1938013Y562610D01*
Y557532D01*
X1935474Y554992D01*
X1930396D01*
X1927857Y557532D01*
X1608839Y779524D02*
X1606300Y782064D01*
X1601222D01*
X1598683Y779524D01*
Y769368D01*
X1601222Y766829D01*
X1606300D01*
X1608839Y769368D01*
X1621535Y766829D02*
Y782064D01*
X1613918Y774446D01*
X1624074D01*
X1629153Y779524D02*
X1631692Y782064D01*
X1636770D01*
X1639309Y779524D01*
Y776985D01*
X1636770Y774446D01*
X1634231D01*
X1636770D01*
X1639309Y771907D01*
Y769368D01*
X1636770Y766829D01*
X1631692D01*
X1629153Y769368D01*
X344935Y653286D02*
X342396Y655826D01*
X337318D01*
X334779Y653286D01*
Y643130D01*
X337318Y640591D01*
X342396D01*
X344935Y643130D01*
X357631Y640591D02*
Y655826D01*
X350014Y648208D01*
X360170D01*
X375405Y640591D02*
X365249D01*
X375405Y650747D01*
Y653286D01*
X372866Y655826D01*
X367788D01*
X365249Y653286D01*
X1116074Y729675D02*
X1118614Y732214D01*
Y737292D01*
X1116074Y739831D01*
X1105918D01*
X1103379Y737292D01*
Y732214D01*
X1105918Y729675D01*
X1103379Y716979D02*
X1118614D01*
X1110996Y724596D01*
Y714440D01*
X1116074Y709361D02*
X1118614Y706822D01*
Y701744D01*
X1116074Y699204D01*
X1105918D01*
X1103379Y701744D01*
Y706822D01*
X1105918Y709361D01*
X1116074D01*
X935185Y674813D02*
X932645Y677352D01*
X927567D01*
X925028Y674813D01*
Y664656D01*
X927567Y662117D01*
X932645D01*
X935185Y664656D01*
X940263Y674813D02*
X942802Y677352D01*
X947880D01*
X950420Y674813D01*
Y672274D01*
X947880Y669734D01*
X945341D01*
X947880D01*
X950420Y667195D01*
Y664656D01*
X947880Y662117D01*
X942802D01*
X940263Y664656D01*
X955498D02*
X958037Y662117D01*
X963115D01*
X965655Y664656D01*
Y674813D01*
X963115Y677352D01*
X958037D01*
X955498Y674813D01*
Y672274D01*
X958037Y669734D01*
X965655D01*
X1778511Y801876D02*
X1775972Y804416D01*
X1770894D01*
X1768355Y801876D01*
Y791720D01*
X1770894Y789181D01*
X1775972D01*
X1778511Y791720D01*
X1783590Y801876D02*
X1786129Y804416D01*
X1791207D01*
X1793746Y801876D01*
Y799337D01*
X1791207Y796798D01*
X1788668D01*
X1791207D01*
X1793746Y794259D01*
Y791720D01*
X1791207Y789181D01*
X1786129D01*
X1783590Y791720D01*
X1798825Y801876D02*
X1801364Y804416D01*
X1806442D01*
X1808981Y801876D01*
Y799337D01*
X1806442Y796798D01*
X1808981Y794259D01*
Y791720D01*
X1806442Y789181D01*
X1801364D01*
X1798825Y791720D01*
Y794259D01*
X1801364Y796798D01*
X1798825Y799337D01*
Y801876D01*
X1801364Y796798D02*
X1806442D01*
X1522478Y571249D02*
X1519938Y568710D01*
Y563632D01*
X1522478Y561093D01*
X1532634D01*
X1535173Y563632D01*
Y568710D01*
X1532634Y571249D01*
X1522478Y576328D02*
X1519938Y578867D01*
Y583945D01*
X1522478Y586484D01*
X1525017D01*
X1527556Y583945D01*
Y581406D01*
Y583945D01*
X1530095Y586484D01*
X1532634D01*
X1535173Y583945D01*
Y578867D01*
X1532634Y576328D01*
X1535173Y599180D02*
X1519938D01*
X1527556Y591563D01*
Y601719D01*
X1522478Y652529D02*
X1519939Y649990D01*
Y644912D01*
X1522478Y642373D01*
X1532634D01*
X1535173Y644912D01*
Y649990D01*
X1532634Y652529D01*
X1522478Y657608D02*
X1519939Y660147D01*
Y665225D01*
X1522478Y667764D01*
X1525017D01*
X1527556Y665225D01*
Y662686D01*
Y665225D01*
X1530095Y667764D01*
X1532634D01*
X1535173Y665225D01*
Y660147D01*
X1532634Y657608D01*
X1522478Y672843D02*
X1519939Y675382D01*
Y680460D01*
X1522478Y682999D01*
X1525017D01*
X1527556Y680460D01*
Y677921D01*
Y680460D01*
X1530095Y682999D01*
X1532634D01*
X1535173Y680460D01*
Y675382D01*
X1532634Y672843D01*
X1448051Y533142D02*
X1445511Y535681D01*
X1440433D01*
X1437894Y533142D01*
Y522985D01*
X1440433Y520446D01*
X1445511D01*
X1448051Y522985D01*
X1453129Y533142D02*
X1455668Y535681D01*
X1460747D01*
X1463286Y533142D01*
Y530603D01*
X1460747Y528064D01*
X1458207D01*
X1460747D01*
X1463286Y525524D01*
Y522985D01*
X1460747Y520446D01*
X1455668D01*
X1453129Y522985D01*
X1478521Y520446D02*
X1468364D01*
X1478521Y530603D01*
Y533142D01*
X1475982Y535681D01*
X1470903D01*
X1468364Y533142D01*
X1553715Y498852D02*
X1551176Y501391D01*
X1546097D01*
X1543558Y498852D01*
Y488695D01*
X1546097Y486156D01*
X1551176D01*
X1553715Y488695D01*
X1558793Y498852D02*
X1561332Y501391D01*
X1566411D01*
X1568950Y498852D01*
Y496313D01*
X1566411Y493773D01*
X1563871D01*
X1566411D01*
X1568950Y491234D01*
Y488695D01*
X1566411Y486156D01*
X1561332D01*
X1558793Y488695D01*
X1574028Y486156D02*
X1579106D01*
X1576567D01*
Y501391D01*
X1574028Y498852D01*
X974347Y386078D02*
X971808Y388618D01*
X966730D01*
X964191Y386078D01*
Y375922D01*
X966730Y373382D01*
X971808D01*
X974347Y375922D01*
X979426Y386078D02*
X981965Y388618D01*
X987043D01*
X989582Y386078D01*
Y383539D01*
X987043Y381000D01*
X984504D01*
X987043D01*
X989582Y378461D01*
Y375922D01*
X987043Y373382D01*
X981965D01*
X979426Y375922D01*
X994661Y386078D02*
X997200Y388618D01*
X1002278D01*
X1004817Y386078D01*
Y375922D01*
X1002278Y373382D01*
X997200D01*
X994661Y375922D01*
Y386078D01*
X1357379Y380744D02*
X1354840Y383284D01*
X1349762D01*
X1347223Y380744D01*
Y370588D01*
X1349762Y368049D01*
X1354840D01*
X1357379Y370588D01*
X1372614Y368049D02*
X1362458D01*
X1372614Y378205D01*
Y380744D01*
X1370075Y383284D01*
X1364997D01*
X1362458Y380744D01*
X1377693Y370588D02*
X1380232Y368049D01*
X1385310D01*
X1387849Y370588D01*
Y380744D01*
X1385310Y383284D01*
X1380232D01*
X1377693Y380744D01*
Y378205D01*
X1380232Y375666D01*
X1387849D01*
X1134875Y656334D02*
X1132336Y658874D01*
X1127258D01*
X1124719Y656334D01*
Y646178D01*
X1127258Y643639D01*
X1132336D01*
X1134875Y646178D01*
X1150110Y643639D02*
X1139954D01*
X1150110Y653795D01*
Y656334D01*
X1147571Y658874D01*
X1142493D01*
X1139954Y656334D01*
X1155189D02*
X1157728Y658874D01*
X1162806D01*
X1165345Y656334D01*
Y653795D01*
X1162806Y651256D01*
X1165345Y648717D01*
Y646178D01*
X1162806Y643639D01*
X1157728D01*
X1155189Y646178D01*
Y648717D01*
X1157728Y651256D01*
X1155189Y653795D01*
Y656334D01*
X1157728Y651256D02*
X1162806D01*
X1280157Y516886D02*
X1277617Y519425D01*
X1272539D01*
X1270000Y516886D01*
Y506729D01*
X1272539Y504190D01*
X1277617D01*
X1280157Y506729D01*
X1295392Y504190D02*
X1285235D01*
X1295392Y514347D01*
Y516886D01*
X1292853Y519425D01*
X1287774D01*
X1285235Y516886D01*
X1310627Y519425D02*
X1305549Y516886D01*
X1300470Y511808D01*
Y506729D01*
X1303009Y504190D01*
X1308088D01*
X1310627Y506729D01*
Y509268D01*
X1308088Y511808D01*
X1300470D01*
X946153Y565402D02*
X943614Y567942D01*
X938536D01*
X935997Y565402D01*
Y555246D01*
X938536Y552706D01*
X943614D01*
X946153Y555246D01*
X961388Y552706D02*
X951232D01*
X961388Y562863D01*
Y565402D01*
X958849Y567942D01*
X953771D01*
X951232Y565402D01*
X976623Y552706D02*
X966467D01*
X976623Y562863D01*
Y565402D01*
X974084Y567942D01*
X969006D01*
X966467Y565402D01*
X1603499Y724404D02*
X1600959Y726943D01*
X1595881D01*
X1593342Y724404D01*
Y714247D01*
X1595881Y711708D01*
X1600959D01*
X1603499Y714247D01*
X1618734Y711708D02*
X1608577D01*
X1618734Y721865D01*
Y724404D01*
X1616195Y726943D01*
X1611116D01*
X1608577Y724404D01*
X1623812Y711708D02*
X1628891D01*
X1626351D01*
Y726943D01*
X1623812Y724404D01*
X468125Y516126D02*
X465586Y518666D01*
X460507D01*
X457968Y516126D01*
Y505970D01*
X460507Y503430D01*
X465586D01*
X468125Y505970D01*
X473203Y503430D02*
X478282D01*
X475742D01*
Y518666D01*
X473203Y516126D01*
X485899Y505970D02*
X488438Y503430D01*
X493517D01*
X496056Y505970D01*
Y516126D01*
X493517Y518666D01*
X488438D01*
X485899Y516126D01*
Y513587D01*
X488438Y511048D01*
X496056D01*
X574799Y495810D02*
X577338Y493270D01*
X582417D01*
X584956Y495810D01*
Y505966D01*
X582417Y508506D01*
X577338D01*
X574799Y505966D01*
X569721Y508506D02*
X564642D01*
X567182D01*
Y493270D01*
X569721Y495810D01*
X557025D02*
X554486Y493270D01*
X549407D01*
X546868Y495810D01*
Y498349D01*
X549407Y500888D01*
X546868Y503427D01*
Y505966D01*
X549407Y508506D01*
X554486D01*
X557025Y505966D01*
Y503427D01*
X554486Y500888D01*
X557025Y498349D01*
Y495810D01*
X554486Y500888D02*
X549407D01*
X550674Y636781D02*
X548134Y634242D01*
Y629163D01*
X550674Y626624D01*
X560830D01*
X563369Y629163D01*
Y634242D01*
X560830Y636781D01*
X563369Y641859D02*
Y646938D01*
Y644398D01*
X548134D01*
X550674Y641859D01*
X548134Y654555D02*
Y664712D01*
X550674D01*
X560830Y654555D01*
X563369D01*
X516385Y536446D02*
X513846Y538985D01*
X508767D01*
X506228Y536446D01*
Y526290D01*
X508767Y523750D01*
X513846D01*
X516385Y526290D01*
X521463Y523750D02*
X526542D01*
X524002D01*
Y538985D01*
X521463Y536446D01*
X544316Y538985D02*
X539238Y536446D01*
X534159Y531368D01*
Y526290D01*
X536698Y523750D01*
X541777D01*
X544316Y526290D01*
Y528829D01*
X541777Y531368D01*
X534159D01*
X725045Y691386D02*
X722506Y693925D01*
X717427D01*
X714888Y691386D01*
Y681230D01*
X717427Y678690D01*
X722506D01*
X725045Y681230D01*
X730123Y678690D02*
X735201D01*
X732662D01*
Y693925D01*
X730123Y691386D01*
X752976Y693925D02*
X742819D01*
Y686308D01*
X747897Y688847D01*
X750437D01*
X752976Y686308D01*
Y681230D01*
X750437Y678690D01*
X745358D01*
X742819Y681230D01*
X1630429Y751584D02*
X1627890Y754124D01*
X1622811D01*
X1620272Y751584D01*
Y741428D01*
X1622811Y738888D01*
X1627890D01*
X1630429Y741428D01*
X1635507Y738888D02*
X1640586D01*
X1638046D01*
Y754124D01*
X1635507Y751584D01*
X1655821Y738888D02*
Y754124D01*
X1648203Y746506D01*
X1658360D01*
X1607569Y611884D02*
X1605030Y614423D01*
X1599951D01*
X1597412Y611884D01*
Y601728D01*
X1599951Y599188D01*
X1605030D01*
X1607569Y601728D01*
X1612647Y599188D02*
X1617726D01*
X1615186D01*
Y614423D01*
X1612647Y611884D01*
X1625343D02*
X1627882Y614423D01*
X1632961D01*
X1635500Y611884D01*
Y609345D01*
X1632961Y606806D01*
X1630421D01*
X1632961D01*
X1635500Y604267D01*
Y601728D01*
X1632961Y599188D01*
X1627882D01*
X1625343Y601728D01*
X1840995Y806448D02*
X1838456Y808988D01*
X1833377D01*
X1830838Y806448D01*
Y796292D01*
X1833377Y793753D01*
X1838456D01*
X1840995Y796292D01*
X1846073Y793753D02*
X1851152D01*
X1848612D01*
Y808988D01*
X1846073Y806448D01*
X1868926Y793753D02*
X1858769D01*
X1868926Y803909D01*
Y806448D01*
X1866387Y808988D01*
X1861308D01*
X1858769Y806448D01*
X1696468Y802384D02*
X1693929Y804923D01*
X1688851D01*
X1686311Y802384D01*
Y792228D01*
X1688851Y789688D01*
X1693929D01*
X1696468Y792228D01*
X1701546Y789688D02*
X1706625D01*
X1704086D01*
Y804923D01*
X1701546Y802384D01*
X1714242Y789688D02*
X1719321D01*
X1716781D01*
Y804923D01*
X1714242Y802384D01*
X551945Y566926D02*
X549406Y569465D01*
X544327D01*
X541788Y566926D01*
Y556770D01*
X544327Y554230D01*
X549406D01*
X551945Y556770D01*
X557023Y554230D02*
X562102D01*
X559562D01*
Y569465D01*
X557023Y566926D01*
X569719D02*
X572258Y569465D01*
X577337D01*
X579876Y566926D01*
Y556770D01*
X577337Y554230D01*
X572258D01*
X569719Y556770D01*
Y566926D01*
X469770Y646747D02*
X472309Y649286D01*
Y654365D01*
X469770Y656904D01*
X459614D01*
X457074Y654365D01*
Y649286D01*
X459614Y646747D01*
X469770Y641669D02*
X472309Y639130D01*
Y634051D01*
X469770Y631512D01*
X467231D01*
X464692Y634051D01*
X462153Y631512D01*
X459614D01*
X457074Y634051D01*
Y639130D01*
X459614Y641669D01*
X462153D01*
X464692Y639130D01*
X467231Y641669D01*
X469770D01*
X464692Y639130D02*
Y634051D01*
X804161Y622296D02*
X801621Y624835D01*
X796543D01*
X794004Y622296D01*
Y612139D01*
X796543Y609600D01*
X801621D01*
X804161Y612139D01*
X809239Y624835D02*
X819396D01*
Y622296D01*
X809239Y612139D01*
Y609600D01*
X424436Y401665D02*
X421897Y399126D01*
Y394047D01*
X424436Y391508D01*
X434592D01*
X437132Y394047D01*
Y399126D01*
X434592Y401665D01*
X421897Y416900D02*
Y406743D01*
X429514D01*
X426975Y411822D01*
Y414361D01*
X429514Y416900D01*
X434592D01*
X437132Y414361D01*
Y409282D01*
X434592Y406743D01*
M02*
