M48
;Layer_Color=9474304
;FILE_FORMAT=4:4
METRIC,LZ
;TYPE=PLATED
T01F00S00C0.3000
T02F00S00C0.6300
T03F00S00C0.7140
T05F00S00C0.9000
T06F00S00C0.9900
T07F00S00C1.1000
T08F00S00C1.2000
T09F00S00C1.3000
T10F00S00C1.7000
;TYPE=NON_PLATED
T11F00S00C1.2000
%
T01
X00438658Y00339598
X00595884Y00340868
X00649732Y00348488
X0062484Y00284226
X00743712Y00348488
X00764032Y00378968
X00781034Y00320024
X01113536Y00299466
X01116076Y00347726
X01268476Y00279146
X01349756Y00355346
X01517396Y00391414
X01593596Y00467106
X01641856Y00589026
X01657578Y00593842
X01679956Y00596646
X01692656Y00561086
X01779016Y00540766
X0175133Y00612648
X01752603Y00649054
X01733839Y00641414
X01735988Y00703661
X01768856Y00680466
X01845818Y0069088
X01871114Y00690974
X01903222Y00686562
X01862328Y00784606
X01824228Y00786638
X01687576Y00746506
X01593596Y00639826
X01583436Y00665226
X01580896Y00688086
X01582409Y00705285
X01525686Y00698306
X01497076Y00683006
X01491728Y00713223
X0144477Y00697546
X01420876Y00665226
X01446276Y00642366
X01471676Y00665226
X01408176Y00731266
X01413256Y00759206
X01380239Y0070862
X01342806Y00698306
X01314196Y00683006
X01308848Y00713223
X01260856Y00688086
X01260838Y00639996
X01235456Y00660146
X01286256Y00662686
X01346962Y00657098
X01344676Y00507746
X01301496Y00500126
X01217683Y00495176
X01194823
X01197359Y0070862
X01217676Y00723646
X01230376Y00759206
X01536011Y00731987
X01547876Y00589026
Y00492506
X01518594Y00490925
X01489456Y00500126
X01545336Y00436626
X01111127Y00485465
X01128783Y00505336
X0106172Y00559054
X01057656Y00576326
X01037336Y00611886
X00999236Y00558546
X00991616Y00500126
X00994156Y00451866
X00986536Y00411226
X00872786Y00514173
X00843797Y00538725
X0084328Y00549148
X00873252Y00573532
X00903224
X0092202Y00577596
X00903868Y00549093
X00906288Y00675135
X00928131Y00690375
X00837708Y00642115
X00799592Y00442448
X01108073Y00665675
X01151636Y0073152
X00713612Y00706628
X00685292
X00660272Y00686308
X00637412
X00581152Y00638048
X00510032Y00630428
X00482472Y00615188
X00474852Y00597408
X00492252Y00592328
X00507492Y00554228
X00530352Y00549148
X00568832Y00559308
X00553592Y00579628
X00488215Y00532192
X00467232Y00538988
X00427678Y00537972
X00408432Y00554228
X00401192Y00577088
X00411352Y00592328
X00454206Y00660099
X00461772Y00663448
X00492252Y00686308
X00492938Y00727529
X00444755Y00499984
X00626872Y00495808
X00654812
X00680212
X00708152
X00751712Y00572008
X00761492Y00612648
Y00643128
X00393192Y00660908
X00342552Y00630428
X00360672Y00582048
X00355092Y00709168
Y00729488
X00384048Y00420116
X01669796Y00799846
T02
X01010157Y00691391
X01034557
X01058958
T03
X0123825Y00595122
X0128905
X0126365Y00620522
X01420876Y00596646
X01471676
X01446276Y00622046
T05
X01022903Y00319916
X01072903
X01309516Y00441706
X01359516
X01178996Y00580122
X01128996
T06
X00535952Y00704448
Y00749448
X00600952
Y00704448
T07
X00294132Y00630428
Y00655828
Y00681228
Y00706628
Y00732028
Y00757428
T08
X00314452Y00376428
T09
X01448308Y00307086
X01498308
X01548308
T10
X00289052Y00351028
X00339852
Y00401828
X00289052
T11
X01878434Y00478028
X01948434
M30
