G04*
G04 #@! TF.GenerationSoftware,Altium Limited,Altium Designer,25.5.2 (35)*
G04*
G04 Layer_Physical_Order=3*
G04 Layer_Color=16440176*
%FSLAX44Y44*%
%MOMM*%
G71*
G04*
G04 #@! TF.SameCoordinates,F6FF292E-385D-4CED-94FC-DDC138C61579*
G04*
G04*
G04 #@! TF.FilePolarity,Positive*
G04*
G01*
G75*
%ADD130R,1.5400X1.5400*%
%ADD131C,1.5400*%
%ADD146C,2.8000*%
%ADD147C,1.4000*%
%ADD148C,1.6000*%
%ADD149O,1.3080X2.6160*%
%ADD150C,1.9500*%
G04:AMPARAMS|DCode=151|XSize=1.4mm|YSize=1.4mm|CornerRadius=0.35mm|HoleSize=0mm|Usage=FLASHONLY|Rotation=180.000|XOffset=0mm|YOffset=0mm|HoleType=Round|Shape=RoundedRectangle|*
%AMROUNDEDRECTD151*
21,1,1.4000,0.7000,0,0,180.0*
21,1,0.7000,1.4000,0,0,180.0*
1,1,0.7000,-0.3500,0.3500*
1,1,0.7000,0.3500,0.3500*
1,1,0.7000,0.3500,-0.3500*
1,1,0.7000,-0.3500,-0.3500*
%
%ADD151ROUNDEDRECTD151*%
%ADD153O,2.6160X1.3080*%
%ADD154C,1.2000*%
%ADD155C,1.2220*%
G04:AMPARAMS|DCode=157|XSize=1.6mm|YSize=1.6mm|CornerRadius=0.4mm|HoleSize=0mm|Usage=FLASHONLY|Rotation=270.000|XOffset=0mm|YOffset=0mm|HoleType=Round|Shape=RoundedRectangle|*
%AMROUNDEDRECTD157*
21,1,1.6000,0.8000,0,0,270.0*
21,1,0.8000,1.6000,0,0,270.0*
1,1,0.8000,-0.4000,-0.4000*
1,1,0.8000,-0.4000,0.4000*
1,1,0.8000,0.4000,0.4000*
1,1,0.8000,0.4000,-0.4000*
%
%ADD157ROUNDEDRECTD157*%
%ADD158C,2.0000*%
%ADD159C,1.0300*%
%ADD160C,0.5000*%
G36*
X1937512Y804001D02*
Y538480D01*
X1784070D01*
X1783036Y539966D01*
Y541566D01*
X1782424Y543043D01*
X1781293Y544174D01*
X1779816Y544786D01*
X1778216D01*
X1776739Y544174D01*
X1775608Y543043D01*
X1774996Y541566D01*
Y539966D01*
X1773962Y538480D01*
X1252982D01*
Y393700D01*
X1163828D01*
Y652526D01*
X568809D01*
X567382Y793804D01*
X568450Y794891D01*
X1664646Y803051D01*
X1665625Y801534D01*
X1665340Y800846D01*
X1674252D01*
X1673942Y801596D01*
X1674870Y803127D01*
X1936430Y805074D01*
X1937512Y804001D01*
D02*
G37*
G36*
X566269Y650708D02*
X947928Y649478D01*
Y518160D01*
X1096518D01*
Y378111D01*
X1095435Y377038D01*
X1072845Y377241D01*
X798640Y375925D01*
X797560Y377000D01*
Y437604D01*
X798792Y438428D01*
X800392D01*
X801869Y439040D01*
X803000Y440171D01*
X803612Y441648D01*
Y443248D01*
X803000Y444725D01*
X801869Y445856D01*
X800392Y446468D01*
X798792D01*
X797560Y447291D01*
Y486918D01*
X264160D01*
Y776478D01*
X565150D01*
X566269Y650708D01*
D02*
G37*
G36*
X772160Y365760D02*
X1204976D01*
Y274320D01*
X752856D01*
Y385318D01*
X772160D01*
Y365760D01*
D02*
G37*
%LPC*%
G36*
X1674252Y798846D02*
X1670796D01*
Y795389D01*
X1672345Y796031D01*
X1673611Y797297D01*
X1674252Y798846D01*
D02*
G37*
G36*
X1668796D02*
X1665340D01*
X1665981Y797297D01*
X1667247Y796031D01*
X1668796Y795389D01*
Y798846D01*
D02*
G37*
G36*
X1863328Y789062D02*
Y785606D01*
X1866785D01*
X1866143Y787155D01*
X1864877Y788421D01*
X1863328Y789062D01*
D02*
G37*
G36*
X1861328D02*
X1859779Y788421D01*
X1858513Y787155D01*
X1857872Y785606D01*
X1861328D01*
Y789062D01*
D02*
G37*
G36*
X1825028Y790658D02*
X1823428D01*
X1821951Y790046D01*
X1820820Y788915D01*
X1820208Y787438D01*
Y785838D01*
X1820820Y784361D01*
X1821951Y783230D01*
X1823428Y782618D01*
X1825028D01*
X1826505Y783230D01*
X1827636Y784361D01*
X1828248Y785838D01*
Y787438D01*
X1827636Y788915D01*
X1826505Y790046D01*
X1825028Y790658D01*
D02*
G37*
G36*
X1866785Y783606D02*
X1863328D01*
Y780150D01*
X1864877Y780791D01*
X1866143Y782057D01*
X1866785Y783606D01*
D02*
G37*
G36*
X1861328D02*
X1857872D01*
X1858513Y782057D01*
X1859779Y780791D01*
X1861328Y780150D01*
Y783606D01*
D02*
G37*
G36*
X1414056Y763226D02*
X1412456D01*
X1410979Y762614D01*
X1409848Y761483D01*
X1409236Y760006D01*
Y758406D01*
X1409848Y756929D01*
X1410979Y755798D01*
X1412456Y755186D01*
X1414056D01*
X1415533Y755798D01*
X1416664Y756929D01*
X1417276Y758406D01*
Y760006D01*
X1416664Y761483D01*
X1415533Y762614D01*
X1414056Y763226D01*
D02*
G37*
G36*
X1231176D02*
X1229576D01*
X1228099Y762614D01*
X1226968Y761483D01*
X1226356Y760006D01*
Y758406D01*
X1226968Y756929D01*
X1228099Y755798D01*
X1229576Y755186D01*
X1231176D01*
X1232653Y755798D01*
X1233784Y756929D01*
X1234396Y758406D01*
Y760006D01*
X1233784Y761483D01*
X1232653Y762614D01*
X1231176Y763226D01*
D02*
G37*
G36*
X1688376Y750526D02*
X1686776D01*
X1685299Y749914D01*
X1684168Y748783D01*
X1683556Y747306D01*
Y745706D01*
X1684168Y744229D01*
X1685299Y743098D01*
X1686776Y742486D01*
X1688376D01*
X1689853Y743098D01*
X1690984Y744229D01*
X1691596Y745706D01*
Y747306D01*
X1690984Y748783D01*
X1689853Y749914D01*
X1688376Y750526D01*
D02*
G37*
G36*
X602166Y758668D02*
X599738D01*
X597393Y758040D01*
X595291Y756826D01*
X593574Y755109D01*
X592360Y753007D01*
X591732Y750662D01*
Y748234D01*
X592360Y745889D01*
X593574Y743787D01*
X595291Y742070D01*
X597393Y740856D01*
X599738Y740228D01*
X602166D01*
X604511Y740856D01*
X606613Y742070D01*
X608330Y743787D01*
X609544Y745889D01*
X610172Y748234D01*
Y750662D01*
X609544Y753007D01*
X608330Y755109D01*
X606613Y756826D01*
X604511Y758040D01*
X602166Y758668D01*
D02*
G37*
G36*
X1409176Y735723D02*
Y732266D01*
X1412632D01*
X1411991Y733815D01*
X1410725Y735081D01*
X1409176Y735723D01*
D02*
G37*
G36*
X1407176D02*
X1405627Y735081D01*
X1404361Y733815D01*
X1403719Y732266D01*
X1407176D01*
Y735723D01*
D02*
G37*
G36*
X1536811Y736007D02*
X1535212D01*
X1533734Y735395D01*
X1532603Y734264D01*
X1531991Y732786D01*
Y731187D01*
X1532603Y729709D01*
X1533734Y728579D01*
X1535212Y727967D01*
X1536811D01*
X1538288Y728579D01*
X1539419Y729709D01*
X1540031Y731187D01*
Y732786D01*
X1539419Y734264D01*
X1538288Y735395D01*
X1536811Y736007D01*
D02*
G37*
G36*
X1152436Y735540D02*
X1150836D01*
X1149359Y734928D01*
X1148228Y733797D01*
X1147616Y732320D01*
Y730720D01*
X1148228Y729243D01*
X1149359Y728112D01*
X1150836Y727500D01*
X1152436D01*
X1153913Y728112D01*
X1155044Y729243D01*
X1155656Y730720D01*
Y732320D01*
X1155044Y733797D01*
X1153913Y734928D01*
X1152436Y735540D01*
D02*
G37*
G36*
X1412632Y730266D02*
X1409176D01*
Y726809D01*
X1410725Y727451D01*
X1411991Y728717D01*
X1412632Y730266D01*
D02*
G37*
G36*
X1407176D02*
X1403719D01*
X1404361Y728717D01*
X1405627Y727451D01*
X1407176Y726809D01*
Y730266D01*
D02*
G37*
G36*
X1218676Y728102D02*
Y724646D01*
X1222132D01*
X1221491Y726195D01*
X1220225Y727461D01*
X1218676Y728102D01*
D02*
G37*
G36*
X1216676D02*
X1215127Y727461D01*
X1213861Y726195D01*
X1213220Y724646D01*
X1216676D01*
Y728102D01*
D02*
G37*
G36*
X1222132Y722646D02*
X1218676D01*
Y719190D01*
X1220225Y719831D01*
X1221491Y721097D01*
X1222132Y722646D01*
D02*
G37*
G36*
X1216676D02*
X1213220D01*
X1213861Y721097D01*
X1215127Y719831D01*
X1216676Y719190D01*
Y722646D01*
D02*
G37*
G36*
X1492527Y717243D02*
X1490928D01*
X1489451Y716631D01*
X1488320Y715500D01*
X1487708Y714022D01*
Y712423D01*
X1488320Y710946D01*
X1489451Y709815D01*
X1490928Y709203D01*
X1492527D01*
X1494005Y709815D01*
X1495136Y710946D01*
X1495748Y712423D01*
Y714022D01*
X1495136Y715500D01*
X1494005Y716631D01*
X1492527Y717243D01*
D02*
G37*
G36*
X1309647D02*
X1308048D01*
X1306571Y716631D01*
X1305440Y715500D01*
X1304828Y714022D01*
Y712423D01*
X1305440Y710946D01*
X1306571Y709815D01*
X1308048Y709203D01*
X1309647D01*
X1311125Y709815D01*
X1312256Y710946D01*
X1312868Y712423D01*
Y714022D01*
X1312256Y715500D01*
X1311125Y716631D01*
X1309647Y717243D01*
D02*
G37*
G36*
X686292Y711085D02*
Y707628D01*
X689749D01*
X689107Y709177D01*
X687841Y710443D01*
X686292Y711085D01*
D02*
G37*
G36*
X684292D02*
X682743Y710443D01*
X681477Y709177D01*
X680835Y707628D01*
X684292D01*
Y711085D01*
D02*
G37*
G36*
X1381039Y712640D02*
X1379440D01*
X1377962Y712028D01*
X1376831Y710897D01*
X1376219Y709420D01*
Y707820D01*
X1376831Y706343D01*
X1377962Y705212D01*
X1379440Y704600D01*
X1381039D01*
X1382516Y705212D01*
X1383647Y706343D01*
X1384259Y707820D01*
Y709420D01*
X1383647Y710897D01*
X1382516Y712028D01*
X1381039Y712640D01*
D02*
G37*
G36*
X1198159D02*
X1196560D01*
X1195082Y712028D01*
X1193951Y710897D01*
X1193339Y709420D01*
Y707820D01*
X1193951Y706343D01*
X1195082Y705212D01*
X1196560Y704600D01*
X1198159D01*
X1199636Y705212D01*
X1200767Y706343D01*
X1201379Y707820D01*
Y709420D01*
X1200767Y710897D01*
X1199636Y712028D01*
X1198159Y712640D01*
D02*
G37*
G36*
X714412Y710648D02*
X712812D01*
X711335Y710036D01*
X710204Y708905D01*
X709592Y707428D01*
Y705828D01*
X710204Y704351D01*
X711335Y703220D01*
X712812Y702608D01*
X714412D01*
X715889Y703220D01*
X717020Y704351D01*
X717632Y705828D01*
Y707428D01*
X717020Y708905D01*
X715889Y710036D01*
X714412Y710648D01*
D02*
G37*
G36*
X689749Y705628D02*
X686292D01*
Y702171D01*
X687841Y702813D01*
X689107Y704079D01*
X689749Y705628D01*
D02*
G37*
G36*
X684292D02*
X680835D01*
X681477Y704079D01*
X682743Y702813D01*
X684292Y702171D01*
Y705628D01*
D02*
G37*
G36*
X1583208Y709305D02*
X1581609D01*
X1580132Y708693D01*
X1579001Y707562D01*
X1578389Y706085D01*
Y704485D01*
X1579001Y703008D01*
X1580132Y701877D01*
X1581609Y701265D01*
X1583208D01*
X1584686Y701877D01*
X1585817Y703008D01*
X1586429Y704485D01*
Y706085D01*
X1585817Y707562D01*
X1584686Y708693D01*
X1583208Y709305D01*
D02*
G37*
G36*
X1736788Y707682D02*
X1735189D01*
X1733711Y707069D01*
X1732580Y705939D01*
X1731968Y704461D01*
Y702862D01*
X1732580Y701384D01*
X1733711Y700254D01*
X1735189Y699641D01*
X1736788D01*
X1738266Y700254D01*
X1739396Y701384D01*
X1740008Y702862D01*
Y704461D01*
X1739396Y705939D01*
X1738266Y707069D01*
X1736788Y707682D01*
D02*
G37*
G36*
X602166Y713668D02*
X599738D01*
X597393Y713040D01*
X595291Y711826D01*
X593574Y710109D01*
X592360Y708007D01*
X591732Y705662D01*
Y703234D01*
X592360Y700889D01*
X593574Y698787D01*
X595291Y697070D01*
X597393Y695856D01*
X599738Y695228D01*
X602166D01*
X604511Y695856D01*
X606613Y697070D01*
X608330Y698787D01*
X609544Y700889D01*
X610172Y703234D01*
Y705662D01*
X609544Y708007D01*
X608330Y710109D01*
X606613Y711826D01*
X604511Y713040D01*
X602166Y713668D01*
D02*
G37*
G36*
X1526486Y702326D02*
X1524886D01*
X1523409Y701714D01*
X1522278Y700583D01*
X1521666Y699105D01*
Y697506D01*
X1522278Y696029D01*
X1523409Y694898D01*
X1524886Y694286D01*
X1526486D01*
X1527963Y694898D01*
X1529094Y696029D01*
X1529706Y697506D01*
Y699105D01*
X1529094Y700583D01*
X1527963Y701714D01*
X1526486Y702326D01*
D02*
G37*
G36*
X1343606D02*
X1342007D01*
X1340529Y701714D01*
X1339398Y700583D01*
X1338786Y699105D01*
Y697506D01*
X1339398Y696029D01*
X1340529Y694898D01*
X1342007Y694286D01*
X1343606D01*
X1345083Y694898D01*
X1346214Y696029D01*
X1346826Y697506D01*
Y699105D01*
X1346214Y700583D01*
X1345083Y701714D01*
X1343606Y702326D01*
D02*
G37*
G36*
X1445570Y701566D02*
X1443971D01*
X1442493Y700954D01*
X1441362Y699823D01*
X1440750Y698346D01*
Y696747D01*
X1441362Y695269D01*
X1442493Y694138D01*
X1443971Y693526D01*
X1445570D01*
X1447047Y694138D01*
X1448178Y695269D01*
X1448790Y696747D01*
Y698346D01*
X1448178Y699823D01*
X1447047Y700954D01*
X1445570Y701566D01*
D02*
G37*
G36*
X1871914Y694994D02*
X1870315D01*
X1868837Y694382D01*
X1867706Y693251D01*
X1867094Y691774D01*
Y690175D01*
X1867706Y688697D01*
X1868837Y687566D01*
X1870315Y686954D01*
X1871914D01*
X1873392Y687566D01*
X1874522Y688697D01*
X1875134Y690175D01*
Y691774D01*
X1874522Y693251D01*
X1873392Y694382D01*
X1871914Y694994D01*
D02*
G37*
G36*
X1846618Y694900D02*
X1845018D01*
X1843541Y694288D01*
X1842410Y693157D01*
X1841798Y691680D01*
Y690080D01*
X1842410Y688603D01*
X1843541Y687472D01*
X1845018Y686860D01*
X1846618D01*
X1848095Y687472D01*
X1849226Y688603D01*
X1849838Y690080D01*
Y691680D01*
X1849226Y693157D01*
X1848095Y694288D01*
X1846618Y694900D01*
D02*
G37*
G36*
X928931Y694395D02*
X927332D01*
X925854Y693783D01*
X924724Y692653D01*
X924111Y691175D01*
Y689576D01*
X924724Y688098D01*
X925854Y686967D01*
X927332Y686355D01*
X928931D01*
X930409Y686967D01*
X931540Y688098D01*
X932151Y689576D01*
Y691175D01*
X931540Y692653D01*
X930409Y693783D01*
X928931Y694395D01*
D02*
G37*
G36*
X1059836Y698061D02*
X1058079D01*
X1056383Y697607D01*
X1054862Y696729D01*
X1053620Y695487D01*
X1052742Y693966D01*
X1052288Y692270D01*
Y690513D01*
X1052742Y688817D01*
X1053620Y687296D01*
X1054862Y686054D01*
X1056383Y685176D01*
X1058079Y684721D01*
X1059836D01*
X1061532Y685176D01*
X1063053Y686054D01*
X1064295Y687296D01*
X1065173Y688817D01*
X1065628Y690513D01*
Y692270D01*
X1065173Y693966D01*
X1064295Y695487D01*
X1063053Y696729D01*
X1061532Y697607D01*
X1059836Y698061D01*
D02*
G37*
G36*
X1035436D02*
X1033679D01*
X1031983Y697607D01*
X1030462Y696729D01*
X1029220Y695487D01*
X1028342Y693966D01*
X1027887Y692270D01*
Y690513D01*
X1028342Y688817D01*
X1029220Y687296D01*
X1030462Y686054D01*
X1031983Y685176D01*
X1033679Y684721D01*
X1035436D01*
X1037132Y685176D01*
X1038653Y686054D01*
X1039895Y687296D01*
X1040773Y688817D01*
X1041227Y690513D01*
Y692270D01*
X1040773Y693966D01*
X1039895Y695487D01*
X1038653Y696729D01*
X1037132Y697607D01*
X1035436Y698061D01*
D02*
G37*
G36*
X1011036D02*
X1009279D01*
X1007583Y697607D01*
X1006062Y696729D01*
X1004820Y695487D01*
X1003942Y693966D01*
X1003487Y692270D01*
Y690513D01*
X1003942Y688817D01*
X1004820Y687296D01*
X1006062Y686054D01*
X1007583Y685176D01*
X1009279Y684721D01*
X1011036D01*
X1012732Y685176D01*
X1014253Y686054D01*
X1015495Y687296D01*
X1016373Y688817D01*
X1016827Y690513D01*
Y692270D01*
X1016373Y693966D01*
X1015495Y695487D01*
X1014253Y696729D01*
X1012732Y697607D01*
X1011036Y698061D01*
D02*
G37*
G36*
X1581696Y692106D02*
X1580096D01*
X1578619Y691494D01*
X1577488Y690363D01*
X1576876Y688886D01*
Y687286D01*
X1577488Y685809D01*
X1578619Y684678D01*
X1580096Y684066D01*
X1581696D01*
X1583173Y684678D01*
X1584304Y685809D01*
X1584916Y687286D01*
Y688886D01*
X1584304Y690363D01*
X1583173Y691494D01*
X1581696Y692106D01*
D02*
G37*
G36*
X1261656D02*
X1260056D01*
X1258579Y691494D01*
X1257448Y690363D01*
X1256836Y688886D01*
Y687286D01*
X1257448Y685809D01*
X1258579Y684678D01*
X1260056Y684066D01*
X1261656D01*
X1263133Y684678D01*
X1264264Y685809D01*
X1264876Y687286D01*
Y688886D01*
X1264264Y690363D01*
X1263133Y691494D01*
X1261656Y692106D01*
D02*
G37*
G36*
X1904022Y690582D02*
X1902422D01*
X1900945Y689970D01*
X1899814Y688839D01*
X1899202Y687362D01*
Y685762D01*
X1899814Y684285D01*
X1900945Y683154D01*
X1902422Y682542D01*
X1904022D01*
X1905499Y683154D01*
X1906630Y684285D01*
X1907242Y685762D01*
Y687362D01*
X1906630Y688839D01*
X1905499Y689970D01*
X1904022Y690582D01*
D02*
G37*
G36*
X661072Y690328D02*
X659472D01*
X657995Y689716D01*
X656864Y688585D01*
X656252Y687108D01*
Y685508D01*
X656864Y684031D01*
X657995Y682900D01*
X659472Y682288D01*
X661072D01*
X662549Y682900D01*
X663680Y684031D01*
X664292Y685508D01*
Y687108D01*
X663680Y688585D01*
X662549Y689716D01*
X661072Y690328D01*
D02*
G37*
G36*
X638212D02*
X636612D01*
X635135Y689716D01*
X634004Y688585D01*
X633392Y687108D01*
Y685508D01*
X634004Y684031D01*
X635135Y682900D01*
X636612Y682288D01*
X638212D01*
X639689Y682900D01*
X640820Y684031D01*
X641432Y685508D01*
Y687108D01*
X640820Y688585D01*
X639689Y689716D01*
X638212Y690328D01*
D02*
G37*
G36*
X1497876Y687026D02*
X1496276D01*
X1494799Y686414D01*
X1493668Y685283D01*
X1493056Y683806D01*
Y682206D01*
X1493668Y680729D01*
X1494799Y679598D01*
X1496276Y678986D01*
X1497876D01*
X1499353Y679598D01*
X1500484Y680729D01*
X1501096Y682206D01*
Y683806D01*
X1500484Y685283D01*
X1499353Y686414D01*
X1497876Y687026D01*
D02*
G37*
G36*
X1314996D02*
X1313396D01*
X1311919Y686414D01*
X1310788Y685283D01*
X1310176Y683806D01*
Y682206D01*
X1310788Y680729D01*
X1311919Y679598D01*
X1313396Y678986D01*
X1314996D01*
X1316473Y679598D01*
X1317604Y680729D01*
X1318216Y682206D01*
Y683806D01*
X1317604Y685283D01*
X1316473Y686414D01*
X1314996Y687026D01*
D02*
G37*
G36*
X1769656Y684486D02*
X1768056D01*
X1766579Y683874D01*
X1765448Y682743D01*
X1764836Y681266D01*
Y679666D01*
X1765448Y678189D01*
X1766579Y677058D01*
X1768056Y676446D01*
X1769656D01*
X1771133Y677058D01*
X1772264Y678189D01*
X1772876Y679666D01*
Y681266D01*
X1772264Y682743D01*
X1771133Y683874D01*
X1769656Y684486D01*
D02*
G37*
G36*
X907087Y679155D02*
X905488D01*
X904010Y678543D01*
X902879Y677412D01*
X902268Y675935D01*
Y674336D01*
X902879Y672858D01*
X904010Y671727D01*
X905488Y671115D01*
X907087D01*
X908565Y671727D01*
X909696Y672858D01*
X910307Y674336D01*
Y675935D01*
X909696Y677412D01*
X908565Y678543D01*
X907087Y679155D01*
D02*
G37*
G36*
X1421876Y669682D02*
Y666226D01*
X1425332D01*
X1424691Y667775D01*
X1423425Y669041D01*
X1421876Y669682D01*
D02*
G37*
G36*
X1419876D02*
X1418327Y669041D01*
X1417061Y667775D01*
X1416420Y666226D01*
X1419876D01*
Y669682D01*
D02*
G37*
G36*
X1108873Y669695D02*
X1107273D01*
X1105796Y669083D01*
X1104665Y667952D01*
X1104053Y666475D01*
Y664876D01*
X1104665Y663398D01*
X1105796Y662267D01*
X1107273Y661655D01*
X1108873D01*
X1110350Y662267D01*
X1111481Y663398D01*
X1112093Y664876D01*
Y666475D01*
X1111481Y667952D01*
X1110350Y669083D01*
X1108873Y669695D01*
D02*
G37*
G36*
X1584236Y669246D02*
X1582636D01*
X1581159Y668634D01*
X1580028Y667503D01*
X1579416Y666026D01*
Y664426D01*
X1580028Y662949D01*
X1581159Y661818D01*
X1582636Y661206D01*
X1584236D01*
X1585713Y661818D01*
X1586844Y662949D01*
X1587456Y664426D01*
Y666026D01*
X1586844Y667503D01*
X1585713Y668634D01*
X1584236Y669246D01*
D02*
G37*
G36*
X1472476D02*
X1470876D01*
X1469399Y668634D01*
X1468268Y667503D01*
X1467656Y666026D01*
Y664426D01*
X1468268Y662949D01*
X1469399Y661818D01*
X1470876Y661206D01*
X1472476D01*
X1473953Y661818D01*
X1475084Y662949D01*
X1475696Y664426D01*
Y666026D01*
X1475084Y667503D01*
X1473953Y668634D01*
X1472476Y669246D01*
D02*
G37*
G36*
X1236456Y664603D02*
Y661146D01*
X1239912D01*
X1239271Y662695D01*
X1238005Y663961D01*
X1236456Y664603D01*
D02*
G37*
G36*
X1234456D02*
X1232907Y663961D01*
X1231641Y662695D01*
X1231000Y661146D01*
X1234456D01*
Y664603D01*
D02*
G37*
G36*
X1425332Y664226D02*
X1421876D01*
Y660770D01*
X1423425Y661411D01*
X1424691Y662677D01*
X1425332Y664226D01*
D02*
G37*
G36*
X1419876D02*
X1416420D01*
X1417061Y662677D01*
X1418327Y661411D01*
X1419876Y660770D01*
Y664226D01*
D02*
G37*
G36*
X1287056Y666706D02*
X1285456D01*
X1283979Y666094D01*
X1282848Y664963D01*
X1282236Y663486D01*
Y661886D01*
X1282848Y660409D01*
X1283979Y659278D01*
X1285456Y658666D01*
X1287056D01*
X1288533Y659278D01*
X1289664Y660409D01*
X1290276Y661886D01*
Y663486D01*
X1289664Y664963D01*
X1288533Y666094D01*
X1287056Y666706D01*
D02*
G37*
G36*
X1239912Y659146D02*
X1236456D01*
Y655689D01*
X1238005Y656331D01*
X1239271Y657597D01*
X1239912Y659146D01*
D02*
G37*
G36*
X1234456D02*
X1231000D01*
X1231641Y657597D01*
X1232907Y656331D01*
X1234456Y655689D01*
Y659146D01*
D02*
G37*
G36*
X1347762Y661118D02*
X1346162D01*
X1344685Y660506D01*
X1343554Y659375D01*
X1342942Y657898D01*
Y656298D01*
X1343554Y654821D01*
X1344685Y653690D01*
X1346162Y653078D01*
X1347762D01*
X1349239Y653690D01*
X1350370Y654821D01*
X1350982Y656298D01*
Y657898D01*
X1350370Y659375D01*
X1349239Y660506D01*
X1347762Y661118D01*
D02*
G37*
G36*
X1753402Y653074D02*
X1751803D01*
X1750325Y652462D01*
X1749195Y651331D01*
X1748583Y649854D01*
Y648254D01*
X1749195Y646777D01*
X1750325Y645646D01*
X1751803Y645034D01*
X1753402D01*
X1754880Y645646D01*
X1756011Y646777D01*
X1756623Y648254D01*
Y649854D01*
X1756011Y651331D01*
X1754880Y652462D01*
X1753402Y653074D01*
D02*
G37*
G36*
X1447076Y646386D02*
X1445476D01*
X1443999Y645774D01*
X1442868Y644643D01*
X1442256Y643166D01*
Y641566D01*
X1442868Y640089D01*
X1443999Y638958D01*
X1445476Y638346D01*
X1447076D01*
X1448553Y638958D01*
X1449684Y640089D01*
X1450296Y641566D01*
Y643166D01*
X1449684Y644643D01*
X1448553Y645774D01*
X1447076Y646386D01*
D02*
G37*
G36*
X1734638Y645434D02*
X1733039D01*
X1731561Y644822D01*
X1730430Y643691D01*
X1729819Y642214D01*
Y640615D01*
X1730430Y639137D01*
X1731561Y638006D01*
X1733039Y637394D01*
X1734638D01*
X1736116Y638006D01*
X1737247Y639137D01*
X1737859Y640615D01*
Y642214D01*
X1737247Y643691D01*
X1736116Y644822D01*
X1734638Y645434D01*
D02*
G37*
G36*
X1261638Y644016D02*
X1260038D01*
X1258561Y643404D01*
X1257430Y642273D01*
X1256818Y640796D01*
Y639196D01*
X1257430Y637719D01*
X1258561Y636588D01*
X1260038Y635976D01*
X1261638D01*
X1263115Y636588D01*
X1264246Y637719D01*
X1264858Y639196D01*
Y640796D01*
X1264246Y642273D01*
X1263115Y643404D01*
X1261638Y644016D01*
D02*
G37*
G36*
X1594396Y643846D02*
X1592796D01*
X1591319Y643234D01*
X1590188Y642103D01*
X1589576Y640626D01*
Y639026D01*
X1590188Y637549D01*
X1591319Y636418D01*
X1592796Y635806D01*
X1594396D01*
X1595873Y636418D01*
X1597004Y637549D01*
X1597616Y639026D01*
Y640626D01*
X1597004Y642103D01*
X1595873Y643234D01*
X1594396Y643846D01*
D02*
G37*
G36*
X1447280Y629676D02*
X1445271D01*
X1443331Y629156D01*
X1441591Y628152D01*
X1440170Y626731D01*
X1439166Y624991D01*
X1438646Y623050D01*
Y621041D01*
X1439166Y619101D01*
X1440170Y617361D01*
X1441591Y615941D01*
X1443331Y614936D01*
X1445271Y614416D01*
X1447280D01*
X1449221Y614936D01*
X1450961Y615941D01*
X1452381Y617361D01*
X1453386Y619101D01*
X1453906Y621041D01*
Y623050D01*
X1453386Y624991D01*
X1452381Y626731D01*
X1450961Y628152D01*
X1449221Y629156D01*
X1447280Y629676D01*
D02*
G37*
G36*
X1264654Y628152D02*
X1262645D01*
X1260705Y627632D01*
X1258965Y626628D01*
X1257544Y625207D01*
X1256540Y623467D01*
X1256020Y621526D01*
Y619518D01*
X1256540Y617577D01*
X1257544Y615837D01*
X1258965Y614417D01*
X1260705Y613412D01*
X1262645Y612892D01*
X1264654D01*
X1266595Y613412D01*
X1268335Y614417D01*
X1269755Y615837D01*
X1270760Y617577D01*
X1271280Y619518D01*
Y621526D01*
X1270760Y623467D01*
X1269755Y625207D01*
X1268335Y626628D01*
X1266595Y627632D01*
X1264654Y628152D01*
D02*
G37*
G36*
X1752130Y616668D02*
X1750530D01*
X1749053Y616056D01*
X1747922Y614925D01*
X1747310Y613448D01*
Y611848D01*
X1747922Y610371D01*
X1749053Y609240D01*
X1750530Y608628D01*
X1752130D01*
X1753607Y609240D01*
X1754738Y610371D01*
X1755350Y611848D01*
Y613448D01*
X1754738Y614925D01*
X1753607Y616056D01*
X1752130Y616668D01*
D02*
G37*
G36*
X1680956Y601102D02*
Y597646D01*
X1684413D01*
X1683771Y599195D01*
X1682505Y600461D01*
X1680956Y601102D01*
D02*
G37*
G36*
X1678956D02*
X1677407Y600461D01*
X1676141Y599195D01*
X1675500Y597646D01*
X1678956D01*
Y601102D01*
D02*
G37*
G36*
X1684413Y595646D02*
X1680956D01*
Y592189D01*
X1682505Y592831D01*
X1683771Y594097D01*
X1684413Y595646D01*
D02*
G37*
G36*
X1678956D02*
X1675500D01*
X1676141Y594097D01*
X1677407Y592831D01*
X1678956Y592189D01*
Y595646D01*
D02*
G37*
G36*
X1642856Y593483D02*
Y590026D01*
X1646313D01*
X1645671Y591575D01*
X1644405Y592841D01*
X1642856Y593483D01*
D02*
G37*
G36*
X1640856D02*
X1639307Y592841D01*
X1638041Y591575D01*
X1637399Y590026D01*
X1640856D01*
Y593483D01*
D02*
G37*
G36*
X1658377Y597862D02*
X1656778D01*
X1655301Y597250D01*
X1654170Y596119D01*
X1653558Y594641D01*
Y593042D01*
X1654170Y591564D01*
X1655301Y590434D01*
X1656778Y589822D01*
X1658377D01*
X1659855Y590434D01*
X1660986Y591564D01*
X1661598Y593042D01*
Y594641D01*
X1660986Y596119D01*
X1659855Y597250D01*
X1658377Y597862D01*
D02*
G37*
G36*
X1472681Y604276D02*
X1470672D01*
X1468731Y603756D01*
X1466991Y602752D01*
X1465571Y601331D01*
X1464566Y599591D01*
X1464046Y597650D01*
Y595642D01*
X1464566Y593701D01*
X1465571Y591961D01*
X1466991Y590541D01*
X1468731Y589536D01*
X1470672Y589016D01*
X1472681D01*
X1474621Y589536D01*
X1476361Y590541D01*
X1477782Y591961D01*
X1478786Y593701D01*
X1479306Y595642D01*
Y597650D01*
X1478786Y599591D01*
X1477782Y601331D01*
X1476361Y602752D01*
X1474621Y603756D01*
X1472681Y604276D01*
D02*
G37*
G36*
X1421880D02*
X1419872D01*
X1417931Y603756D01*
X1416191Y602752D01*
X1414771Y601331D01*
X1413766Y599591D01*
X1413246Y597650D01*
Y595642D01*
X1413766Y593701D01*
X1414771Y591961D01*
X1416191Y590541D01*
X1417931Y589536D01*
X1419872Y589016D01*
X1421880D01*
X1423821Y589536D01*
X1425561Y590541D01*
X1426982Y591961D01*
X1427986Y593701D01*
X1428506Y595642D01*
Y597650D01*
X1427986Y599591D01*
X1426982Y601331D01*
X1425561Y602752D01*
X1423821Y603756D01*
X1421880Y604276D01*
D02*
G37*
G36*
X1290054Y602752D02*
X1288046D01*
X1286105Y602232D01*
X1284365Y601227D01*
X1282944Y599807D01*
X1281940Y598067D01*
X1281420Y596127D01*
Y594118D01*
X1281940Y592177D01*
X1282944Y590437D01*
X1284365Y589016D01*
X1286105Y588012D01*
X1288046Y587492D01*
X1290054D01*
X1291995Y588012D01*
X1293735Y589016D01*
X1295155Y590437D01*
X1296160Y592177D01*
X1296680Y594118D01*
Y596127D01*
X1296160Y598067D01*
X1295155Y599807D01*
X1293735Y601227D01*
X1291995Y602232D01*
X1290054Y602752D01*
D02*
G37*
G36*
X1239255D02*
X1237245D01*
X1235305Y602232D01*
X1233565Y601227D01*
X1232144Y599807D01*
X1231140Y598067D01*
X1230620Y596127D01*
Y594118D01*
X1231140Y592177D01*
X1232144Y590437D01*
X1233565Y589016D01*
X1235305Y588012D01*
X1237245Y587492D01*
X1239255D01*
X1241195Y588012D01*
X1242935Y589016D01*
X1244355Y590437D01*
X1245360Y592177D01*
X1245880Y594118D01*
Y596127D01*
X1245360Y598067D01*
X1244355Y599807D01*
X1242935Y601227D01*
X1241195Y602232D01*
X1239255Y602752D01*
D02*
G37*
G36*
X1548676Y593046D02*
X1547076D01*
X1545599Y592434D01*
X1544468Y591303D01*
X1543856Y589826D01*
Y588226D01*
X1544468Y586749D01*
X1545599Y585618D01*
X1547076Y585006D01*
X1548676D01*
X1550153Y585618D01*
X1551284Y586749D01*
X1551896Y588226D01*
Y589826D01*
X1551284Y591303D01*
X1550153Y592434D01*
X1548676Y593046D01*
D02*
G37*
G36*
X1646313Y588026D02*
X1642856D01*
Y584570D01*
X1644405Y585211D01*
X1645671Y586477D01*
X1646313Y588026D01*
D02*
G37*
G36*
X1640856D02*
X1637399D01*
X1638041Y586477D01*
X1639307Y585211D01*
X1640856Y584570D01*
Y588026D01*
D02*
G37*
G36*
X1180118Y588642D02*
X1177874D01*
X1175707Y588061D01*
X1173765Y586940D01*
X1172178Y585353D01*
X1171057Y583410D01*
X1170476Y581244D01*
Y579000D01*
X1171057Y576833D01*
X1172178Y574891D01*
X1173765Y573304D01*
X1175707Y572183D01*
X1177874Y571602D01*
X1180118D01*
X1182285Y572183D01*
X1184227Y573304D01*
X1185814Y574891D01*
X1186935Y576833D01*
X1187516Y579000D01*
Y581244D01*
X1186935Y583410D01*
X1185814Y585353D01*
X1184227Y586940D01*
X1182285Y588061D01*
X1180118Y588642D01*
D02*
G37*
G36*
X1693456Y565106D02*
X1691856D01*
X1690379Y564494D01*
X1689248Y563363D01*
X1688636Y561886D01*
Y560286D01*
X1689248Y558809D01*
X1690379Y557678D01*
X1691856Y557066D01*
X1693456D01*
X1694933Y557678D01*
X1696064Y558809D01*
X1696676Y560286D01*
Y561886D01*
X1696064Y563363D01*
X1694933Y564494D01*
X1693456Y565106D01*
D02*
G37*
G36*
X1218683Y499632D02*
Y496176D01*
X1222139D01*
X1221498Y497725D01*
X1220232Y498991D01*
X1218683Y499632D01*
D02*
G37*
G36*
X1216683D02*
X1215134Y498991D01*
X1213868Y497725D01*
X1213226Y496176D01*
X1216683D01*
Y499632D01*
D02*
G37*
G36*
X1195823D02*
Y496176D01*
X1199279D01*
X1198638Y497725D01*
X1197372Y498991D01*
X1195823Y499632D01*
D02*
G37*
G36*
X1193823D02*
X1192274Y498991D01*
X1191008Y497725D01*
X1190366Y496176D01*
X1193823D01*
Y499632D01*
D02*
G37*
G36*
X1222139Y494176D02*
X1218683D01*
Y490719D01*
X1220232Y491361D01*
X1221498Y492627D01*
X1222139Y494176D01*
D02*
G37*
G36*
X1216683D02*
X1213226D01*
X1213868Y492627D01*
X1215134Y491361D01*
X1216683Y490719D01*
Y494176D01*
D02*
G37*
G36*
X1199279D02*
X1195823D01*
Y490719D01*
X1197372Y491361D01*
X1198638Y492627D01*
X1199279Y494176D01*
D02*
G37*
G36*
X1193823D02*
X1190366D01*
X1191008Y492627D01*
X1192274Y491361D01*
X1193823Y490719D01*
Y494176D01*
D02*
G37*
G36*
X298132Y767056D02*
X290132D01*
X287978Y766628D01*
X286152Y765408D01*
X284932Y763582D01*
X284504Y761428D01*
Y753428D01*
X284932Y751274D01*
X286152Y749448D01*
X287978Y748228D01*
X290132Y747800D01*
X298132D01*
X300286Y748228D01*
X302112Y749448D01*
X303332Y751274D01*
X303760Y753428D01*
Y761428D01*
X303332Y763582D01*
X302112Y765408D01*
X300286Y766628D01*
X298132Y767056D01*
D02*
G37*
G36*
X545172Y758668D02*
X526732D01*
Y740228D01*
X545172D01*
Y758668D01*
D02*
G37*
G36*
X356092Y733944D02*
Y730488D01*
X359548D01*
X358907Y732037D01*
X357641Y733303D01*
X356092Y733944D01*
D02*
G37*
G36*
X354092D02*
X352543Y733303D01*
X351277Y732037D01*
X350635Y730488D01*
X354092D01*
Y733944D01*
D02*
G37*
G36*
X359548Y728488D02*
X356092D01*
Y725032D01*
X357641Y725673D01*
X358907Y726939D01*
X359548Y728488D01*
D02*
G37*
G36*
X354092D02*
X350635D01*
X351277Y726939D01*
X352543Y725673D01*
X354092Y725032D01*
Y728488D01*
D02*
G37*
G36*
X493738Y731549D02*
X492138D01*
X490661Y730937D01*
X489530Y729806D01*
X488918Y728328D01*
Y726729D01*
X489530Y725252D01*
X490661Y724121D01*
X492138Y723509D01*
X493738D01*
X495215Y724121D01*
X496346Y725252D01*
X496958Y726729D01*
Y728328D01*
X496346Y729806D01*
X495215Y730937D01*
X493738Y731549D01*
D02*
G37*
G36*
X295385Y741548D02*
X292879D01*
X290457Y740899D01*
X288287Y739646D01*
X286514Y737873D01*
X285261Y735703D01*
X284612Y733281D01*
Y730775D01*
X285261Y728353D01*
X286514Y726183D01*
X288287Y724410D01*
X290457Y723157D01*
X292879Y722508D01*
X295385D01*
X297807Y723157D01*
X299977Y724410D01*
X301750Y726183D01*
X303003Y728353D01*
X303652Y730775D01*
Y733281D01*
X303003Y735703D01*
X301750Y737873D01*
X299977Y739646D01*
X297807Y740899D01*
X295385Y741548D01*
D02*
G37*
G36*
X355892Y713188D02*
X354292D01*
X352815Y712576D01*
X351684Y711445D01*
X351072Y709968D01*
Y708368D01*
X351684Y706891D01*
X352815Y705760D01*
X354292Y705148D01*
X355892D01*
X357369Y705760D01*
X358500Y706891D01*
X359112Y708368D01*
Y709968D01*
X358500Y711445D01*
X357369Y712576D01*
X355892Y713188D01*
D02*
G37*
G36*
X295385Y716148D02*
X292879D01*
X290457Y715499D01*
X288287Y714246D01*
X286514Y712473D01*
X285261Y710303D01*
X284612Y707881D01*
Y705375D01*
X285261Y702953D01*
X286514Y700783D01*
X288287Y699010D01*
X290457Y697757D01*
X292879Y697108D01*
X295385D01*
X297807Y697757D01*
X299977Y699010D01*
X301750Y700783D01*
X303003Y702953D01*
X303652Y705375D01*
Y707881D01*
X303003Y710303D01*
X301750Y712473D01*
X299977Y714246D01*
X297807Y715499D01*
X295385Y716148D01*
D02*
G37*
G36*
X537166Y713668D02*
X534738D01*
X532393Y713040D01*
X530291Y711826D01*
X528574Y710109D01*
X527360Y708007D01*
X526732Y705662D01*
Y703234D01*
X527360Y700889D01*
X528574Y698787D01*
X530291Y697070D01*
X532393Y695856D01*
X534738Y695228D01*
X537166D01*
X539511Y695856D01*
X541613Y697070D01*
X543330Y698787D01*
X544544Y700889D01*
X545172Y703234D01*
Y705662D01*
X544544Y708007D01*
X543330Y710109D01*
X541613Y711826D01*
X539511Y713040D01*
X537166Y713668D01*
D02*
G37*
G36*
X493252Y690764D02*
Y687308D01*
X496708D01*
X496067Y688857D01*
X494801Y690123D01*
X493252Y690764D01*
D02*
G37*
G36*
X491252D02*
X489703Y690123D01*
X488437Y688857D01*
X487795Y687308D01*
X491252D01*
Y690764D01*
D02*
G37*
G36*
X496708Y685308D02*
X493252D01*
Y681852D01*
X494801Y682493D01*
X496067Y683759D01*
X496708Y685308D01*
D02*
G37*
G36*
X491252D02*
X487795D01*
X488437Y683759D01*
X489703Y682493D01*
X491252Y681852D01*
Y685308D01*
D02*
G37*
G36*
X295385Y690748D02*
X292879D01*
X290457Y690099D01*
X288287Y688846D01*
X286514Y687073D01*
X285261Y684903D01*
X284612Y682481D01*
Y679975D01*
X285261Y677553D01*
X286514Y675383D01*
X288287Y673610D01*
X290457Y672357D01*
X292879Y671708D01*
X295385D01*
X297807Y672357D01*
X299977Y673610D01*
X301750Y675383D01*
X303003Y677553D01*
X303652Y679975D01*
Y682481D01*
X303003Y684903D01*
X301750Y687073D01*
X299977Y688846D01*
X297807Y690099D01*
X295385Y690748D01*
D02*
G37*
G36*
X462572Y667468D02*
X460972D01*
X459495Y666856D01*
X458364Y665725D01*
X457752Y664248D01*
X457649Y664187D01*
X456228Y663613D01*
X455005Y664119D01*
X453406D01*
X451928Y663507D01*
X450798Y662376D01*
X450186Y660899D01*
Y659299D01*
X450798Y657822D01*
X451928Y656691D01*
X453406Y656079D01*
X455005D01*
X456483Y656691D01*
X457614Y657822D01*
X458226Y659299D01*
X458329Y659360D01*
X459750Y659934D01*
X460972Y659428D01*
X462572D01*
X464049Y660040D01*
X465180Y661171D01*
X465792Y662648D01*
Y664248D01*
X465180Y665725D01*
X464049Y666856D01*
X462572Y667468D01*
D02*
G37*
G36*
X393992Y664928D02*
X392392D01*
X390915Y664316D01*
X389784Y663185D01*
X389172Y661708D01*
Y660108D01*
X389784Y658631D01*
X390915Y657500D01*
X392392Y656888D01*
X393992D01*
X395469Y657500D01*
X396600Y658631D01*
X397212Y660108D01*
Y661708D01*
X396600Y663185D01*
X395469Y664316D01*
X393992Y664928D01*
D02*
G37*
G36*
X295385Y665348D02*
X292879D01*
X290457Y664699D01*
X288287Y663446D01*
X286514Y661673D01*
X285261Y659503D01*
X284612Y657081D01*
Y654575D01*
X285261Y652153D01*
X286514Y649983D01*
X288287Y648210D01*
X290457Y646957D01*
X292879Y646308D01*
X295385D01*
X297807Y646957D01*
X299977Y648210D01*
X301750Y649983D01*
X303003Y652153D01*
X303652Y654575D01*
Y657081D01*
X303003Y659503D01*
X301750Y661673D01*
X299977Y663446D01*
X297807Y664699D01*
X295385Y665348D01*
D02*
G37*
G36*
X838708Y646572D02*
Y643115D01*
X842164D01*
X841522Y644664D01*
X840257Y645930D01*
X838708Y646572D01*
D02*
G37*
G36*
X836708D02*
X835158Y645930D01*
X833893Y644664D01*
X833251Y643115D01*
X836708D01*
Y646572D01*
D02*
G37*
G36*
X762292Y647148D02*
X760692D01*
X759215Y646536D01*
X758084Y645405D01*
X757472Y643928D01*
Y642328D01*
X758084Y640851D01*
X759215Y639720D01*
X760692Y639108D01*
X762292D01*
X763769Y639720D01*
X764900Y640851D01*
X765512Y642328D01*
Y643928D01*
X764900Y645405D01*
X763769Y646536D01*
X762292Y647148D01*
D02*
G37*
G36*
X842164Y641115D02*
X838708D01*
Y637659D01*
X840257Y638301D01*
X841522Y639566D01*
X842164Y641115D01*
D02*
G37*
G36*
X836708D02*
X833251D01*
X833893Y639566D01*
X835158Y638301D01*
X836708Y637659D01*
Y641115D01*
D02*
G37*
G36*
X581952Y642068D02*
X580352D01*
X578875Y641456D01*
X577744Y640325D01*
X577132Y638848D01*
Y637248D01*
X577744Y635771D01*
X578875Y634640D01*
X580352Y634028D01*
X581952D01*
X583429Y634640D01*
X584560Y635771D01*
X585172Y637248D01*
Y638848D01*
X584560Y640325D01*
X583429Y641456D01*
X581952Y642068D01*
D02*
G37*
G36*
X295448Y640428D02*
X295132D01*
Y631428D01*
X304132D01*
Y631744D01*
X303451Y634288D01*
X302134Y636568D01*
X300272Y638430D01*
X297992Y639747D01*
X295448Y640428D01*
D02*
G37*
G36*
X293132D02*
X292815D01*
X290272Y639747D01*
X287992Y638430D01*
X286130Y636568D01*
X284813Y634288D01*
X284132Y631744D01*
Y631428D01*
X293132D01*
Y640428D01*
D02*
G37*
G36*
X510832Y634448D02*
X509232D01*
X507755Y633836D01*
X506624Y632705D01*
X506012Y631228D01*
Y629628D01*
X506624Y628151D01*
X507755Y627020D01*
X509232Y626408D01*
X510832D01*
X512309Y627020D01*
X513440Y628151D01*
X514052Y629628D01*
Y631228D01*
X513440Y632705D01*
X512309Y633836D01*
X510832Y634448D01*
D02*
G37*
G36*
X343352D02*
X341752D01*
X340275Y633836D01*
X339144Y632705D01*
X338532Y631228D01*
Y629628D01*
X339144Y628151D01*
X340275Y627020D01*
X341752Y626408D01*
X343352D01*
X344829Y627020D01*
X345960Y628151D01*
X346572Y629628D01*
Y631228D01*
X345960Y632705D01*
X344829Y633836D01*
X343352Y634448D01*
D02*
G37*
G36*
X304132Y629428D02*
X295132D01*
Y620428D01*
X295448D01*
X297992Y621110D01*
X300272Y622426D01*
X302134Y624288D01*
X303451Y626568D01*
X304132Y629112D01*
Y629428D01*
D02*
G37*
G36*
X293132D02*
X284132D01*
Y629112D01*
X284813Y626568D01*
X286130Y624288D01*
X287992Y622426D01*
X290272Y621110D01*
X292815Y620428D01*
X293132D01*
Y629428D01*
D02*
G37*
G36*
X483272Y619208D02*
X481672D01*
X480195Y618596D01*
X479064Y617465D01*
X478452Y615988D01*
Y614388D01*
X479064Y612911D01*
X480195Y611780D01*
X481672Y611168D01*
X483272D01*
X484749Y611780D01*
X485880Y612911D01*
X486492Y614388D01*
Y615988D01*
X485880Y617465D01*
X484749Y618596D01*
X483272Y619208D01*
D02*
G37*
G36*
X762292Y616668D02*
X760692D01*
X759215Y616056D01*
X758084Y614925D01*
X757472Y613448D01*
Y611848D01*
X758084Y610371D01*
X759215Y609240D01*
X760692Y608628D01*
X762292D01*
X763769Y609240D01*
X764900Y610371D01*
X765512Y611848D01*
Y613448D01*
X764900Y614925D01*
X763769Y616056D01*
X762292Y616668D01*
D02*
G37*
G36*
X475652Y601428D02*
X474052D01*
X472575Y600816D01*
X471444Y599685D01*
X470832Y598208D01*
Y596608D01*
X471444Y595131D01*
X472575Y594000D01*
X474052Y593388D01*
X475652D01*
X477129Y594000D01*
X478260Y595131D01*
X478872Y596608D01*
Y598208D01*
X478260Y599685D01*
X477129Y600816D01*
X475652Y601428D01*
D02*
G37*
G36*
X493252Y596785D02*
Y593328D01*
X496708D01*
X496067Y594877D01*
X494801Y596143D01*
X493252Y596785D01*
D02*
G37*
G36*
X491252D02*
X489703Y596143D01*
X488437Y594877D01*
X487795Y593328D01*
X491252D01*
Y596785D01*
D02*
G37*
G36*
X412152Y596348D02*
X410552D01*
X409075Y595736D01*
X407944Y594605D01*
X407332Y593128D01*
Y591528D01*
X407944Y590051D01*
X409075Y588920D01*
X410552Y588308D01*
X412152D01*
X413629Y588920D01*
X414760Y590051D01*
X415372Y591528D01*
Y593128D01*
X414760Y594605D01*
X413629Y595736D01*
X412152Y596348D01*
D02*
G37*
G36*
X496708Y591328D02*
X493252D01*
Y587872D01*
X494801Y588513D01*
X496067Y589779D01*
X496708Y591328D01*
D02*
G37*
G36*
X491252D02*
X487795D01*
X488437Y589779D01*
X489703Y588513D01*
X491252Y587872D01*
Y591328D01*
D02*
G37*
G36*
X402192Y581544D02*
Y578088D01*
X405648D01*
X405007Y579637D01*
X403741Y580903D01*
X402192Y581544D01*
D02*
G37*
G36*
X400192D02*
X398643Y580903D01*
X397377Y579637D01*
X396735Y578088D01*
X400192D01*
Y581544D01*
D02*
G37*
G36*
X361472Y586068D02*
X359872D01*
X358395Y585456D01*
X357264Y584325D01*
X356652Y582848D01*
Y581248D01*
X357264Y579771D01*
X358395Y578640D01*
X359872Y578028D01*
X361472D01*
X362949Y578640D01*
X364080Y579771D01*
X364692Y581248D01*
Y582848D01*
X364080Y584325D01*
X362949Y585456D01*
X361472Y586068D01*
D02*
G37*
G36*
X554392Y583648D02*
X552792D01*
X551315Y583036D01*
X550184Y581905D01*
X549572Y580428D01*
Y578828D01*
X550184Y577351D01*
X551315Y576220D01*
X552792Y575608D01*
X554392D01*
X555869Y576220D01*
X557000Y577351D01*
X557612Y578828D01*
Y580428D01*
X557000Y581905D01*
X555869Y583036D01*
X554392Y583648D01*
D02*
G37*
G36*
X922820Y581616D02*
X921220D01*
X919743Y581004D01*
X918612Y579873D01*
X918000Y578396D01*
Y576796D01*
X918612Y575319D01*
X919743Y574188D01*
X921220Y573576D01*
X922820D01*
X924297Y574188D01*
X925428Y575319D01*
X926040Y576796D01*
Y578396D01*
X925428Y579873D01*
X924297Y581004D01*
X922820Y581616D01*
D02*
G37*
G36*
X405648Y576088D02*
X402192D01*
Y572631D01*
X403741Y573273D01*
X405007Y574539D01*
X405648Y576088D01*
D02*
G37*
G36*
X400192D02*
X396735D01*
X397377Y574539D01*
X398643Y573273D01*
X400192Y572631D01*
Y576088D01*
D02*
G37*
G36*
X904024Y577552D02*
X902424D01*
X900947Y576940D01*
X899816Y575809D01*
X899204Y574332D01*
Y572732D01*
X899816Y571255D01*
X900947Y570124D01*
X902424Y569512D01*
X904024D01*
X905501Y570124D01*
X906632Y571255D01*
X907244Y572732D01*
Y574332D01*
X906632Y575809D01*
X905501Y576940D01*
X904024Y577552D01*
D02*
G37*
G36*
X874052D02*
X872452D01*
X870975Y576940D01*
X869844Y575809D01*
X869232Y574332D01*
Y572732D01*
X869844Y571255D01*
X870975Y570124D01*
X872452Y569512D01*
X874052D01*
X875529Y570124D01*
X876660Y571255D01*
X877272Y572732D01*
Y574332D01*
X876660Y575809D01*
X875529Y576940D01*
X874052Y577552D01*
D02*
G37*
G36*
X752512Y576028D02*
X750912D01*
X749435Y575416D01*
X748304Y574285D01*
X747692Y572808D01*
Y571208D01*
X748304Y569731D01*
X749435Y568600D01*
X750912Y567988D01*
X752512D01*
X753989Y568600D01*
X755120Y569731D01*
X755732Y571208D01*
Y572808D01*
X755120Y574285D01*
X753989Y575416D01*
X752512Y576028D01*
D02*
G37*
G36*
X569632Y563328D02*
X568032D01*
X566555Y562716D01*
X565424Y561585D01*
X564812Y560108D01*
Y558508D01*
X565424Y557031D01*
X566555Y555900D01*
X568032Y555288D01*
X569632D01*
X571109Y555900D01*
X572240Y557031D01*
X572852Y558508D01*
Y560108D01*
X572240Y561585D01*
X571109Y562716D01*
X569632Y563328D01*
D02*
G37*
G36*
X508292Y558248D02*
X506692D01*
X505215Y557636D01*
X504084Y556505D01*
X503472Y555028D01*
Y553428D01*
X504084Y551951D01*
X505215Y550820D01*
X506692Y550208D01*
X508292D01*
X509769Y550820D01*
X510900Y551951D01*
X511512Y553428D01*
Y555028D01*
X510900Y556505D01*
X509769Y557636D01*
X508292Y558248D01*
D02*
G37*
G36*
X409232D02*
X407632D01*
X406155Y557636D01*
X405024Y556505D01*
X404412Y555028D01*
Y553428D01*
X405024Y551951D01*
X406155Y550820D01*
X407632Y550208D01*
X409232D01*
X410709Y550820D01*
X411840Y551951D01*
X412452Y553428D01*
Y555028D01*
X411840Y556505D01*
X410709Y557636D01*
X409232Y558248D01*
D02*
G37*
G36*
X844280Y553605D02*
Y550148D01*
X847737D01*
X847095Y551697D01*
X845829Y552963D01*
X844280Y553605D01*
D02*
G37*
G36*
X842280D02*
X840731Y552963D01*
X839465Y551697D01*
X838823Y550148D01*
X842280D01*
Y553605D01*
D02*
G37*
G36*
X904868Y553549D02*
Y550093D01*
X908325D01*
X907683Y551642D01*
X906417Y552908D01*
X904868Y553549D01*
D02*
G37*
G36*
X902868D02*
X901319Y552908D01*
X900053Y551642D01*
X899412Y550093D01*
X902868D01*
Y553549D01*
D02*
G37*
G36*
X531152Y553168D02*
X529552D01*
X528075Y552556D01*
X526944Y551425D01*
X526332Y549948D01*
Y548348D01*
X526944Y546871D01*
X528075Y545740D01*
X529552Y545128D01*
X531152D01*
X532629Y545740D01*
X533760Y546871D01*
X534372Y548348D01*
Y549948D01*
X533760Y551425D01*
X532629Y552556D01*
X531152Y553168D01*
D02*
G37*
G36*
X847737Y548148D02*
X844280D01*
Y544692D01*
X845829Y545333D01*
X847095Y546599D01*
X847737Y548148D01*
D02*
G37*
G36*
X842280D02*
X838823D01*
X839465Y546599D01*
X840731Y545333D01*
X842280Y544692D01*
Y548148D01*
D02*
G37*
G36*
X908325Y548093D02*
X904868D01*
Y544636D01*
X906417Y545278D01*
X907683Y546544D01*
X908325Y548093D01*
D02*
G37*
G36*
X902868D02*
X899412D01*
X900053Y546544D01*
X901319Y545278D01*
X902868Y544636D01*
Y548093D01*
D02*
G37*
G36*
X468232Y543445D02*
Y539988D01*
X471688D01*
X471047Y541537D01*
X469781Y542803D01*
X468232Y543445D01*
D02*
G37*
G36*
X466232D02*
X464683Y542803D01*
X463417Y541537D01*
X462775Y539988D01*
X466232D01*
Y543445D01*
D02*
G37*
G36*
X844597Y542745D02*
X842998D01*
X841520Y542133D01*
X840389Y541002D01*
X839777Y539524D01*
Y537925D01*
X840389Y536448D01*
X841520Y535317D01*
X842998Y534705D01*
X844597D01*
X846074Y535317D01*
X847205Y536448D01*
X847817Y537925D01*
Y539524D01*
X847205Y541002D01*
X846074Y542133D01*
X844597Y542745D01*
D02*
G37*
G36*
X471688Y537988D02*
X468232D01*
Y534532D01*
X469781Y535173D01*
X471047Y536439D01*
X471688Y537988D01*
D02*
G37*
G36*
X466232D02*
X462775D01*
X463417Y536439D01*
X464683Y535173D01*
X466232Y534532D01*
Y537988D01*
D02*
G37*
G36*
X428477Y541992D02*
X426878D01*
X425401Y541380D01*
X424270Y540249D01*
X423658Y538772D01*
Y537172D01*
X424270Y535695D01*
X425401Y534564D01*
X426878Y533952D01*
X428477D01*
X429955Y534564D01*
X431086Y535695D01*
X431698Y537172D01*
Y538772D01*
X431086Y540249D01*
X429955Y541380D01*
X428477Y541992D01*
D02*
G37*
G36*
X489215Y536648D02*
Y533192D01*
X492672D01*
X492030Y534741D01*
X490764Y536007D01*
X489215Y536648D01*
D02*
G37*
G36*
X487215D02*
X485666Y536007D01*
X484400Y534741D01*
X483759Y533192D01*
X487215D01*
Y536648D01*
D02*
G37*
G36*
X492672Y531192D02*
X489215D01*
Y527735D01*
X490764Y528377D01*
X492030Y529643D01*
X492672Y531192D01*
D02*
G37*
G36*
X487215D02*
X483759D01*
X484400Y529643D01*
X485666Y528377D01*
X487215Y527735D01*
Y531192D01*
D02*
G37*
G36*
X873586Y518193D02*
X871986D01*
X870509Y517581D01*
X869378Y516450D01*
X868766Y514973D01*
Y513373D01*
X869378Y511896D01*
X870509Y510765D01*
X871986Y510153D01*
X873586D01*
X875063Y510765D01*
X876194Y511896D01*
X876806Y513373D01*
Y514973D01*
X876194Y516450D01*
X875063Y517581D01*
X873586Y518193D01*
D02*
G37*
G36*
X992616Y504582D02*
Y501126D01*
X996072D01*
X995431Y502675D01*
X994165Y503941D01*
X992616Y504582D01*
D02*
G37*
G36*
X990616D02*
X989067Y503941D01*
X987801Y502675D01*
X987160Y501126D01*
X990616D01*
Y504582D01*
D02*
G37*
G36*
X445555Y504004D02*
X443955D01*
X442478Y503392D01*
X441347Y502261D01*
X440735Y500784D01*
Y499184D01*
X441347Y497707D01*
X442478Y496576D01*
X443955Y495964D01*
X445555D01*
X447032Y496576D01*
X448163Y497707D01*
X448775Y499184D01*
Y500784D01*
X448163Y502261D01*
X447032Y503392D01*
X445555Y504004D01*
D02*
G37*
G36*
X996072Y499126D02*
X992616D01*
Y495670D01*
X994165Y496311D01*
X995431Y497577D01*
X996072Y499126D01*
D02*
G37*
G36*
X990616D02*
X987160D01*
X987801Y497577D01*
X989067Y496311D01*
X990616Y495670D01*
Y499126D01*
D02*
G37*
G36*
X708952Y499828D02*
X707352D01*
X705875Y499216D01*
X704744Y498085D01*
X704132Y496608D01*
Y495008D01*
X704744Y493531D01*
X705875Y492400D01*
X707352Y491788D01*
X708952D01*
X710429Y492400D01*
X711560Y493531D01*
X712172Y495008D01*
Y496608D01*
X711560Y498085D01*
X710429Y499216D01*
X708952Y499828D01*
D02*
G37*
G36*
X681012D02*
X679412D01*
X677935Y499216D01*
X676804Y498085D01*
X676192Y496608D01*
Y495008D01*
X676804Y493531D01*
X677935Y492400D01*
X679412Y491788D01*
X681012D01*
X682489Y492400D01*
X683620Y493531D01*
X684232Y495008D01*
Y496608D01*
X683620Y498085D01*
X682489Y499216D01*
X681012Y499828D01*
D02*
G37*
G36*
X655612D02*
X654012D01*
X652535Y499216D01*
X651404Y498085D01*
X650792Y496608D01*
Y495008D01*
X651404Y493531D01*
X652535Y492400D01*
X654012Y491788D01*
X655612D01*
X657089Y492400D01*
X658220Y493531D01*
X658832Y495008D01*
Y496608D01*
X658220Y498085D01*
X657089Y499216D01*
X655612Y499828D01*
D02*
G37*
G36*
X627672D02*
X626072D01*
X624595Y499216D01*
X623464Y498085D01*
X622852Y496608D01*
Y495008D01*
X623464Y493531D01*
X624595Y492400D01*
X626072Y491788D01*
X627672D01*
X629149Y492400D01*
X630280Y493531D01*
X630892Y495008D01*
Y496608D01*
X630280Y498085D01*
X629149Y499216D01*
X627672Y499828D01*
D02*
G37*
G36*
X995156Y456323D02*
Y452866D01*
X998613D01*
X997971Y454415D01*
X996705Y455681D01*
X995156Y456323D01*
D02*
G37*
G36*
X993156D02*
X991607Y455681D01*
X990341Y454415D01*
X989699Y452866D01*
X993156D01*
Y456323D01*
D02*
G37*
G36*
X998613Y450866D02*
X995156D01*
Y447410D01*
X996705Y448051D01*
X997971Y449317D01*
X998613Y450866D01*
D02*
G37*
G36*
X993156D02*
X989699D01*
X990341Y449317D01*
X991607Y448051D01*
X993156Y447410D01*
Y450866D01*
D02*
G37*
G36*
X987336Y415246D02*
X985736D01*
X984259Y414634D01*
X983128Y413503D01*
X982516Y412026D01*
Y410426D01*
X983128Y408949D01*
X984259Y407818D01*
X985736Y407206D01*
X987336D01*
X988813Y407818D01*
X989944Y408949D01*
X990556Y410426D01*
Y412026D01*
X989944Y413503D01*
X988813Y414634D01*
X987336Y415246D01*
D02*
G37*
G36*
X765032Y383424D02*
Y379968D01*
X768488D01*
X767847Y381517D01*
X766581Y382783D01*
X765032Y383424D01*
D02*
G37*
G36*
X763032D02*
X761483Y382783D01*
X760217Y381517D01*
X759576Y379968D01*
X763032D01*
Y383424D01*
D02*
G37*
G36*
X768488Y377968D02*
X765032D01*
Y374511D01*
X766581Y375153D01*
X767847Y376419D01*
X768488Y377968D01*
D02*
G37*
G36*
X763032D02*
X759576D01*
X760217Y376419D01*
X761483Y375153D01*
X763032Y374511D01*
Y377968D01*
D02*
G37*
G36*
X1117076Y352183D02*
Y348726D01*
X1120533D01*
X1119891Y350275D01*
X1118625Y351541D01*
X1117076Y352183D01*
D02*
G37*
G36*
X1115076D02*
X1113527Y351541D01*
X1112261Y350275D01*
X1111619Y348726D01*
X1115076D01*
Y352183D01*
D02*
G37*
G36*
X1120533Y346726D02*
X1117076D01*
Y343270D01*
X1118625Y343911D01*
X1119891Y345177D01*
X1120533Y346726D01*
D02*
G37*
G36*
X1115076D02*
X1111619D01*
X1112261Y345177D01*
X1113527Y343911D01*
X1115076Y343270D01*
Y346726D01*
D02*
G37*
G36*
X1076403Y329023D02*
X1073903D01*
Y320916D01*
X1082010D01*
Y323416D01*
X1081584Y325562D01*
X1080368Y327381D01*
X1078549Y328596D01*
X1076403Y329023D01*
D02*
G37*
G36*
X1071903D02*
X1069403D01*
X1067257Y328596D01*
X1065437Y327381D01*
X1064222Y325562D01*
X1063795Y323416D01*
Y320916D01*
X1071903D01*
Y329023D01*
D02*
G37*
G36*
X781834Y324044D02*
X780234D01*
X778757Y323432D01*
X777626Y322301D01*
X777014Y320824D01*
Y319224D01*
X777626Y317747D01*
X778757Y316616D01*
X780234Y316004D01*
X781834D01*
X783311Y316616D01*
X784442Y317747D01*
X785054Y319224D01*
Y320824D01*
X784442Y322301D01*
X783311Y323432D01*
X781834Y324044D01*
D02*
G37*
G36*
X1024024Y328436D02*
X1021781D01*
X1019614Y327855D01*
X1017671Y326733D01*
X1016085Y325147D01*
X1014963Y323204D01*
X1014383Y321037D01*
Y318794D01*
X1014963Y316627D01*
X1016085Y314684D01*
X1017671Y313098D01*
X1019614Y311976D01*
X1021781Y311396D01*
X1024024D01*
X1026191Y311976D01*
X1028134Y313098D01*
X1029720Y314684D01*
X1030842Y316627D01*
X1031423Y318794D01*
Y321037D01*
X1030842Y323204D01*
X1029720Y325147D01*
X1028134Y326733D01*
X1026191Y327855D01*
X1024024Y328436D01*
D02*
G37*
G36*
X1082010Y318916D02*
X1073903D01*
Y310808D01*
X1076403D01*
X1078549Y311235D01*
X1080368Y312450D01*
X1081584Y314270D01*
X1082010Y316416D01*
Y318916D01*
D02*
G37*
G36*
X1071903D02*
X1063795D01*
Y316416D01*
X1064222Y314270D01*
X1065437Y312450D01*
X1067257Y311235D01*
X1069403Y310808D01*
X1071903D01*
Y318916D01*
D02*
G37*
G36*
X1114536Y303923D02*
Y300466D01*
X1117992D01*
X1117351Y302015D01*
X1116085Y303281D01*
X1114536Y303923D01*
D02*
G37*
G36*
X1112536D02*
X1110987Y303281D01*
X1109721Y302015D01*
X1109080Y300466D01*
X1112536D01*
Y303923D01*
D02*
G37*
G36*
X1117992Y298466D02*
X1114536D01*
Y295009D01*
X1116085Y295651D01*
X1117351Y296917D01*
X1117992Y298466D01*
D02*
G37*
G36*
X1112536D02*
X1109080D01*
X1109721Y296917D01*
X1110987Y295651D01*
X1112536Y295009D01*
Y298466D01*
D02*
G37*
%LPD*%
D130*
X535952Y749448D02*
D03*
D131*
X600952D02*
D03*
X535952Y704448D02*
D03*
X600952D02*
D03*
D146*
X339852Y351028D02*
D03*
X289052D02*
D03*
Y401828D02*
D03*
X339852D02*
D03*
D147*
X1022903Y319916D02*
D03*
X1359516Y441706D02*
D03*
X1178996Y580122D02*
D03*
D148*
X294132Y655828D02*
D03*
Y630428D02*
D03*
Y706628D02*
D03*
Y732028D02*
D03*
Y681228D02*
D03*
D149*
X1845434Y478028D02*
D03*
D150*
X1548308Y307086D02*
D03*
X1448308D02*
D03*
X1498308D02*
D03*
D151*
X1128996Y580122D02*
D03*
X1309516Y441706D02*
D03*
X1072903Y319916D02*
D03*
D153*
X1933434Y445028D02*
D03*
X1853434Y506528D02*
D03*
Y449528D02*
D03*
X1933434Y511028D02*
D03*
D154*
X1878434Y478028D02*
D03*
X1948434D02*
D03*
D155*
X1471676Y596646D02*
D03*
X1446276Y622046D02*
D03*
X1420876Y596646D02*
D03*
X1289050Y595122D02*
D03*
X1263650Y620522D02*
D03*
X1238250Y595122D02*
D03*
D157*
X294132Y757428D02*
D03*
D158*
X314452Y376428D02*
D03*
D159*
X1034557Y691391D02*
D03*
X1010157D02*
D03*
X1058958D02*
D03*
D160*
X595884Y340868D02*
D03*
X438658Y339598D02*
D03*
X922020Y577596D02*
D03*
X843797Y538725D02*
D03*
X843280Y549148D02*
D03*
X903868Y549093D02*
D03*
X873252Y573532D02*
D03*
X872786Y514173D02*
D03*
X649732Y348488D02*
D03*
X626872Y495808D02*
D03*
X708152D02*
D03*
X654812D02*
D03*
X680212D02*
D03*
X427678Y537972D02*
D03*
X444755Y499984D02*
D03*
X530352Y549148D02*
D03*
X743712Y348488D02*
D03*
X986536Y411226D02*
D03*
X799592Y442448D02*
D03*
X1111127Y485465D02*
D03*
X999236Y558546D02*
D03*
X1037336Y611886D02*
D03*
X360672Y582048D02*
D03*
X507492Y554228D02*
D03*
X393192Y660908D02*
D03*
X355092Y709168D02*
D03*
X461772Y663448D02*
D03*
X482472Y615188D02*
D03*
X492938Y727529D02*
D03*
X568832Y559308D02*
D03*
X553592Y579628D02*
D03*
X581152Y638048D02*
D03*
X751712Y572008D02*
D03*
X928131Y690375D02*
D03*
X761492Y612648D02*
D03*
X637412Y686308D02*
D03*
X660272D02*
D03*
X761492Y643128D02*
D03*
X713612Y706628D02*
D03*
X1349756Y355346D02*
D03*
X1545336Y436626D02*
D03*
X1128783Y505336D02*
D03*
X1108073Y665675D02*
D03*
X1260838Y639996D02*
D03*
X1301496Y500126D02*
D03*
X1489456D02*
D03*
X1344676Y507746D02*
D03*
X1446276Y642366D02*
D03*
X1547876Y589026D02*
D03*
X1593596Y467106D02*
D03*
X1657578Y593842D02*
D03*
X1692656Y561086D02*
D03*
X1583436Y665226D02*
D03*
X1733839Y641414D02*
D03*
X1314196Y683006D02*
D03*
X1260856Y688086D02*
D03*
X1444770Y697546D02*
D03*
X1342806Y698306D02*
D03*
X1197359Y708620D02*
D03*
X1230376Y759206D02*
D03*
X1380239Y708620D02*
D03*
X1308848Y713223D02*
D03*
X1413256Y759206D02*
D03*
X1497076Y683006D02*
D03*
X1525686Y698306D02*
D03*
X1768856Y680466D02*
D03*
X1903222Y686562D02*
D03*
X1845818Y690880D02*
D03*
X1871114Y690974D02*
D03*
X1582409Y705285D02*
D03*
X1491728Y713223D02*
D03*
X1687576Y746506D02*
D03*
X1735988Y703661D02*
D03*
X1824228Y786638D02*
D03*
X906288Y675135D02*
D03*
X903224Y573532D02*
D03*
X384048Y420116D02*
D03*
X624840Y284226D02*
D03*
X1517396Y391414D02*
D03*
X1151636Y731520D02*
D03*
X1346962Y657098D02*
D03*
X1536011Y731987D02*
D03*
X1751330Y612648D02*
D03*
X1779016Y540766D02*
D03*
X781034Y320024D02*
D03*
X1268476Y279146D02*
D03*
X401192Y577088D02*
D03*
X467232Y538988D02*
D03*
X488215Y532192D02*
D03*
X355092Y729488D02*
D03*
X492252Y592328D02*
D03*
Y686308D02*
D03*
X994156Y451866D02*
D03*
X991616Y500126D02*
D03*
X837708Y642115D02*
D03*
X1057656Y576326D02*
D03*
X411352Y592328D02*
D03*
X474852Y597408D02*
D03*
X342552Y630428D02*
D03*
X1061720Y559054D02*
D03*
X764032Y378968D02*
D03*
X1752603Y649054D02*
D03*
X1593596Y639826D02*
D03*
X1580896Y688086D02*
D03*
X1471676Y665226D02*
D03*
X1547876Y492506D02*
D03*
X1518594Y490925D02*
D03*
X1286256Y662686D02*
D03*
X685292Y706628D02*
D03*
X1862328Y784606D02*
D03*
X1669796Y799846D02*
D03*
X1679956Y596646D02*
D03*
X1641856Y589026D02*
D03*
X1408176Y731266D02*
D03*
X1217676Y723646D02*
D03*
X1420876Y665226D02*
D03*
X1235456Y660146D02*
D03*
X1217683Y495176D02*
D03*
X1194823D02*
D03*
X454206Y660099D02*
D03*
X408432Y554228D02*
D03*
X510032Y630428D02*
D03*
X1113536Y299466D02*
D03*
X1116076Y347726D02*
D03*
M02*
